<svg width="976" height="559" viewBox="0 0 976 559" fill="none" xmlns="http://www.w3.org/2000/svg">
<path d="M430.593 518.687C430.593 570.405 430.794 612.363 188.506 612.363C58.9091 612.363 -54.7392 560.947 28.4218 443.374C60.1669 398.448 115.557 400.561 210.39 425.012C267.038 439.601 430.593 466.969 430.593 518.687Z" fill="white"/>
<path d="M1285.09 495.596H188.505V612.363H1285.09V495.596Z" fill="white"/>
<path d="M1179.65 234.34C1244.14 288.976 1236.8 403.731 1175.42 476.176C1114.04 548.621 1011.97 563.06 947.469 508.424C882.973 453.788 848.662 323.84 910.039 251.344C1013.02 129.848 1115.15 179.704 1179.65 234.34Z" fill="#E6F4FD"/>
<path d="M233.985 151.984C149.566 223.473 159.226 373.596 239.519 468.429C319.863 563.261 453.383 582.127 537.802 510.638C622.221 439.149 667.096 269.104 586.753 174.271C452.075 15.2438 318.404 80.4947 233.985 151.984Z" fill="#E6F4FD"/>
<path d="M779.688 147.205C779.688 218.694 721.732 276.6 650.293 276.6C578.804 276.6 520.898 218.644 520.898 147.205C520.898 75.7153 578.854 2.50407e-05 650.293 2.50407e-05C721.732 -0.0502841 779.688 75.7153 779.688 147.205Z" fill="#E6F4FD"/>
<path d="M754.936 64.9491C731.391 27.4687 693.307 0 650.243 0C623.78 0 599.179 10.414 578.703 27.1669V27.1166C578.451 27.3179 578.2 27.5191 577.948 27.7706C577.244 28.3743 576.54 28.978 575.835 29.5817C574.376 30.8395 572.968 32.0972 571.559 33.4053C570.855 34.0593 570.15 34.7133 569.446 35.4176C568.037 36.776 566.629 38.1846 565.27 39.6436C564.667 40.2473 564.113 40.851 563.51 41.4547C561.799 43.3161 560.139 45.2279 558.479 47.1899C558.277 47.3912 558.127 47.5925 557.925 47.7937C556.064 50.0576 554.253 52.3718 552.492 54.7363C552.24 55.0885 551.989 55.4407 551.737 55.7928C550.329 57.7549 548.92 59.7673 547.562 61.7796C547.159 62.4337 546.706 63.0877 546.304 63.7417C545.147 65.5528 543.99 67.4142 542.933 69.2757C542.531 69.98 542.128 70.634 541.726 71.3383C540.569 73.3507 539.512 75.3631 538.456 77.4258C538.254 77.8283 538.003 78.2307 537.802 78.6332C537.802 78.6332 537.802 78.6332 537.802 78.6835C529.652 94.8831 524.067 112.391 521.854 130.049C533.374 128.137 544.996 126.779 556.567 125.27C564.918 124.163 573.722 123.66 582.275 122.302C590.023 124.565 598.122 125.974 605.971 126.829C626.094 128.993 646.62 128.64 666.744 126.628C687.572 124.515 709.356 120.188 727.417 109.12C735.768 104.039 743.113 97.3482 748.195 88.8963C751.666 83.161 754.332 76.7214 754.835 69.98C755.087 68.2192 755.037 66.559 754.936 64.9491Z" fill="white"/>
<path d="M796.139 293.403C849.125 293.403 892.079 250.449 892.079 197.463C892.079 144.477 849.125 101.524 796.139 101.524C743.153 101.524 700.2 144.477 700.2 197.463C700.2 250.449 743.153 293.403 796.139 293.403Z" fill="#E6F4FD"/>
<path d="M1047.14 313.381C1111.13 273.273 1130.49 188.886 1090.38 124.899C1050.27 60.9108 965.882 41.5528 901.895 81.6612C837.907 121.77 818.549 206.156 858.657 270.144C898.766 334.132 983.152 353.49 1047.14 313.381Z" fill="#E6F4FD"/>
<path d="M835.028 128.54C842.273 139.306 846.298 151.632 847.656 164.41C849.668 162.549 851.278 160.235 852.938 158.071C863.554 143.683 876.433 132.011 893.286 125.521C915.322 117.069 947.167 119.937 953.959 147.054C984.849 126.226 1024.79 142.023 1037.67 148.513C1063.63 161.593 1086.67 184.685 1082.55 216.078C1109.82 220.304 1133.91 228.504 1156.45 244.452C1204.55 278.511 1224.52 331.889 1224.67 335.663C1223.21 295.918 1208.78 258.992 1179.65 234.34C1160.28 217.939 1137.54 202.042 1112.43 190.973C1113.34 131.911 1081.19 81.1487 1004.42 63.9933C946.312 51.0135 888.608 77.0736 858.674 124.767C844.637 112.642 827.029 104.593 807.66 102.279C818.225 109.372 827.884 117.925 835.028 128.54Z" fill="white"/>
<path d="M449.962 554.004H1051.36V249.433L749.855 176.233L507.868 227.749L449.962 554.004Z" fill="#E6F4FD"/>
<path d="M1321.01 383.305C1331.83 392.311 1339.03 404.888 1338.87 420.283C1338.62 443.224 1322.83 462.24 1304.26 474.013C1283.53 487.093 1258.48 491.671 1234.23 490.565C1186.19 488.351 1135.93 466.567 1101.87 432.307C1086.88 450.468 1070.17 467.372 1050.65 480.654C1033.35 492.476 1013.83 501.029 993.251 505.154C970.662 509.732 947.419 508.827 924.679 506.01C901.537 503.142 878.294 497.708 857.718 486.49C847.304 480.855 838.248 473.761 830.45 464.806C823.608 457.008 817.672 448.406 810.377 441.111C795.687 461.083 776.066 476.73 753.276 486.691C710.714 505.255 661.11 504.802 617.29 490.766C575.332 477.333 536.192 450.267 515.515 410.573C485.178 433.011 448.151 443.827 410.419 439.652C342.854 432.206 280.722 382.5 252.851 321.325C237.305 287.215 233.381 249.835 233.029 212.757C232.828 193.841 233.13 175.227 238.362 156.864C239.519 152.89 240.877 148.915 242.387 145.041C239.519 147.356 236.752 149.67 233.985 151.984C161.64 213.311 158.421 332.342 209.585 424.861C115.255 400.612 60.0661 398.65 28.3714 443.425C-54.7897 560.997 58.8587 612.413 188.455 612.413H1285.04C1357.94 612.413 1417 560.142 1417 495.646C1417.06 442.167 1376.41 397.14 1321.01 383.305Z" fill="#B3D6F2"/>
<path d="M449.962 206.117C448.553 161.593 486.386 120.893 530.155 112.692C552.894 108.265 576.54 112.24 596.261 122.452C615.982 132.615 632.383 149.418 639.426 169.391C623.679 155.506 606.574 146.098 588.664 140.715C532.62 122.302 475.117 153.896 449.962 206.117Z" fill="white"/>
<path d="M906.769 231.925C885.337 196.306 846.8 175.277 806.251 186.546C793.372 189.867 780.795 195.753 768.117 205.11C777.072 172.409 815.709 153.544 848.712 160.285C881.816 166.372 910.542 198.268 906.769 231.925Z" fill="white"/>
<path d="M450.867 361.522C474.11 397.845 516.823 411.277 557.422 400.41C570.955 397.392 584.338 392.613 598.273 387.934C576.389 408.309 546.505 421.641 515.766 418.472C485.279 415.403 455.798 392.009 450.867 361.522Z" fill="#B3D6F2"/>
<path d="M917.133 356.39C909.234 403.53 865.415 442.167 816.917 445.638C792.115 447.651 767.815 441.211 747.038 430.445C726.21 419.578 708.249 404.737 693.811 387.028C714.639 396.386 734.511 405.794 754.735 412.183C819.433 434.973 877.791 411.831 917.133 356.39Z" fill="#B3D6F2"/>
</svg>
