<svg width="391" height="392" viewBox="0 0 391 392" fill="none" xmlns="http://www.w3.org/2000/svg">
<path d="M371.599 -3.09286e-05L-1.429e-08 0.238938L6.56229 391.082L383.083 385.891L390.465 380.982L383.083 7.83268L371.599 -3.09286e-05Z" fill="#361500"/>
<path d="M390.459 381.108L382.787 7.51572L13.6596 9.1775L18.6324 387.236L390.459 381.108Z" fill="#734425"/>
<path d="M280.201 382.978C229.478 345.068 150.197 270.391 124.338 144.51C109.562 73.0528 109.135 32.0272 114.392 8.76208L13.6568 9.17753L18.7717 387.236L280.201 382.978Z" fill="#714121"/>
<path d="M14.0836 39.609L15.6464 155C20.7613 137.343 23.1768 119.894 23.1768 102.342C23.0347 81.9848 19.6247 61.2123 14.0836 39.609Z" fill="#462814"/>
<path d="M17.2092 279.323L17.6354 315.778C29.7123 299.161 45.4833 265.717 46.62 262.913C67.5059 212.747 80.2932 159.674 79.2987 106.808C79.0145 89.1512 77.1675 71.5985 73.6154 54.1496C70.6317 39.505 69.9213 23.3025 63.9539 8.86569L52.5874 8.96955C56.8498 19.7712 59.1231 31.4038 60.4019 38.051C62.5331 48.8526 67.0797 59.4466 68.3584 70.456C75.6045 131.735 63.8118 225.418 17.9196 278.492C17.7775 278.7 17.4933 279.115 17.2092 279.323Z" fill="#462814"/>
<path d="M73.6167 386.301L84.5569 386.094C78.8736 365.321 72.7642 346.003 38.0964 347.769C30.566 348.184 24.1724 352.235 18.3471 358.051L18.6312 381.316C20.1941 367.814 23.7461 356.493 37.2439 356.078C57.9877 355.662 70.0646 371.968 73.6167 386.301Z" fill="#462814"/>
<path d="M140.82 224.276C149.202 262.497 157.017 300.719 165.258 338.94C168.241 353.065 173.782 369.372 173.498 384.743L186.428 384.536C186.286 381.524 186.144 378.823 186.144 377.161C186.712 342.991 177.761 308.82 169.52 275.273C162.558 247.126 157.727 219.187 147.071 191.56C144.23 184.082 134.852 156.143 117.518 158.012C96.7745 160.193 95.0695 193.325 94.5012 202.465C91.3754 257.097 98.1953 309.651 110.698 363.555C111.835 368.437 113.114 376.85 114.677 385.782L124.48 385.574C123.344 379.862 122.491 374.357 121.639 370.41C110.841 323.672 111.409 275.273 110.272 227.911C110.13 218.979 101.747 182.731 116.95 177.642C131.3 172.761 139.825 219.706 140.82 224.276Z" fill="#462814"/>
<path d="M219.248 367.918C219.533 362.724 219.533 357.531 219.533 352.442C219.675 275.169 197.226 200.907 160.711 128.204C146.645 100.369 109.42 38.5705 107.573 8.76208L86.9707 8.86594C87.1128 9.38525 87.397 10.2161 87.5391 10.5277C104.589 37.9474 114.961 66.4056 128.316 94.76C164.831 172.968 204.472 249.099 201.204 333.02C200.92 339.459 201.772 362.413 200.636 384.224L218.538 383.912C218.822 378.512 218.964 373.007 219.248 367.918Z" fill="#462814"/>
<path d="M321.262 322.426C313.874 276.519 308.333 230.508 301.087 184.601C292.278 129.034 277.359 63.4972 298.245 7.93094L285.174 8.03481C285.174 8.34639 285.316 8.65797 285.316 8.8657C288.726 37.8433 272.955 59.135 272.955 83.4388C272.955 121.972 276.649 159.154 285.884 197.272C288.584 208.593 295.546 218.875 299.24 229.884C305.491 247.749 307.48 267.171 311.459 285.451C318.279 316.921 322.257 350.365 322.967 382.354L332.061 382.25C328.508 357.947 322.825 331.462 321.262 322.426Z" fill="#462814"/>
<path d="M278.497 375.603C278.497 369.787 278.497 363.971 278.212 358.155C273.808 258.343 215.555 163.621 211.292 63.4976C210.44 44.3869 216.833 26.6265 222.232 8.24289L207.314 8.34675C202.483 19.46 198.505 30.8848 198.647 42.7251C199.073 63.8092 207.598 84.1662 212.287 104.835C212.429 105.666 217.402 118.545 216.691 118.96C212.997 121.349 213.565 112.105 211.86 108.781C207.456 100.68 203.051 92.4751 197.368 84.8932C187.423 71.7027 176.482 58.8238 171.367 44.0753C167.389 32.4428 167.105 20.2909 162.416 8.65834L149.061 8.7622C157.585 48.0221 184.723 84.3739 203.051 121.349C221.096 157.597 229.052 194.987 241.84 232.17C262.015 290.54 269.403 328.346 266.846 383.289L278.354 383.082C278.212 380.485 278.354 378.096 278.497 375.603Z" fill="#462814"/>
<path d="M383.78 248.995C374.261 229.054 368.719 207.969 360.195 187.716C353.375 171.722 344.992 155.935 340.729 139.317C328.368 91.6438 334.052 57.6809 363.747 13.8511C365.167 11.67 366.73 9.59272 368.293 7.51547L351.954 7.61933C351.386 8.45023 350.107 10.3197 349.681 10.8391C337.746 28.2879 330.5 46.8792 324.39 65.6783C310.608 108.054 326.237 161.335 345.276 201.426C349.538 210.462 366.162 266.132 388.327 283.166L387.758 254.5C385.911 252.111 384.348 250.138 383.78 248.995Z" fill="#462814"/>
<path d="M354.797 347.561L350.392 37.3242L368.01 17.4866L339.594 34.3122L55.7157 33.2736L23.3212 17.7981L49.6062 42.5174L57.7048 357.531L30.2832 380.277L74.6125 362.309L354.512 356.181L383.639 376.85L354.797 347.561ZM62.9619 42.6212L334.763 41.5826L344.993 344.652L70.0659 352.858L62.9619 42.6212Z" fill="#361500"/>
<path d="M277.928 117.298C276.649 129.657 277.502 143.887 281.196 162.166L281.196 162.27C284.606 179.511 288.726 194.883 291.284 206.1C293.699 217.317 294.836 224.276 295.83 224.172C296.683 224.172 297.109 217.006 295.83 205.685C294.268 191.559 291.568 181.381 287.732 161.543L287.732 161.439C284.038 142.848 282.617 130.073 282.617 117.402C282.617 106.185 283.896 99.1219 283.043 99.018C281.906 98.9142 279.065 105.769 277.928 117.298Z" fill="#361500"/>
<path d="M235.161 200.803C244.539 228.95 251.927 254.812 257.894 273.403C263.862 291.994 267.982 303.419 268.835 303.315C269.687 303.211 267.13 291.579 262.299 272.78C257.894 255.331 250.364 226.665 241.413 199.765C231.609 170.372 221.806 147.314 211.86 128.515C202.483 110.755 195.095 100.161 194.242 100.472C193.39 100.784 199.357 111.69 207.598 129.658C216.549 149.184 225.358 170.891 235.161 200.803Z" fill="#361500"/>
<path d="M204.898 295.421C206.745 295.421 208.024 272.156 203.193 243.906C198.362 215.655 187.564 193.74 185.859 194.052C184.154 194.467 192.11 216.486 196.799 244.425C201.488 272.468 203.051 295.421 204.898 295.421Z" fill="#361500"/>
<path d="M169.662 299.576C171.367 299.472 170.94 280.362 165.683 257.304C160.426 234.247 151.333 216.279 149.628 216.59C147.923 217.006 154.033 235.182 159.29 258.031C164.547 280.881 167.957 299.68 169.662 299.576Z" fill="#361500"/>
</svg>
