<svg width="169" height="228" viewBox="0 0 169 228" fill="none" xmlns="http://www.w3.org/2000/svg">
<g clip-path="url(#clip0_14_3423)">
<path d="M108.495 7.32345C106.982 6.93416 105.811 5.93661 104.469 5.23103C100.078 2.87099 95.4421 1.26518 90.5138 0.462277C89.8307 0.340625 89.1476 0.267634 88.4644 0.170313C88.0741 0 87.6105 0.218973 87.2202 0C85.61 0 84.0241 0 82.4139 0C81.9504 0.267634 81.4136 -0.0243304 80.9257 0.194643C75.2411 0.973215 70.0445 2.94398 65.4334 6.39889C64.6283 7.00715 63.872 7.63974 63.0669 8.248C62.8961 8.36965 62.7009 8.4913 62.6521 8.71028C62.5545 9.29421 62.7985 9.82947 62.9449 10.3647C65.5798 19.1967 67.1412 28.2232 68.0439 37.3958C68.4831 41.7753 68.605 46.1791 68.971 50.5829C68.9954 51.0208 68.9954 51.4831 69.1906 51.8967C69.3614 52.213 69.6541 52.3833 69.9957 52.4076C71.0448 52.0913 71.7279 51.2155 72.4842 50.5342C74.3872 48.8797 76.3146 47.2739 78.4372 45.9114C82.9994 42.8701 87.9765 40.7777 93.2951 39.5125C96.2228 39.0746 99.126 38.5637 102.103 38.5637C110.422 38.6123 118.107 40.8507 125.304 44.9139C127.524 46.1791 129.647 47.6146 131.672 49.1474C132.062 49.4393 132.453 49.7313 132.965 49.8043C133.307 49.8043 133.624 49.707 133.843 49.4393C134.136 48.6364 133.941 47.8335 133.819 47.055C131.867 35.5467 127.061 25.4009 119.278 16.6177C116.643 13.6493 113.667 11.119 110.544 8.71028C109.934 8.17501 109.08 7.95604 108.495 7.32345Z" fill="#6485F7"/>
<path d="M69.4834 51.994C68.9467 37.2498 67.4096 22.6516 62.8961 8.4913C62.3594 8.15067 61.7007 8.56429 61.1639 8.24799C60.188 8.22366 59.2121 8.22366 58.2362 8.19933C57.6751 8.07768 57.114 8.07768 56.5772 8.19933C55.6745 8.22366 54.7962 8.22366 53.8935 8.24799C53.43 8.51563 52.8932 8.22366 52.4297 8.44264C48.1114 9.00223 43.915 9.95112 40.0115 11.9219C33.6194 15.1092 28.8863 19.9996 25.3731 26.1552C23.3481 29.7074 21.8355 33.4786 20.6156 37.3958C20.4692 37.8581 20.2985 38.3203 19.9813 38.6853C18.9322 40.8264 18.5907 43.1621 18.1515 45.4491C16.9316 51.7264 16.2973 58.0766 16.0289 64.4755C15.8582 68.4414 15.907 72.4072 15.8582 76.3731C15.8338 77.8572 15.9801 79.3657 16.3217 80.8255C16.3949 80.9472 16.4925 81.0445 16.6145 81.0931C17.444 80.9715 17.5172 80.2416 17.7124 79.6577C19.3958 74.8646 21.5183 70.2661 24.4216 66.0813C30.4233 57.444 38.5964 52.505 49.1117 51.4587C52.8444 51.0938 56.5528 51.1911 60.2856 51.6777C62.9937 51.994 65.6286 52.6996 68.3367 53.0159C68.8491 52.8213 69.2882 52.5536 69.4834 51.994Z" fill="#4C77FE"/>
<path d="M108.495 7.32346C108.861 8.44265 110.007 8.73462 110.813 9.34288C117.205 14.1116 122.279 19.9753 126.28 26.8608C129.989 33.2596 132.355 40.1451 133.6 47.4199C133.697 48.0525 133.502 48.7338 133.892 49.3177C134.088 49.853 134.478 50.1936 134.941 50.5099C135.137 50.5829 135.307 50.5829 135.503 50.5829C138.211 50.4369 140.919 50.4612 143.627 50.5585C147.164 50.6802 150.653 51.2155 154.02 52.359C160.363 54.5001 164.023 58.8309 164.682 65.5704C164.731 66.0083 164.706 66.4706 164.999 66.8356C165.121 66.9572 165.218 66.9572 165.365 66.8599C165.389 66.13 165.389 65.4001 165.414 64.6702C165.536 63.1373 165.536 61.6045 165.414 60.0961C165.389 59.3661 165.365 58.6362 165.365 57.9306C165.121 57.5414 165.365 57.0791 165.17 56.6898C164.389 47.1766 160.827 38.7583 154.898 31.3619C150.409 25.7416 144.871 21.2648 138.552 17.7612C129.623 12.7735 120.035 9.65917 110.007 7.73707C109.495 7.63975 109.007 7.46944 108.495 7.32346Z" fill="#4C77FE"/>
<path d="M75.1681 208.657C76.9491 211.553 78.8521 214.326 81.2675 216.759C84.3171 219.849 87.8303 222.234 91.8071 223.985C92.5146 224.302 93.1977 224.642 93.8809 224.959C94.6372 224.983 95.2715 225.445 96.0034 225.616C102.761 227.781 109.373 227.051 115.668 224.107C127.403 218.633 133.356 208.901 134.893 196.444C136.235 185.519 133.16 175.665 126.012 167.174C123.133 163.768 119.718 160.97 115.619 159.121C114.911 158.707 114.082 158.634 113.399 158.147C112.74 157.612 111.862 157.758 111.13 157.393C110.032 156.444 108.592 156.517 107.299 156.177C106.128 155.933 104.982 155.641 103.786 155.739C103.079 155.593 102.371 155.739 101.664 155.714C99.7362 155.544 97.8332 155.763 95.9546 156.225C95.2471 156.323 94.564 156.566 93.8565 156.736C92.0755 157.247 90.3676 157.88 88.7086 158.707C88.0743 159.096 87.3668 159.388 86.7081 159.753C86.0249 160.216 85.3174 160.702 84.6343 161.164C84 161.675 83.1948 162.04 82.9021 162.916C75.3389 169.485 71.4841 177.879 70.6302 187.758C70.5083 189.363 70.5083 190.969 70.6302 192.575C71.0694 198.268 72.6308 203.597 75.1681 208.657Z" fill="#FED871"/>
<path d="M16.5413 80.9472C16.2241 76.7137 16.2241 72.4559 16.3461 68.1981C16.4925 62.9914 16.7853 57.809 17.4684 52.6266C18.0539 48.2472 18.859 43.9407 19.9569 39.6829C20.0301 39.3666 20.3473 39.0016 20.0057 38.661C11.2471 45.1815 5.85527 53.9405 2.8788 64.3295C1.68333 68.5144 1.04901 72.7965 0.41468 77.103C0.195105 77.5653 0.487875 78.1249 0.219505 78.5871C0.195108 79.0737 0.170708 79.536 0.170708 80.0226C-0.0488682 80.7525 0.268293 81.5311 -7.62939e-05 82.261C-7.62939e-05 85.6429 -7.62939e-05 89.0249 -7.62939e-05 92.3825C0.268293 93.1854 -0.0244713 94.0369 0.170708 94.8398C0.195105 95.4724 0.2195 96.105 0.243896 96.7619C0.487869 97.2485 0.2439 97.7838 0.41468 98.2461C0.439077 98.7327 0.463472 99.195 0.487869 99.6816C0.683048 99.9249 0.487875 100.266 0.707451 100.509C1.26859 100.484 1.29299 100.022 1.36618 99.6572C2.17129 96.47 3.92789 93.818 6.07485 91.4336C8.3438 88.9519 10.7591 86.6405 13.4672 84.6454C14.2235 83.9398 15.1994 83.5505 15.907 82.772C15.9558 82.0907 16.2241 81.5068 16.5413 80.9472Z" fill="#2E5CF7"/>
<path d="M169 94.3046C169 93.453 169 92.6014 169 91.7499C168.78 91.3362 169 90.874 168.829 90.4847C168.805 90.2657 168.78 90.0467 168.756 89.8278C168.536 89.4141 168.78 88.9519 168.561 88.5382L168.488 88.5626C168.17 85.5943 166.78 83.1126 165.048 80.7769C164.706 80.3389 164.413 79.8036 163.706 79.8766C163.145 80.0469 162.901 80.5092 162.584 80.9472C156.997 88.7816 151.507 96.6889 145.92 104.523C145.457 105.18 144.92 105.813 144.822 106.64C145.066 108.441 145.774 110.095 146.311 111.822C146.433 112.26 146.774 112.552 147.164 112.796C147.457 112.99 147.726 113.234 148.067 113.282C150.629 113.38 152.971 112.504 155.289 111.603C160.485 109.56 164.56 106.202 167.121 101.214C168.024 99.4626 168.658 97.5892 168.805 95.5941C169 95.1561 168.756 94.6938 169 94.3046Z" fill="#0B3A9F"/>
<path d="M165.145 66.9086C165.023 63.6483 164.364 60.5583 162.461 57.8333C160.168 54.5487 156.899 52.6996 153.142 51.6047C147.457 49.926 141.602 49.9746 135.746 50.1449C135.6 50.1449 135.454 50.2666 135.307 50.3152C138.43 52.1157 140.943 54.6704 143.578 57.0548C149.555 62.4561 155.02 68.3197 159.778 74.8403C160.656 76.0568 161.388 77.3706 162.461 78.4412C162.876 78.5385 163.242 78.4168 163.559 78.1735C164.682 76.0081 165.121 73.6967 165.048 71.2637C165.096 70.3635 165.121 69.4632 165.17 68.563C165.267 68.0034 165.267 67.4682 165.145 66.9086Z" fill="#1442C0"/>
<path d="M115.35 159.291C126.427 165.301 132.624 174.692 134.38 187.052C135.82 197.149 133.502 206.395 127.281 214.497C122.255 221.066 115.521 224.959 107.299 226.175C103.445 226.735 99.6141 226.321 95.8326 225.445C95.5886 225.372 95.5398 225.47 95.5886 225.689C108.397 231.163 123.548 226.662 131.453 214.764C139.26 203.013 139.723 190.556 134.429 177.685C133.404 175.203 132.014 172.916 130.452 170.751C130.233 170.459 129.94 170.215 129.94 169.802C128.842 168.561 127.793 167.271 126.598 166.104C123.401 162.989 119.766 160.483 115.57 158.877C115.375 158.95 115.228 159.048 115.35 159.291Z" fill="#FEA800"/>
<path d="M13.3696 84.3291C11.5886 85.4483 10.0516 86.8838 8.53896 88.3436C6.29441 90.4604 4.24504 92.7231 2.65922 95.4238C1.73212 97.0052 1.24418 98.757 0.707438 100.484C0.536657 100.606 0.561057 100.776 0.634249 100.947C0.634249 101.117 0.634249 101.287 0.634249 101.458C0.512262 102.09 0.512262 102.747 0.634249 103.38C1.19539 107.54 3.41553 110.703 6.46519 113.477C7.95343 114.839 9.63684 115.934 11.1739 117.199C11.7594 117.37 11.979 117.005 12.1986 116.567C12.5157 115.156 12.101 113.769 12.0278 112.358C11.8082 108.392 11.8082 104.45 12.0278 100.509C12.2961 95.5941 12.9549 90.7037 13.7112 85.8376C13.8088 85.278 13.8332 84.7427 13.3696 84.3291Z" fill="#0B3A9F"/>
<path d="M35.3029 138.683C37.6695 138.537 40.036 138.294 42.3293 137.661C42.3537 136.712 41.4754 136.566 40.9143 136.226C36.4984 133.501 32.0825 130.751 27.6666 128.026C22.9335 125.107 18.2248 122.163 13.4674 119.268C13.1014 119.049 12.711 118.416 12.1499 119.024C12.5402 120.946 12.7598 122.893 13.2722 124.815C15.5167 133.16 20.9329 137.807 29.5939 138.635C29.7159 138.635 29.8379 138.683 29.9599 138.683C30.5454 138.853 31.1798 138.635 31.7653 138.853C32.2777 138.756 32.7656 138.732 33.2779 138.853C33.9367 138.61 34.6442 138.878 35.3029 138.683Z" fill="#1442C0"/>
<path d="M145.091 117.662C143.359 119.268 141.968 121.165 140.455 122.941C137.528 126.348 134.624 129.778 131.721 133.233C131.477 133.525 131.062 133.768 131.184 134.255C133.331 133.233 135.259 131.871 137.015 130.265C140.748 126.883 143.237 122.674 145.14 118.051C145.188 117.881 145.286 117.783 145.091 117.662Z" fill="#1542C0"/>
<path d="M163.413 78.0275C164.291 78.5385 164.291 79.2197 163.73 79.974C164.877 80.8012 165.487 82.042 166.219 83.1856C167.268 84.84 167.78 86.7378 168.488 88.5139C168.488 88.1246 168.512 87.711 168.512 87.3217C168.268 86.9324 168.512 86.4945 168.341 86.0809C167.926 80.9715 166.658 76.0568 165.048 71.215C164.438 73.5021 164.169 75.8378 163.413 78.0275Z" fill="#2E5CF7"/>
<path d="M115.35 159.291C115.423 159.145 115.497 159.023 115.57 158.877C114.838 158.634 114.13 158.415 113.398 158.172C113.813 158.999 114.74 158.877 115.35 159.291Z" fill="#FAB321"/>
<path d="M95.613 225.664C95.6862 225.591 95.7837 225.518 95.8569 225.421C95.2226 225.153 94.6615 224.691 93.9052 224.934C94.4663 225.202 95.0274 225.421 95.613 225.664Z" fill="#FEBD35"/>
<path d="M93.1488 39.1719C88.1718 40.3398 83.5363 42.2619 79.218 44.9869C78.8764 45.2058 78.5593 45.4735 78.2421 45.6924C78.0469 46.5927 78.4373 47.3712 78.7056 48.1741C86.342 69.9742 91.807 92.3581 96.1985 114.985C97.4672 121.457 98.5406 127.978 99.5897 134.498C99.7117 135.277 99.6873 136.128 100.346 136.761C102.615 137.296 104.86 138.124 107.25 137.564C107.86 137.004 107.982 136.226 108.202 135.496C111.569 123.988 114.984 112.479 118.351 100.971C121.108 91.5552 123.889 82.1394 126.671 72.7478C126.817 72.2369 126.988 71.7503 126.963 71.215C126.622 70.1931 125.817 69.4632 125.182 68.636C121.913 64.3295 118.302 60.3393 114.496 56.5438C108.226 50.3152 101.395 44.6949 94.0759 39.7072C93.8076 39.4882 93.4416 39.4152 93.1488 39.1719Z" fill="#1442C0"/>
<path d="M100.444 136.664C99.8093 132.941 99.1262 129.194 98.5163 125.472C97.4428 118.732 96.1009 112.066 94.7347 105.375C92.9049 96.47 90.8067 87.6137 88.489 78.8304C86.7812 72.3829 85.0246 65.9353 82.9264 59.6094C81.5114 55.3516 80.1207 51.0695 78.7301 46.8117C78.6081 46.4224 78.5593 46.0088 78.2421 45.7168C75.2657 47.5659 72.6308 49.8043 70.191 52.3103C69.8739 52.9186 70.1178 53.5025 70.2642 54.0865C72.0452 61.3126 73.8018 68.563 75.5828 75.8135C79.8524 93.0394 84.0243 110.29 88.2694 127.516C89.3429 131.846 90.4896 136.153 91.4411 140.508C91.5875 141.141 91.6606 141.797 92.173 142.284C92.6853 142.625 93.1245 142.284 93.5148 142.041C95.7106 140.703 97.8576 139.243 99.8825 137.637C100.175 137.394 100.614 137.175 100.444 136.664Z" fill="#0B3A9F"/>
<path d="M93.1489 39.1719C93.4173 39.8532 94.076 40.1451 94.6371 40.5344C99.6142 43.9893 104.372 47.7119 108.91 51.775C112.106 54.646 115.131 57.663 118.083 60.753C120.864 63.6726 123.426 66.7869 125.841 70.0228C126.11 70.3635 126.451 70.6797 126.744 70.996C127.378 70.7527 127.476 70.1688 127.622 69.6335C129.403 63.551 131.209 57.444 132.99 51.3614C133.16 50.8018 133.453 50.2179 133.112 49.6096C130.599 47.8335 128.159 45.9844 125.451 44.4759C119.474 41.167 113.13 39.0016 106.275 38.3447C101.859 37.9311 97.4916 38.2717 93.1489 39.1719Z" fill="#0B3A9F"/>
<path d="M90.4896 142.771C86.9276 128.245 83.3412 113.72 79.7792 99.195C76.0464 83.9885 72.338 68.8063 68.6052 53.5998C68.532 53.3322 68.5076 53.0402 68.4588 52.7726C65.7263 52.1157 62.9938 51.5074 60.1882 51.3128C59.6514 51.6047 59.4074 52.14 59.1879 52.6509C54.1864 63.6239 49.7705 74.7916 46.9648 86.5432C45.2326 93.7206 44.0859 100.995 43.9152 108.392C43.8908 109.073 43.964 109.779 44.0128 110.46C44.4763 111.774 45.5254 112.65 46.4281 113.623C50.7464 118.319 55.0403 123.014 59.3587 127.686C62.4815 131.092 65.6044 134.498 68.7516 137.88C71.4353 140.751 74.0458 143.695 76.7539 146.566C77.1687 147.004 77.559 147.491 78.169 147.71C79.0473 147.904 79.8524 147.612 80.6819 147.442C83.7559 146.81 86.6592 145.69 89.4893 144.352C90.1236 144.012 90.8068 143.695 90.4896 142.771Z" fill="#0B3A9F"/>
<path d="M44.3542 110.655C44.281 100.338 46.184 90.3387 49.0385 80.4849C51.649 71.4097 55.1134 62.6507 59.0657 54.0864C59.4805 53.1619 59.8465 52.2373 60.2368 51.2884C59.2365 50.8505 58.1386 50.9478 57.114 50.8748C47.721 50.2909 38.8892 51.9454 31.3504 57.955C26.105 62.1155 22.4942 67.5411 19.7129 73.5994C18.615 76.0081 17.7367 78.4655 16.834 80.9472C17.4196 82.4313 18.6882 83.3802 19.7373 84.4751C24.812 89.9008 29.7646 95.4238 34.8148 100.849C37.6937 103.939 40.5238 107.054 43.3783 110.168C43.5979 110.436 43.8418 110.825 44.3542 110.655Z" fill="#1442C0"/>
<path d="M134.892 50.3152C132.746 57.663 130.574 65.0108 128.427 72.3586C128.354 72.6262 128.305 72.9182 128.256 73.1858C128.134 73.8914 128.525 74.4267 128.891 74.9619C134.087 82.4314 138.284 90.4604 141.773 98.83C142.358 100.217 142.87 101.604 143.407 103.015C143.578 103.453 143.651 103.964 144.163 104.183C148.189 98.5137 152.215 92.8448 156.24 87.1514C158.314 84.2075 160.388 81.2635 162.437 78.3195C161.583 76.2271 160.022 74.6213 158.729 72.8208C156.167 69.2929 153.264 66.0083 150.214 62.8941C145.969 58.5632 141.529 54.4757 136.82 50.6802C136.356 50.2909 135.844 50.3882 135.332 50.3152C135.161 50.3152 135.039 50.3152 134.892 50.3152Z" fill="#0B3A9F"/>
<path d="M114.155 220.117C116.619 219.241 118.742 217.733 120.693 216.054C126.72 210.896 129.916 204.229 130.965 196.468C131.038 195.981 131.062 195.519 131.111 195.032C131.013 193.427 131.087 191.821 131.087 190.215C131.087 189.436 131.038 188.682 130.843 187.952C130.794 187.49 130.94 187.003 130.648 186.59C130.574 186.273 130.623 185.957 130.574 185.641C130.355 185.008 130.257 184.327 130.111 183.67C129.916 183.037 129.696 182.405 129.598 181.748C128.501 178.853 127.256 176.006 125.475 173.427C125.305 173.184 125.134 172.965 124.963 172.746C120.889 167.028 115.546 163.014 108.666 161.408C100.761 159.559 93.5393 161.262 87.318 166.42C80.1696 172.356 76.8759 180.166 76.6075 189.363C76.4368 195.495 77.681 201.285 80.6819 206.662C84.927 214.278 91.0995 219.509 99.7362 221.601C103.493 222.526 107.202 222.209 110.91 221.236C112.008 220.92 113.057 220.506 114.155 220.117Z" fill="#FEA800"/>
<path d="M110.934 221.09C109.568 221.187 108.226 221.504 106.836 221.65C102.639 222.088 98.6383 221.309 94.9055 219.533C85.0246 214.862 79.462 206.833 77.5102 196.273C76.1196 188.755 77.0711 181.529 80.8526 174.765C85.049 167.271 91.2703 162.503 99.8581 161.335C107.397 160.313 113.984 162.722 119.791 167.515C121.718 169.096 123.28 170.994 124.817 172.916C125.036 172.94 125.158 172.892 125.085 172.624C120.401 165.885 114.082 161.529 105.884 160.289C91.4167 158.074 79.4376 167.612 75.5584 180.604C72.6552 190.312 73.8506 199.631 79.1692 208.268C83.8047 215.81 90.4896 220.652 99.3458 222.185C103.323 222.866 107.275 222.526 111.13 221.285C111.227 221.09 111.203 220.969 110.934 221.09Z" fill="#C87B00"/>
<path d="M125.134 172.624C125.036 172.721 124.963 172.819 124.865 172.916C126.598 175.471 128.135 178.147 129.111 181.091C129.184 181.31 129.355 181.48 129.501 181.699C129.623 181.602 129.623 181.505 129.525 181.383C128.574 178.22 127.134 175.276 125.134 172.624Z" fill="#CF8206"/>
<path d="M130.721 187.758C131.233 190.166 130.696 192.624 131.111 195.032C131.233 192.599 131.404 190.191 130.94 187.782C130.867 187.636 130.794 187.636 130.721 187.758Z" fill="#E69404"/>
<path d="M110.934 221.09C111.008 221.163 111.081 221.236 111.178 221.309C112.203 221.017 113.252 220.774 114.155 220.141C113.033 220.263 111.983 220.701 110.934 221.09Z" fill="#D58A0B"/>
<path d="M129.525 181.407C129.525 181.505 129.501 181.602 129.501 181.724C129.452 182.405 129.72 183.037 129.989 183.646C130.062 183.767 130.135 183.767 130.208 183.646C130.037 182.867 129.915 182.089 129.525 181.407Z" fill="#D78F13"/>
<path d="M130.208 183.646C130.135 183.646 130.062 183.646 129.989 183.646C130.111 184.303 130.111 184.984 130.477 185.592C130.574 185.568 130.623 185.495 130.623 185.373C130.477 184.789 130.33 184.205 130.208 183.646Z" fill="#D88B09"/>
<path d="M130.721 187.758C130.794 187.758 130.891 187.758 130.965 187.758C130.965 187.344 131.038 186.906 130.745 186.517C130.647 186.371 130.574 186.371 130.501 186.517C130.672 186.93 130.721 187.344 130.721 187.758Z" fill="#DA9013"/>
<path d="M130.501 186.541C130.574 186.541 130.672 186.541 130.745 186.541C130.696 186.152 130.648 185.762 130.623 185.373C130.574 185.446 130.526 185.519 130.477 185.592C130.477 185.908 130.477 186.225 130.501 186.541Z" fill="#D4890B"/>
<path d="M45.3301 136.956C46.4768 136.615 47.5991 136.274 48.7458 135.958C49.0629 135.399 48.7946 134.839 48.6238 134.328C46.8184 129.267 45.7693 124.061 45.1594 118.757C44.9642 117.078 45.135 115.35 44.403 113.769C41.2802 110.338 38.1573 106.883 35.0101 103.453C28.6424 96.5186 22.2259 89.5844 15.8338 82.6746C14.9067 83.0639 14.0528 83.5992 13.3941 84.3534C13.3453 86.4945 12.7842 88.5626 12.5402 90.6793C12.223 93.4773 11.9059 96.2753 11.6619 99.0733C11.3691 102.504 11.4911 105.934 11.4179 109.365C11.3691 111.822 11.9059 114.255 11.9303 116.713C12.4914 116.689 12.9061 117.029 13.3697 117.297C23.7873 123.72 34.1806 130.143 44.5982 136.566C44.8178 136.712 45.0618 136.834 45.3301 136.956Z" fill="#1442C0"/>
<path d="M126.573 136.201C131.623 130.289 136.649 124.377 141.699 118.465C143.163 116.737 144.651 115.034 146.091 113.282C146.481 112.796 146.896 112.504 147.53 112.577C147.14 112.333 146.725 112.114 146.579 111.579C146.115 109.876 145.578 108.197 145.091 106.494C141.285 111.847 137.503 117.175 133.697 122.528C130.355 127.248 127.012 131.968 123.67 136.712C123.719 137.369 124.206 137.126 124.548 137.102C125.304 137.029 125.963 136.639 126.573 136.201Z" fill="#1442C0"/>
<path d="M109.227 137.661C112.203 138.099 115.18 137.953 118.18 137.783C118.937 137.734 119.718 137.686 120.474 137.661C120.62 137.588 120.815 137.588 120.889 137.467C128.549 126.542 136.234 115.642 143.895 104.718C144.017 104.548 144.09 104.377 144.188 104.207C142.993 100.411 141.431 96.7863 139.748 93.1854C136.625 86.4945 133.038 80.0713 128.769 74.0374C128.574 73.7697 128.452 73.4778 128.281 73.1858C126.866 77.9302 125.402 82.6746 124.011 87.4434C119.108 104.11 114.204 120.776 109.3 137.418C109.251 137.491 109.251 137.588 109.227 137.661Z" fill="#1442C0"/>
<path d="M114.594 150.313C114.521 150.24 114.423 150.143 114.35 150.07C113.716 150.581 113.423 151.335 113.008 152.041C113.789 151.676 114.082 150.873 114.594 150.313Z" fill="#D4E3FE"/>
<path d="M44.3786 113.745C44.525 119.195 45.3057 124.572 46.7696 129.827C47.3307 131.895 48.087 133.89 48.7457 135.934C53.8204 140.897 59.4805 144.887 66.4338 146.761C69.4102 147.564 72.4599 147.929 75.5583 147.612C72.3867 144.158 69.2395 140.678 66.0434 137.223C58.9438 129.486 51.8442 121.774 44.7202 114.061C44.6226 113.939 44.5006 113.866 44.3786 113.745Z" fill="#0B3A9F"/>
<path d="M163.413 78.0275C163.096 78.1248 162.754 78.2222 162.437 78.3195C161.778 78.3925 161.559 78.9764 161.242 79.4144C155.46 87.5894 149.726 95.813 143.92 103.964C140.162 109.438 136.283 114.815 132.477 120.265C128.427 126.031 124.377 131.773 120.303 137.54C116.302 143.209 112.301 148.878 108.324 154.547C107.885 155.155 107.251 155.69 107.348 156.566C108.641 156.858 109.91 157.15 111.203 157.418C113.74 154.425 116.278 151.457 118.815 148.464C121.743 145.009 127.622 138.124 127.622 138.124L131.233 134.255C131.233 134.255 136.039 128.708 138.455 125.934C140.236 123.89 143.724 119.778 143.724 119.778C143.724 119.778 146.555 115.861 147.311 114.961C147.75 114.45 148.116 113.963 148.116 113.258C148.092 112.893 147.823 112.723 147.555 112.552C146.799 112.285 146.237 112.504 145.749 113.112C139.284 120.752 132.794 128.343 126.329 135.982C123.06 139.9 119.669 143.72 116.424 147.685C115.765 148.488 115.106 149.34 114.472 150.167C114.228 150.459 114.009 150.8 113.667 151.213C114.009 150.751 114.277 150.435 114.521 150.094C117.888 145.861 120.889 141.36 123.963 136.907C129.306 129.511 134.502 122.017 139.772 114.572C141.114 112.698 145.091 106.47 145.091 106.47C145.091 106.47 152.361 96.0563 156.021 90.874C158.582 87.2244 161.169 83.5992 163.73 79.974C164.194 79.7307 164.487 79.39 164.389 78.8548C164.267 78.3438 164.023 77.9545 163.413 78.0275Z" fill="#FEFEFE"/>
<path d="M12.1742 119.024C14.0284 119.827 15.6387 121.044 17.3465 122.09C25.4464 127.053 33.5219 132.065 41.6218 137.053C41.8901 137.223 42.2317 137.296 42.3537 137.661C44.4763 138.683 46.4036 140.021 48.4042 141.262C57.7728 147.028 67.1169 152.795 76.4855 158.561C78.3397 159.705 80.2183 160.848 82.0725 162.016C82.4384 162.235 82.902 162.405 82.9508 162.941C83.5851 162.454 84.2194 161.943 84.8538 161.456C84.805 160.702 84.1218 160.532 83.6339 160.24C78.3153 156.907 72.9479 153.622 67.6049 150.313C60.2125 145.763 52.8445 141.189 45.4521 136.639C34.9369 130.168 24.4217 123.647 13.8821 117.175C13.2965 116.81 12.7354 116.178 11.9059 116.689C11.6619 116.834 11.4179 116.98 11.174 117.151C10.9544 118.075 11.6863 118.489 12.1742 119.024Z" fill="#FEFEFE"/>
<path d="M133.136 49.6097C131.257 55.8869 129.403 62.1885 127.525 68.4657C127.281 69.3173 127.012 70.1688 126.744 70.9961C123.255 82.9423 119.742 94.8642 116.253 106.81C113.252 117.005 107.275 137.394 107.275 137.394C107.275 137.394 103.323 149.291 101.761 154.522C101.615 155.009 101.42 155.52 101.712 156.055C102.42 156.079 103.152 156.079 103.859 156.104C104.201 155.836 104.396 155.495 104.494 155.106C106.177 149.316 107.958 143.549 109.568 137.71C111.081 133.039 112.374 128.318 113.765 123.623C118.546 107.419 123.304 91.1903 128.086 74.9862C128.257 74.4023 128.305 73.7941 128.574 73.2345C130.648 66.1786 132.697 59.0985 134.819 52.067C134.99 51.5074 135.259 50.9235 134.893 50.3152C134.771 49.7556 134.429 49.415 133.868 49.2934C133.624 49.415 133.38 49.5123 133.136 49.6097Z" fill="#FEFEFE"/>
<path d="M92.4413 142.235C92.4413 142.235 90.2943 133.695 89.2452 129.413C83.0483 104.134 76.8514 78.8304 70.6545 53.5512C70.5569 53.1132 70.3617 52.7239 70.2398 52.286C69.9958 52.1887 69.7518 52.0913 69.5322 51.994C69.0687 52.067 68.7515 52.3833 68.5319 52.7726C68.0196 53.5268 68.3856 54.2811 68.5563 54.9867C69.4834 58.8795 70.4593 62.7724 71.4352 66.6652C74.802 80.3146 78.1445 93.9883 81.4869 107.638C84.2926 119.049 87.0983 130.46 89.8796 141.895C89.9528 142.211 90.0259 142.527 90.1479 142.819C90.9774 146.372 91.8801 149.924 92.7096 153.476C92.9048 154.255 93.1 155.033 93.2952 155.812C93.4172 156.274 93.5148 156.761 93.9539 157.077C94.637 157.028 95.2714 156.858 95.8813 156.59C96.2716 156.128 96.1253 155.593 96.0033 155.082C95.0518 151.213 92.4413 142.235 92.4413 142.235Z" fill="#FEFEFE"/>
<path d="M44.3543 110.655C40.2311 106.202 36.108 101.75 32.0092 97.2972C27.3006 92.1878 22.5919 87.0541 17.8832 81.9204C17.566 81.5554 17.1757 81.2635 16.8341 80.9229C16.7365 80.9229 16.6389 80.9229 16.5658 80.9229C15.6386 81.2148 15.3703 81.7744 15.8582 82.6503C15.8826 83.2829 16.2974 83.6965 16.6877 84.0858C19.835 87.3947 22.8846 90.801 25.9831 94.1586C29.1303 97.5892 32.2776 100.995 35.4249 104.45C37.4742 106.689 39.4992 108.927 41.5974 111.141C42.5001 112.09 43.2808 113.112 44.2079 114.012C46.6232 116.47 48.8921 119.049 51.2343 121.579C53.4544 123.988 55.6746 126.396 57.8703 128.829C61.1884 132.479 64.5308 136.104 67.8732 139.729C70.3618 142.43 72.8259 145.179 75.3632 147.831C77.4858 150.264 79.7303 152.624 81.9261 155.009C83.2679 156.469 84.5366 158.002 85.976 159.364C86.2688 159.632 86.464 160.021 86.9275 160.07C87.6106 159.826 88.2206 159.486 88.8061 159.048C89.0013 158.634 88.7085 158.342 88.4645 158.099C85.3661 154.693 78.0713 147.369 78.0713 147.369C78.0713 147.369 68.4344 136.858 63.6037 131.603C57.1384 124.645 50.7463 117.662 44.3543 110.655Z" fill="#FEFEFE"/>
</g>
<defs>
<clipPath id="clip0_14_3423">
<rect width="169" height="228" fill="white" transform="matrix(-1 0 0 1 169 0)"/>
</clipPath>
</defs>
</svg>
