<svg width="821" height="550" viewBox="0 0 821 550" fill="none" xmlns="http://www.w3.org/2000/svg">
<path d="M53.1 475C65 475 74.8 478.9 76.6 484C100.3 481.6 128 480.1 157.7 480.1C210.2 480.1 256.7 484.5 285.4 491.3C284.4 489.5 283.9 487.7 283.9 485.8C283.9 461 375.6 440.9 488.7 440.9C580.9 440.9 658.9 454.3 684.5 472.7C693.1 471.8 702.2 471.2 711.7 471.2C762.4 471.2 803.4 485.8 803.4 503.9C803.4 504.3 803.4 504.7 803.3 505.1C813.2 505.5 821 509.6 821 514.6C821 519.9 812.3 524.1 801.6 524.1C796.6 524.1 792.1 523.2 788.7 521.7C772.3 530.7 744 536.6 711.8 536.6C675.8 536.6 644.7 529.2 629.7 518.5C593 526.1 543.4 530.8 488.8 530.8C450.8 530.8 415.2 528.5 384.7 524.6C379 531 364.1 535.5 346.5 535.5C324.1 535.5 305.9 528.1 305.9 518.9C305.9 518.1 306.1 517.3 306.3 516.5C298.7 520.2 286.6 523.5 271.2 526.2C273.3 527.5 274.5 529.1 274.5 530.8C274.5 535.7 264.5 539.6 252.1 539.6C240.3 539.6 230.7 536 229.8 531.5C208.2 533.4 183.8 534.5 157.8 534.5C70.7 534.5 0 522.3 0 507.4C0 501.2 12 495.5 32.3 490.9C30.4 489.4 29.4 487.6 29.4 485.8C29.3 479.8 40 475 53.1 475ZM624.8 532.9C634.7 532.9 642.8 536.7 642.8 541.3C642.8 546 634.8 549.7 624.8 549.7C614.8 549.7 606.8 545.9 606.8 541.3C606.8 536.7 614.8 532.9 624.8 532.9Z" fill="#7CB83D"/>
<path d="M96.6999 271.5H714.9L804.5 353.9H4.3999L96.6999 271.5Z" fill="#2E2E3B"/>
<path d="M593.2 271.5H676.7L644.7 353.9H578.9L569 320.3L593.2 271.5Z" fill="#222236"/>
<path d="M140.7 271.5H239.5L245.4 353.9H117.4L140.7 271.5Z" fill="#222236"/>
<path d="M41 353.9H767.8V502C767.8 510.3 761 517.1 752.7 517.1H56.1C47.8 517.1 41 510.3 41 502V353.9Z" fill="url(#paint0_linear_41_16167)"/>
<path d="M117.4 353.9H245.4L257.1 517.1H71.1001L117.4 353.9Z" fill="#C42525"/>
<path d="M41 353.9H767.8V384.8H41V353.9Z" fill="#B31D1D"/>
<path d="M767.8 375.7V384.8H41V375.7H767.8Z" fill="#B31D1D"/>
<path d="M767.8 418.8V427.9H41V418.8H767.8Z" fill="#B31D1D"/>
<path d="M767.8 461.9V471H41V461.9H767.8Z" fill="#B31D1D"/>
<path d="M149.4 372H96V425.4H149.4V372Z" fill="#B31D1D"/>
<path d="M145 376.3H100.3V421H145V376.3Z" fill="#D6BFA0"/>
<path d="M111 376.3H145V421H100.3V414L111 376.3Z" fill="#CCB08A"/>
<path d="M716.4 372H663V425.4H716.4V372Z" fill="#B31D1D"/>
<path d="M712 376.3H667.3V421H712V376.3Z" fill="#D6BFA0"/>
<path d="M151.7 223.3C154.9 213.6 159.9 200 167.2 184.4C197 120.8 265 23.6 404.5 16.4C544 23.6 612 120.7 641.8 184.4C649.1 200 654.1 213.6 657.3 223.3H678.5C678.5 223.3 627.2 0 404.6 0C181.8 0 130.5 223.3 130.5 223.3H151.7Z" fill="#2E2E3B"/>
<path d="M167.2 184.4V517.2H188.4H404.4H620.4H641.6V184.4C611.8 120.8 543.8 23.5999 404.3 16.3999C264.9 23.5999 196.9 120.7 167.2 184.4Z" fill="url(#paint1_linear_41_16167)"/>
<path d="M641.7 256V184.4C611.9 120.8 543.9 23.5999 404.4 16.3999C369.2 18.1999 338.6 25.6999 312 36.9999C517.4 18.1999 613.3 191.4 641.7 256Z" fill="#B31D1D"/>
<path d="M523.95 49.2001C518.45 46.0001 512.65 43.0001 506.65 40.1001H302.25C296.25 42.9001 290.55 46.0001 284.95 49.2001H523.95Z" fill="#B31D1D"/>
<path d="M591.35 105.3C588.65 102.3 585.95 99.2002 583.05 96.2002H225.85C223.05 99.2002 220.25 102.2 217.55 105.3H591.35Z" fill="#B31D1D"/>
<path d="M630.3 161.4C628.6 158.4 626.9 155.4 625.1 152.3H183.8C182 155.3 180.2 158.4 178.6 161.4H630.3Z" fill="#B31D1D"/>
<path d="M167.2 208.4V217.5H641.7V208.4H167.2Z" fill="#B31D1D"/>
<path d="M167.2 264.5V273.6H641.7V264.5H167.2Z" fill="#B31D1D"/>
<path d="M167.2 320.6V329.7H641.7V320.6H167.2Z" fill="#B31D1D"/>
<path d="M167.2 376.7V385.8H641.7V376.7H167.2Z" fill="#B31D1D"/>
<path d="M167.2 432.8V441.9H641.7V432.8H167.2Z" fill="#B31D1D"/>
<path d="M167.2 488.9V498H641.7V488.9H167.2Z" fill="#B31D1D"/>
<path d="M462 117.4H339.4V240H462V117.4Z" fill="#B31D1D"/>
<path d="M452.1 127.4H349.4V230.1H452.1V127.4Z" fill="#D6BFA0"/>
<path d="M390.4 127.4H403.2V176.1H452V188.9H403.2V230H390.4V188.9H349.4V176.1H390.4V127.4Z" fill="#C9A77B"/>
<path d="M520.9 331.5H287.9V510.3H520.9V331.5Z" fill="#B31D1D"/>
<path d="M510.5 339.5H298.4V502.3H510.5V339.5Z" fill="#D6BFA0"/>
<path d="M510.5 363.6V502.2H298.4V468.4C410.4 470.3 484.4 395.1 510.5 363.6Z" fill="#C9A77B"/>
<path d="M298.4 339.5H300.7L399.4 414.5L498.1 339.5H505.5V346.7L407.9 420.9L505.5 495.1V502.3H498.1L399.5 427.3L300.9 502.3H298.6V491.2L391.1 420.9L298.6 350.6L298.4 339.5Z" fill="#C9A77B"/>
<path d="M298.4 339.5H305.8L404.5 414.5L503.2 339.5H510.6V346.7L413 420.9L510.6 495.1V502.3H503.2L404.6 427.3L306 502.3H298.6V495.1L396.2 420.9L298.6 346.7L298.4 339.5Z" fill="#B31D1D"/>
<path d="M394.3 117.4H407.1V172.3H462V185.1H407.1V240H394.3V185.1H339.4V172.3H394.3V117.4Z" fill="#B31D1D"/>
<defs>
<linearGradient id="paint0_linear_41_16167" x1="404.423" y1="475.711" x2="404.424" y2="359.603" gradientUnits="userSpaceOnUse">
<stop stop-color="#C93030"/>
<stop offset="1" stop-color="#D9714E"/>
</linearGradient>
<linearGradient id="paint1_linear_41_16167" x1="404.424" y1="375.736" x2="404.425" y2="-32.0613" gradientUnits="userSpaceOnUse">
<stop stop-color="#C93030"/>
<stop offset="1" stop-color="#D65C46"/>
</linearGradient>
</defs>
</svg>
