<svg width="803" height="555" viewBox="0 0 803 555" fill="none" xmlns="http://www.w3.org/2000/svg">
<path d="M409.152 449.134C409.152 507.584 408.924 554.954 682.617 554.954C748.681 554.954 802.207 507.584 802.207 449.134C802.207 390.684 748.681 343.313 682.617 343.313C616.554 343.359 409.152 390.729 409.152 449.134Z" fill="#E6F4FD"/>
<path d="M682.617 449.134H-311.167V554.954H682.617V449.134Z" fill="white"/>
<path d="M587.055 212.371C645.505 261.884 638.848 365.881 583.225 431.535C527.602 497.188 435.094 510.273 376.645 460.76C318.195 411.246 287.101 293.48 342.724 227.781C436.052 117.675 528.605 162.857 587.055 212.371Z" fill="#E6F4FD"/>
<path d="M-269.951 137.736C-346.456 202.523 -337.702 338.572 -264.936 424.514C-192.124 510.456 -71.1213 527.553 5.38327 462.766C81.8878 397.979 122.557 243.875 49.745 157.933C-72.3066 13.8147 -193.446 72.9484 -269.951 137.736Z" fill="#E6F4FD"/>
<path d="M224.593 133.404C224.593 198.191 172.07 250.669 107.329 250.669C42.5414 250.669 -9.93579 198.146 -9.93579 133.404C-9.93579 68.617 42.587 2.26931e-05 107.329 2.26931e-05C172.07 -0.04557 224.593 68.617 224.593 133.404Z" fill="#E6F4FD"/>
<path d="M202.161 58.8601C180.824 24.8936 146.31 0 107.283 0C83.301 0 61.0062 9.43766 42.4499 24.62V24.5745C42.222 24.7568 41.994 24.9392 41.7661 25.1671C41.1278 25.7142 40.4894 26.2614 39.8511 26.8085C38.5289 27.9483 37.2524 29.0881 35.9758 30.2736C35.3375 30.8663 34.6992 31.4589 34.0609 32.0972C32.7843 33.3282 31.5077 34.6048 30.2767 35.927C29.7296 36.4741 29.228 37.0212 28.6809 37.5683C27.1308 39.2553 25.6262 40.9878 24.1217 42.7659C23.9393 42.9483 23.8025 43.1307 23.6201 43.3131C21.9332 45.3647 20.2919 47.462 18.6961 49.6048C18.4682 49.924 18.2402 50.2431 18.0123 50.5623C16.7357 52.3404 15.4591 54.1641 14.2281 55.9878C13.8633 56.5805 13.453 57.1732 13.0882 57.7659C12.0396 59.4073 10.991 61.0942 10.0335 62.7811C9.66879 63.4194 9.30402 64.0121 8.93928 64.6504C7.89065 66.4741 6.93323 68.2979 5.97578 70.1672C5.79341 70.5319 5.56542 70.8966 5.38305 71.2614C5.38305 71.2614 5.38305 71.2614 5.38305 71.307C-2.00296 85.9878 -7.06375 101.854 -9.06982 117.857C1.3709 116.125 11.9029 114.894 22.3892 113.526C29.9576 112.523 37.9363 112.067 45.6871 110.836C52.7083 112.888 60.0487 114.164 67.1612 114.939C85.3983 116.9 104 116.581 122.237 114.757C141.113 112.842 160.854 108.921 177.222 98.8905C184.79 94.2857 191.447 88.2219 196.052 80.5623C199.198 75.3647 201.614 69.5288 202.07 63.4194C202.298 61.8237 202.252 60.3191 202.161 58.8601Z" fill="white"/>
<path d="M239.502 265.897C287.52 265.897 326.447 226.97 326.447 178.951C326.447 130.933 287.52 92.006 239.502 92.006C191.483 92.006 152.556 130.933 152.556 178.951C152.556 226.97 191.483 265.897 239.502 265.897Z" fill="#E6F4FD"/>
<path d="M466.972 284.002C524.96 247.654 542.504 171.178 506.155 113.189C469.807 55.2005 393.332 37.6572 335.343 74.0055C277.354 110.354 259.811 186.829 296.159 244.818C332.507 302.807 408.983 320.35 466.972 284.002Z" fill="#E6F4FD"/>
<path d="M274.745 116.489C281.31 126.246 284.958 137.416 286.189 148.997C288.013 147.31 289.472 145.213 290.976 143.252C300.596 130.213 312.268 119.635 327.541 113.754C347.511 106.094 376.371 108.693 382.526 133.267C410.52 114.392 446.721 128.708 458.393 134.59C481.918 146.444 502.8 167.371 499.061 195.821C523.772 199.65 545.611 207.082 566.037 221.535C609.623 252.401 627.724 300.775 627.861 304.194C626.538 268.176 613.453 234.711 587.055 212.371C569.502 197.508 548.894 183.1 526.143 173.07C526.964 119.544 497.83 73.541 428.256 57.9939C375.596 46.231 323.301 69.848 296.174 113.07C283.453 102.082 267.496 94.7872 249.943 92.69C259.517 99.1185 268.271 106.869 274.745 116.489Z" fill="white"/>
<path d="M-74.2217 502.067H470.794V226.049L197.556 159.711L-21.7445 206.398L-74.2217 502.067Z" fill="#E6F4FD"/>
<path d="M715.17 347.371C724.973 355.532 731.493 366.93 731.356 380.881C731.128 401.672 716.812 418.906 699.988 429.574C681.204 441.429 658.499 445.578 636.523 444.574C592.982 442.568 547.435 422.827 516.569 391.778C502.982 408.237 487.845 423.556 470.155 435.593C454.471 446.307 436.781 454.058 418.134 457.796C397.663 461.945 376.599 461.125 355.991 458.572C335.018 455.973 313.955 451.049 295.307 440.882C285.87 435.775 277.663 429.347 270.596 421.231C264.395 414.164 259.015 406.368 252.404 399.757C239.091 417.857 221.31 432.037 200.657 441.064C162.085 457.888 117.131 457.477 77.4197 444.757C39.3954 432.584 3.92429 408.055 -14.8143 372.082C-42.3067 392.416 -75.8629 402.219 -110.057 398.435C-171.288 391.687 -227.595 346.641 -252.854 291.201C-266.942 260.289 -270.498 226.413 -270.817 192.812C-271 175.669 -270.726 158.799 -265.985 142.158C-264.936 138.556 -263.705 134.954 -262.337 131.444C-264.936 133.541 -267.443 135.638 -269.951 137.736C-335.513 193.313 -338.431 301.185 -292.064 385.03C-377.55 363.055 -427.565 361.277 -456.288 401.854C-531.653 508.404 -428.659 555 -311.212 555H682.572C748.635 555 802.161 507.629 802.161 449.179C802.207 400.714 765.368 359.909 715.17 347.371Z" fill="#B3D6F2"/>
<path d="M-74.2216 186.793C-75.4982 146.444 -41.2125 109.559 -1.54684 102.128C19.0611 98.1154 40.4896 101.717 58.362 110.973C76.2343 120.182 91.0975 135.41 97.4805 153.511C83.21 140.927 67.7084 132.401 51.4774 127.523C0.687157 110.836 -51.4253 139.468 -74.2216 186.793Z" fill="white"/>
<path d="M339.76 210.182C320.338 177.903 285.414 158.845 248.666 169.058C236.994 172.067 225.596 177.401 214.107 185.881C222.222 156.246 257.237 139.149 287.146 145.258C317.146 150.775 343.18 179.681 339.76 210.182Z" fill="white"/>
<path d="M-73.401 327.629C-52.3372 360.547 -13.6289 372.72 23.1644 362.872C35.4288 360.137 47.5564 355.805 60.1856 351.565C40.3528 370.03 13.2708 382.112 -14.5864 379.24C-42.2156 376.459 -68.9329 355.258 -73.401 327.629Z" fill="#B3D6F2"/>
<path d="M349.152 322.979C341.994 365.699 302.283 400.714 258.332 403.86C235.855 405.684 213.833 399.848 195.003 390.091C176.128 380.243 159.851 366.793 146.766 350.745C165.642 359.225 183.651 367.751 201.979 373.541C260.611 394.195 313.499 373.222 349.152 322.979Z" fill="#B3D6F2"/>
</svg>
