<svg width="844" height="564" viewBox="0 0 844 564" fill="none" xmlns="http://www.w3.org/2000/svg">
<path d="M255.367 563.036L28.1415 562.727C15.8896 562.692 4.63303 555.108 0.892274 543.44C0.343172 541.724 0.0343018 540.111 0.0343018 538.669C0.0343018 507.096 57.1751 481.494 127.7 481.494C198.191 481.46 255.367 563.036 255.367 563.036Z" fill="#B3D6F2"/>
<path d="M596.771 563.036L932.272 562.418C949.878 562.349 965.905 551.298 971.259 534.551C972.048 532.08 972.528 529.746 972.528 527.687C972.528 482.112 890.026 445.15 788.271 445.15C686.515 445.15 596.771 563.036 596.771 563.036Z" fill="#B3D6F2"/>
<path d="M118.778 563.036L818.162 562.624L794.722 481.46H118.778V563.036Z" fill="#B3D6F2"/>
<path d="M290.921 389.245C319.131 440.208 294.696 505.414 236.354 534.928C178.012 564.443 107.864 547.043 79.6539 496.079C51.4438 445.116 69.0152 367.487 127.357 337.972C185.699 308.492 262.745 338.281 290.921 389.245Z" fill="#E6F4FD"/>
<path d="M391.029 289.445C414.469 331.795 394.152 385.984 345.694 410.488C297.236 434.992 238.962 420.544 215.523 378.228C192.083 335.879 206.668 271.394 255.161 246.89C303.585 222.352 367.59 247.096 391.029 289.445Z" fill="#E6F4FD"/>
<path d="M568.012 318.754C528.408 390.343 562.727 481.94 644.646 523.397C726.599 564.854 825.129 540.419 864.733 468.83C904.337 397.241 879.662 288.21 797.743 246.753C715.823 205.295 607.616 247.199 568.012 318.754Z" fill="#E6F4FD"/>
<path d="M275.066 208.315C275.066 309.728 381.077 391.922 511.866 391.922C642.655 391.922 748.666 309.728 748.666 208.315C748.666 106.903 642.655 0 511.866 0C381.111 0 275.066 106.903 275.066 208.315Z" fill="#E6F4FD"/>
<path d="M315.322 137.893C349.195 138.236 383.719 146.473 413.714 162.328C426.961 169.329 439.042 177.772 448.308 189.68C456.887 200.731 462.584 213.566 467.114 226.711C486.299 187.518 538.978 176.021 563.413 174.271C576.797 173.31 606.483 170.805 642.072 187.381C639.155 126.259 704.43 111.296 716.75 109.82C675.739 47.8062 599.414 0 511.935 0C411.037 0 324.931 63.6271 290.818 139.266C298.917 138.271 307.12 137.825 315.322 137.893Z" fill="white"/>
<path d="M446.351 532.389C558.387 532.389 649.21 485.372 649.21 427.373C649.21 369.374 558.387 322.357 446.351 322.357C334.316 322.357 243.493 369.374 243.493 427.373C243.493 485.372 334.316 532.389 446.351 532.389Z" fill="#E6F4FD"/>
<path d="M871.768 454.108C890.712 407.743 885.977 350.053 859.139 304.82C859.826 310.277 860.031 315.802 859.757 321.293C858.761 341.782 850.388 360.074 834.567 373.252C819.398 385.881 800.694 392.917 781.166 395.079C742.866 399.3 702.817 386.465 670.282 366.629C662.217 386.122 649.553 403.384 633.286 416.871C603.772 441.306 564.889 453.009 526.829 452.22C488.735 451.43 450.779 437.84 423.186 411.175C421.539 413.165 419.857 415.155 418.073 417.009C401.119 434.854 378.709 446.66 355.063 452.941C330.01 459.598 303.585 460.388 277.983 456.716C252.141 453.009 226.745 444.67 204.129 431.526C182.988 419.239 164.078 402.458 151.483 381.351C142.801 366.8 137.756 350.67 136.212 334.06C133.226 335.227 130.274 336.531 127.357 338.007C72.5501 365.736 53.7434 435.918 75.0554 486.573C30.8183 495.565 0 515.504 0 538.669C0 540.111 0.343189 541.724 0.857972 543.439C4.56441 555.108 15.8553 562.692 28.1072 562.727L118.743 562.864V563.07L215.488 563.001L255.332 563.07C255.332 563.07 255.298 563.001 255.264 563.001L596.977 562.795C596.84 562.967 596.771 563.07 596.771 563.07L818.025 562.658H818.128L932.272 562.452C949.878 562.383 965.905 551.333 971.259 534.585C972.048 532.114 972.528 529.781 972.528 527.721C972.528 495.565 931.552 467.732 871.768 454.108Z" fill="#B3D6F2"/>
<path d="M332.07 374.865C366.903 410.866 422.843 420.955 465.158 392.848C478.886 384.166 490.829 372.394 500.335 357.946C496.114 374.831 485.406 390.171 471.507 401.565C428.437 438.149 357.603 425.623 332.07 374.865Z" fill="#B3D6F2"/>
<path d="M541.449 288.725C569.11 300.908 605.42 304.408 630.61 286.219C637.851 280.488 642.964 271.943 643.41 263.363L643.891 254.818C674.881 267.173 704.807 248.64 707.484 214.905C715.858 249.052 681.882 278.704 648.352 269.952L656.726 263.741C656.555 277.022 649.21 289.068 639.018 296.927C609.675 317.69 567.291 311.341 541.449 288.725Z" fill="#B3D6F2"/>
</svg>
