<svg width="196" height="182" viewBox="0 0 196 182" fill="none" xmlns="http://www.w3.org/2000/svg">
<path d="M231.676 71.2453C227.676 106.369 195.971 131.591 160.848 127.592C125.724 123.593 100.502 91.8875 104.501 56.7636C108.5 21.6397 140.205 -3.58247 175.329 0.416948C210.453 4.41637 235.675 36.1214 231.676 71.2453Z" fill="white"/>
<path d="M128.11 87.5656C128.11 109.369 107.242 127.044 81.472 127.044C55.7016 127.044 0 127.044 0 87.5656C0 65.7623 55.7016 48.0875 81.472 48.0875C107.21 48.0875 128.11 65.7623 128.11 87.5656Z" fill="#E6F4FD"/>
<path d="M128.11 176.198C159.604 176.198 185.134 156.357 185.134 131.882C185.134 107.407 159.604 87.5656 128.11 87.5656C96.6168 87.5656 71.0865 107.407 71.0865 131.882C71.0865 156.357 96.6168 176.198 128.11 176.198Z" fill="#E6F4FD"/>
<path d="M212.421 181.487C236.896 181.487 256.737 161.646 256.737 137.171C256.737 112.696 236.896 92.8552 212.421 92.8552C187.946 92.8552 168.105 112.696 168.105 137.171C168.105 161.646 187.946 181.487 212.421 181.487Z" fill="#E6F4FD"/>
<path d="M310.6 92.8552C310.6 68.3749 271.96 48.5391 247.512 48.5391C242.384 48.5391 237.481 49.4421 232.901 51.0548C234.321 51.1193 235.708 51.1839 237.127 51.3129C245.48 52.1837 253.737 54.9898 259.059 61.8275C265.09 69.6006 266.606 80.4377 264.187 89.8557C262.478 96.5321 253.931 112.433 235.546 112.433C235.192 120.109 233.224 137.72 209.034 141.945C193.423 144.686 180.361 136.494 175.136 129.205C160.009 143.493 136.496 143.074 117.531 138.01C109.145 135.784 101.146 132.011 94.5667 126.302C88.1483 120.722 83.6329 113.433 80.9559 105.402C74.2472 109.079 66.7321 110.917 59.1203 111.465C44.574 112.53 29.4474 109.272 16.6106 102.37C10.7405 99.2092 4.03171 94.242 0.0322876 88.1462C0.548341 122.496 43.7356 126.496 71.4413 126.947C71.2155 128.56 71.0865 130.172 71.0865 131.85C71.0865 156.33 96.631 176.166 128.11 176.166C146.72 176.166 163.202 169.199 173.62 158.491C181.167 172.166 195.713 181.423 212.421 181.423C236.901 181.423 256.737 161.587 256.737 137.107C256.737 136.816 256.704 136.558 256.704 136.3C280.572 132.398 310.6 114.433 310.6 92.8552Z" fill="#B3D6F2"/>
</svg>
