<svg width="1420" height="380" viewBox="0 0 1420 380" fill="none" xmlns="http://www.w3.org/2000/svg">
<g clip-path="url(#clip0_101_528)">
<path d="M2473 326.616V901H-1053V283.879C-1053 283.879 13.8982 62.5402 705.728 70.194C1403.07 77.9088 2473 326.616 2473 326.616Z" fill="url(#paint0_linear_101_528)"/>
<path d="M704.133 26.6279C712.871 26.6279 721.608 26.7494 730.346 26.7494C730.346 19.8199 730.346 13.0119 730.346 6.08237C730.346 2.67838 733.259 -0.117751 736.9 0.00382024C746.365 0.00382024 755.953 0.125436 765.661 0.125436C769.302 0.125436 772.215 2.92154 772.215 6.32553C772.215 13.2551 772.215 20.1847 772.215 27.1142C791.147 27.2358 810.078 27.4789 829.132 27.9651C829.132 21.0356 829.132 14.1061 829.132 7.17654C829.132 3.77255 832.044 1.09799 835.685 1.09799C845.151 1.34113 854.738 1.58424 864.447 1.82739C868.088 1.94896 871 4.7451 871 8.14909C871 15.0786 871 22.0082 871 28.9378C890.053 29.4241 909.107 30.0319 928.16 30.8829C928.16 23.9533 928.16 17.0238 928.16 9.97266C928.16 6.56867 931.073 3.89415 934.713 4.01572C944.179 4.38044 953.767 4.86672 963.475 5.23143C967.116 5.353 970.028 8.39223 970.028 11.7962C970.028 18.7258 970.028 25.7769 970.028 32.7064C988.96 33.5574 1007.89 34.6516 1026.95 35.8673C1026.95 28.9377 1026.95 21.8866 1026.95 14.8355C1026.95 11.4315 1029.86 8.75696 1033.5 9.0001C1042.96 9.60796 1052.55 10.2158 1062.26 10.8237C1065.9 11.0668 1068.81 14.1061 1068.81 17.5101C1068.81 24.5612 1068.81 31.6123 1068.81 38.5418C1087.75 39.7576 1106.68 41.2164 1125.73 42.9184C1125.73 35.8673 1125.73 28.8162 1125.73 21.7651C1125.73 18.2395 1128.64 15.6865 1132.28 16.0512C1141.75 16.7806 1151.34 17.6317 1161.05 18.3611C1164.69 18.6042 1167.6 21.7651 1167.6 25.2906C1167.6 32.3418 1167.6 39.5145 1167.6 46.5656C1186.65 48.146 1205.71 50.0911 1224.76 52.1578C1224.76 44.9851 1224.76 37.934 1224.76 30.7613C1224.76 27.2358 1227.67 24.6828 1231.31 25.0475C1240.78 26.0201 1250.37 26.9926 1260.07 27.9651C1263.72 28.3299 1266.63 31.4908 1266.63 35.0163C1266.63 42.189 1266.63 49.3616 1266.63 56.5343C1285.56 58.601 1304.49 60.9109 1323.54 63.3424C1323.54 56.1697 1323.54 48.8754 1323.54 41.7027C1323.54 38.1772 1326.46 35.6241 1330.1 36.1104C1339.56 37.3261 1349.15 38.4203 1358.86 39.636C1362.5 40.1223 1365.41 43.4047 1365.41 46.9303C1365.41 54.2245 1365.41 61.3972 1365.41 68.6914C1384.35 71.0013 1403.28 73.7974 1422.33 76.5935C1422.33 69.2993 1422.33 62.005 1422.33 54.7108C1422.33 51.1852 1425.24 48.6322 1428.88 49.1185C1435.92 50.0911 1442.96 51.0637 1450 52.1578C1446.84 98.3548 1437.62 142.607 1422.33 184.184V152.575C1422.33 136.771 1422.33 120.967 1422.33 105.163C1403.28 102.245 1384.22 99.449 1365.41 97.0175C1365.41 112.7 1365.41 128.383 1365.41 144.065V174.701C1351.58 171.784 1337.62 168.988 1323.54 166.313V138.352C1323.54 122.791 1323.54 107.229 1323.54 91.5468C1304.49 88.9938 1285.44 86.684 1266.63 84.6173C1266.63 100.057 1266.63 115.618 1266.63 131.057V156.344C1252.67 154.156 1238.84 151.968 1224.76 150.022V126.316C1224.76 110.877 1224.76 95.5587 1224.76 80.1191C1205.71 78.0524 1186.65 76.1073 1167.6 74.4053C1167.6 89.7232 1167.6 105.041 1167.6 120.359V142.607C1153.64 141.026 1139.69 139.446 1125.73 137.987V116.469C1125.73 101.273 1125.73 85.9546 1125.73 70.6366C1106.68 68.9346 1087.62 67.4758 1068.81 66.1385C1068.81 81.3348 1068.81 96.5312 1068.81 111.728V132.759C1054.86 131.665 1040.9 130.571 1026.95 129.72V108.688C1026.95 93.6135 1026.95 78.4172 1026.95 63.3424C1007.89 62.0051 988.839 61.0325 970.028 60.0599C970.028 75.1347 970.028 90.2095 970.028 105.284V126.316C956.072 125.708 942.116 125.1 928.16 124.614V102.853C928.16 87.7781 928.16 72.8248 928.16 57.75C909.107 56.899 890.053 56.1697 871 55.6834C871 70.6366 871 85.7114 871 100.665V123.277C857.044 123.034 843.088 122.912 829.132 122.912V99.5705C829.132 84.6173 829.132 69.664 829.132 54.7108C810.078 54.2245 791.025 53.9814 772.215 53.8598C772.215 68.8131 772.215 83.7662 772.215 98.7195V123.398C758.259 123.52 744.302 123.763 730.346 124.128V98.3548C730.346 83.4016 730.346 68.4483 730.346 53.6167C721.608 53.6167 712.871 53.4951 704.133 53.4951C697.215 53.6166 690.419 53.7382 683.745 53.7382C683.745 68.6914 683.745 83.5231 683.745 98.4763V125.465C669.788 125.951 655.832 126.559 641.876 127.167V99.0842C641.876 84.1309 641.876 69.2993 641.876 54.3461C622.823 54.5892 603.77 54.9539 584.959 55.5618C584.959 70.515 584.959 85.3467 584.959 100.3V130.206C570.882 131.057 557.047 131.908 543.091 132.881V101.637C543.091 86.684 543.091 71.8523 543.091 56.8991C524.037 57.507 504.984 58.2363 486.174 59.2089C486.174 74.1621 486.174 89.1154 486.174 103.947V137.136C472.096 138.23 458.14 139.446 444.305 140.783V106.257C444.305 91.3037 444.305 76.3504 444.305 61.3972C425.252 62.3697 406.199 63.4639 387.145 64.8012C387.145 79.7545 387.145 94.8293 387.145 109.782V146.375C373.068 147.834 359.112 149.293 345.277 150.873V112.822C345.277 97.8685 345.277 82.7937 345.277 67.7189C326.224 69.0562 307.17 70.515 288.36 72.217C288.36 87.2918 288.36 102.367 288.36 117.441V157.56C274.161 159.262 260.326 161.085 246.491 162.909V121.332C246.491 106.257 246.491 91.0605 246.491 75.8642C227.438 77.5661 208.385 79.3897 189.574 81.3348C189.574 96.5312 189.574 111.849 189.574 127.046V170.811C175.375 172.878 161.419 174.945 147.706 177.011V131.787C147.706 116.469 147.706 101.151 147.706 85.833C128.653 87.7781 109.599 89.9664 90.5461 92.3978C90.5461 107.837 90.5461 123.277 90.5461 138.716C90.5461 154.156 90.5461 169.595 90.5461 185.035C90.5461 185.4 90.5461 185.764 90.4247 186.007C76.2258 188.317 62.5123 190.627 49.0416 192.937C48.7989 192.329 48.6775 191.6 48.6775 190.87C48.6775 175.309 48.6775 159.748 48.6775 144.187C48.6775 128.626 48.6775 113.065 48.6775 97.5038C29.6243 99.8136 10.5711 102.367 -8.23945 104.92C-8.23945 120.602 -8.23945 136.407 -8.23945 152.089C-8.23945 167.772 -8.23945 183.576 -8.23945 199.259C-8.23945 200.718 -8.72489 202.055 -9.5744 203.271L-10.3026 203.392C-10.1812 203.635 -10.1812 203.757 -10.0598 204C-24.1374 159.748 -30.6907 108.931 -28.6276 50.6989C-24.016 50.0911 -19.4044 49.4833 -14.7928 48.997C-11.1521 48.5107 -8.23945 51.0636 -8.23945 54.7108C-8.23945 62.005 -8.23945 69.2993 -8.23945 76.5935C10.6924 74.0406 29.6243 71.6092 48.6775 69.4209C48.6775 62.2482 48.6775 55.0755 48.6775 47.7813C48.6775 44.2557 51.5901 40.9733 55.2308 40.6086C64.6968 39.5144 74.2841 38.4203 83.9927 37.3261C87.6335 36.9614 90.5461 39.5145 90.5461 42.9184C90.5461 50.0911 90.5461 57.2638 90.5461 64.3149C109.599 62.1266 128.653 59.9383 147.706 57.9932C147.706 50.9421 147.706 43.7694 147.706 36.7183C147.706 33.1927 150.618 30.0319 154.259 29.7887C163.725 28.8161 173.312 27.9652 183.021 26.9926C186.662 26.6279 189.574 29.1809 189.574 32.7064C189.574 39.7576 189.574 46.8087 189.574 53.8598C208.506 51.9147 227.438 50.0911 246.491 48.5107C246.491 41.4596 246.491 34.53 246.491 27.4789C246.491 24.0749 249.404 21.0356 253.045 20.6709C262.511 19.9415 272.098 19.0905 281.807 18.3611C285.447 18.1179 288.36 20.6709 288.36 24.0749C288.36 31.0045 288.36 38.0555 288.36 44.9851C307.292 43.4047 326.224 41.9458 345.277 40.6086C345.277 33.679 345.277 26.7495 345.277 19.82C345.277 16.416 348.189 13.3767 351.83 13.1335C361.296 12.5257 370.883 11.9178 380.592 11.1884C384.233 10.9452 387.145 13.4982 387.145 16.9022C387.145 23.8318 387.145 30.7613 387.145 37.6908C406.199 36.3535 425.252 35.2594 444.305 34.2869C444.305 27.3573 444.305 20.4278 444.305 13.4982C444.305 10.0943 447.218 7.17652 450.858 6.93338C460.324 6.4471 469.912 5.9608 479.62 5.47451C483.261 5.35294 486.174 7.90599 486.174 11.31C486.174 18.2395 486.174 25.0475 486.174 31.9771C505.105 31.0045 524.037 30.275 543.091 29.6672C543.091 22.7376 543.091 15.9296 543.091 9.0001C543.091 5.59612 546.003 2.6784 549.644 2.6784C559.11 2.43525 568.697 2.07053 578.406 1.82739C582.047 1.70581 584.959 4.38041 584.959 7.78439C584.959 14.7139 584.959 21.5219 584.959 28.4515C603.891 27.8436 622.823 27.4789 641.876 27.2358C641.876 20.3062 641.876 13.4982 641.876 6.56868C641.876 3.1647 644.789 0.368593 648.429 0.368593C657.895 0.247022 667.483 0.125391 677.191 0.00382024C680.832 0.00382024 683.745 2.67838 683.745 6.08237C683.745 13.0119 683.745 19.8199 683.745 26.7494C690.419 26.7494 697.337 26.6279 704.133 26.6279Z" fill="url(#paint1_linear_101_528)"/>
</g>
<defs>
<linearGradient id="paint0_linear_101_528" x1="264.48" y1="511.177" x2="1835.89" y2="511.175" gradientUnits="userSpaceOnUse">
<stop stop-color="#99CC62"/>
<stop offset="1" stop-color="#C2D989"/>
</linearGradient>
<linearGradient id="paint1_linear_101_528" x1="710.522" y1="30.0064" x2="710.523" y2="174.021" gradientUnits="userSpaceOnUse">
<stop stop-color="#CF937A"/>
<stop offset="1" stop-color="#C97D5C"/>
</linearGradient>
<clipPath id="clip0_101_528">
<rect width="1420" height="380" fill="white"/>
</clipPath>
</defs>
</svg>
