<svg width="483" height="158" viewBox="0 0 483 158" fill="none" xmlns="http://www.w3.org/2000/svg">
<path d="M458.836 47.1076L457.246 8.14282C457.246 8.14282 452.965 0.120649 447.827 0.3016C393.76 1.74921 82.6906 18.3364 9.2963 20.8094L7.2168 74.4312L15.7795 82.5137C15.7795 82.5137 97.4917 88.9677 140.06 85.5899C82.2013 96.1454 21.4064 92.5264 21.4064 92.5264L9.2963 149.224L17.7366 157.186C17.7366 157.186 137.981 157.85 209.907 157.669C281.834 157.488 482.2 155.196 482.2 155.196L477.552 117.196L469.968 110.199L469.234 109.958L463.729 57.6028C463.729 57.6028 457.613 50.1838 453.821 49.9425C430.702 48.6759 353.638 51.5108 361.711 51.1489C371.008 50.606 458.836 47.1076 458.836 47.1076Z" fill="#462814"/>
<path d="M449.785 38.9648L448.195 0C448.195 0 80.7341 9.89199 0.245117 12.6666L6.72828 74.3709C6.72828 74.3709 88.4405 80.8248 131.009 77.4471C73.1501 88.0026 12.3552 84.3835 12.3552 84.3835L8.68546 149.043C8.68546 149.043 128.93 149.707 200.856 149.526C272.782 149.345 473.149 147.053 473.149 147.053L468.5 109.053H358.042L460.182 101.815L454.678 49.46C454.678 49.46 343.241 43.4886 352.538 43.0061C361.956 42.4632 449.785 38.9648 449.785 38.9648Z" fill="#714121"/>
<path d="M456.757 69.0027C339.204 107.907 112.416 110.802 11.0094 110.018L8.80762 148.983C8.80762 148.983 129.052 149.647 200.978 149.466C272.905 149.285 473.271 146.993 473.271 146.993L468.623 108.993H358.164L460.305 101.755L456.757 69.0027Z" fill="#734425"/>
<path d="M183.485 49.9425C189.846 50.0632 214.433 51.3298 217.491 46.0822C220.06 41.6791 199.877 41.1966 188.501 41.2569C184.709 41.2569 181.895 41.3775 181.283 41.3775C135.045 42.4632 87.9505 42.4632 41.9567 45.2378C37.5531 45.4791 17.7366 48.5552 4.15869 50.4854L5.62658 63.9361C18.4706 62.1266 34.6173 60.1964 35.7182 60.0758C84.8924 54.7679 132.843 49.1584 183.485 49.9425Z" fill="#361500"/>
<path d="M459.57 96.1454L458.836 88.9073C438.041 86.2534 417.98 81.1264 397.185 78.2915C365.993 74.0693 330.764 71.6566 297.124 71.5963C285.871 71.5963 274.862 71.7773 264.219 72.3201C188.134 75.9995 130.642 91.9835 51.0091 88.9073C44.6482 88.666 19.2049 91.8628 16.1468 90.4755C15.0459 89.993 18.3486 87.3994 18.5933 87.0978C19.4495 86.1327 20.0612 85.4089 20.5505 84.6851C15.5352 84.5042 12.3548 84.3835 12.3548 84.3835L8.68506 149.043C8.68506 149.043 128.929 149.707 200.856 149.526C272.782 149.345 473.148 147.053 473.148 147.053L470.702 127.269C443.057 126.364 413.087 129.561 386.91 132.999C355.962 137.04 325.137 146.028 292.721 145.907C230.58 145.666 170.152 131.25 107.89 131.25C98.96 131.25 36.5749 140.961 36.2079 140.478C35.5963 139.815 39.3883 138.005 39.9999 137.643C57.8592 126.726 82.9356 121.177 109.724 120.574C165.015 119.428 213.944 128.174 267.522 127.571C300.427 127.209 336.146 124.917 368.439 121.961C383.118 120.634 396.574 117.256 411.497 116.774C430.335 116.231 450.151 115.447 469.234 116.593L468.745 112.19C429.723 110.501 390.335 111.828 351.803 115.145C334.311 116.653 316.696 119.428 298.959 120.212C207.461 124.555 109.235 101.634 24.0978 126.183C20.3058 127.269 26.789 121.72 27.7676 119.488C29.7247 114.964 30.948 110.923 31.315 106.279C31.4373 104.409 27.8899 101.393 31.0703 100.729C63.6084 94.2152 102.507 96.266 136.636 92.7073C160.856 90.174 183.975 85.5899 208.073 82.9962C262.629 77.2058 317.553 77.9296 372.476 82.3931C402.445 84.8661 430.58 91.2597 459.57 96.1454Z" fill="#361500"/>
<path d="M353.149 90.355C353.026 89.7518 343.974 88.1835 343.363 87.9423C326.36 86.6153 309.112 85.8312 291.865 85.8312C286.115 85.8312 280.366 85.8915 274.617 86.0724C256.758 86.6153 239.143 88.0629 222.018 90.7169C218.348 91.2597 192.782 93.793 194.25 97.0501C195.963 101.031 218.348 98.739 222.874 98.6184C259.816 97.2914 296.88 100.609 333.577 96.6882C337.124 96.3263 353.638 94.0946 353.149 90.355Z" fill="#361500"/>
<path d="M347.155 64.4186C330.029 61.5234 314.739 60.3171 301.283 60.2568C285.993 60.1964 273.026 61.7044 262.14 63.9964C320.121 63.8758 347.155 64.4186 347.155 64.4186Z" fill="#361500"/>
<path d="M176.391 106.641C224.831 117.618 247.094 117.799 303.73 109.475C244.525 114.783 176.391 106.641 176.391 106.641Z" fill="#361500"/>
<path d="M415.167 37.095C411.252 36.914 397.43 35.2251 386.91 35.3458C380.671 35.4061 375.534 36.1299 374.678 38.241C374.066 39.6283 375.778 40.8346 378.347 41.86C406.971 40.6537 449.784 38.9648 449.784 38.9648L449.662 36.914C433.393 37.1553 419.693 37.2759 415.167 37.095Z" fill="#361500"/>
<path d="M443.056 63.0313C391.069 56.5774 350.824 50.0631 305.809 49.7012C302.751 49.7012 299.815 49.7012 296.757 49.7012C274.494 49.9425 250.886 51.8123 224.097 55.8536C192.293 60.6789 160.978 68.5202 127.706 69.9678C94.8006 71.4154 46.1158 66.1678 13.333 74.7328C21.4064 75.336 39.7549 76.5423 63.7304 77.5074C110.825 75.6376 157.43 77.2058 203.057 67.9773C241.1 60.2567 282.812 51.5107 324.402 54.4663C369.907 57.6631 412.475 71.1741 457.001 77.1455C457.246 77.2058 457.491 77.2058 457.735 77.2058L456.39 64.5995C451.864 64.1773 447.46 63.5742 443.056 63.0313Z" fill="#361500"/>
<path d="M426.665 21.9554C293.577 23.7046 159.877 29.3744 27.4005 32.6918C22.3852 28.1078 15.9021 20.1459 9.66358 12.3047C6.97245 12.365 2.32415 12.546 0 12.6063L3.18042 43.0664C7.46175 42.4632 12.3547 42.041 17.2477 41.4378C76.8193 33.7776 138.96 38.1807 199.388 34.1998C219.938 32.8125 239.999 33.295 260.672 32.4506C315.106 30.2792 369.418 26.9014 424.219 26.5395C427.032 26.5395 437.43 26.6601 449.05 26.9014L448.806 20.93C438.653 21.4729 429.968 21.8951 426.665 21.9554Z" fill="#361500"/>
<path d="M396.451 46.1425C396.573 46.1425 396.573 46.1425 396.451 46.1425C405.748 47.7711 430.457 49.3996 454.677 50.5457L454.555 49.46C454.677 49.3996 424.341 47.7711 396.451 46.1425Z" fill="#361500"/>
<path d="M46.6055 20.8094L448.561 9.46975L448.317 5.24756L46.6055 20.8094Z" fill="#361500"/>
<path d="M55.6055 157.509L457.561 146.17L457.317 141.948L55.6055 157.509Z" fill="#361500"/>
<path d="M163.302 72.0185C172.843 71.2344 183.73 69.5455 198.409 66.1678C210.274 63.5138 228.623 58.6282 244.403 56.3361C250.886 55.371 257.614 54.5869 264.464 54.0441C297.002 51.3901 327.705 53.6218 349.112 55.9139C370.641 58.2663 383.607 60.6186 383.852 60.2567C384.096 59.8948 371.742 56.879 349.968 53.9838C328.439 51.0885 297.124 48.5552 263.485 51.2695C256.268 51.8727 249.418 52.6568 242.69 53.6822C225.932 56.2155 208.073 61.1615 196.33 64.0567C181.773 67.6154 171.865 69.4852 162.568 70.6312C154.25 71.717 149.235 71.8979 149.235 72.0789C149.48 72.4408 154.617 72.682 163.302 72.0185Z" fill="#462814"/>
<path d="M369.54 75.6376C385.32 76.482 394.983 77.3264 395.228 76.9645C395.35 76.6026 385.931 75.0947 370.152 73.7677C353.638 72.3804 332.965 71.4154 307.767 71.5963C258.837 71.8979 219.449 75.6376 219.694 76.3614C219.938 77.0852 259.449 74.6122 307.889 74.3106C333.088 74.1296 352.782 74.7328 369.54 75.6376Z" fill="#462814"/>
<path d="M327.338 120.996C344.341 118.704 354.372 116.291 354.005 115.929C353.76 115.567 343.363 117.317 326.36 119.126C308.5 120.996 286.482 122.383 258.837 122.263C232.048 122.082 207.828 120.513 190.336 119.126C172.843 117.799 162.079 116.713 161.956 117.075C161.589 117.799 204.525 124.675 258.837 124.977C286.727 125.158 309.601 123.409 327.338 120.996Z" fill="#462814"/>
<path d="M150.091 139.694C166.115 140.177 177.736 141.021 188.256 142.047C197.919 143.012 203.791 143.916 204.036 143.555C204.28 143.193 198.898 141.685 189.234 140.177C179.082 138.609 166.36 137.402 150.458 136.92C135.657 136.497 120.733 136.739 111.314 136.98C101.284 137.221 95.1675 137.583 95.1675 137.945C95.1675 138.307 101.284 138.669 111.314 138.91C121.345 139.151 135.045 139.212 150.091 139.694Z" fill="#462814"/>
<path d="M439.999 131.069C450.151 130.104 456.512 129.621 456.512 129.259C456.512 128.898 449.907 128.656 439.387 129.199C428.378 129.742 415.045 131.009 399.265 133.361C368.439 137.945 344.831 143.434 345.32 144.158C345.809 144.882 370.396 140.539 400.855 136.015C417.002 133.542 428.867 132.155 439.999 131.069Z" fill="#462814"/>
<path d="M257.37 29.9776C292.721 28.4093 315.963 27.6855 340.06 27.3839C361.222 27.1427 374.311 27.3236 374.433 26.9617C374.433 26.5998 361.345 25.6951 340.06 25.4538C317.063 25.2125 291.009 25.7554 257.003 27.203H256.88C224.587 28.5903 195.474 30.2792 174.434 31.3046C153.394 32.3299 140.306 32.8728 140.306 33.295C140.306 33.6569 153.517 33.7776 174.679 33.2347C200 32.6315 221.039 31.5458 257.37 29.9776Z" fill="#462814"/>
</svg>
