<svg width="887" height="462" viewBox="0 0 887 462" fill="none" xmlns="http://www.w3.org/2000/svg">
<path d="M823.91 373.888C858.754 373.888 887 345.641 887 310.798C887 275.954 858.754 247.708 823.91 247.708C789.067 247.708 760.82 275.954 760.82 310.798C760.82 345.641 789.067 373.888 823.91 373.888Z" fill="#E6F4FD"/>
<path d="M146.526 280.763C200.775 280.763 244.753 236.786 244.753 182.536C244.753 128.287 200.775 84.309 146.526 84.309C92.2766 84.309 48.2988 128.287 48.2988 182.536C48.2988 236.786 92.2766 280.763 146.526 280.763Z" fill="#E6F4FD"/>
<path d="M89.1806 529.556C99.2801 487.366 73.2659 444.977 31.0762 434.878C-11.1134 424.778 -53.5021 450.793 -63.6016 492.982C-73.7011 535.172 -47.6869 577.561 -5.49725 587.66C36.6924 597.76 79.0811 571.745 89.1806 529.556Z" fill="#E6F4FD"/>
<path d="M510.014 219.233C559.923 197.973 583.148 140.278 561.887 90.369C540.627 40.4596 482.933 17.2349 433.023 38.4952C383.114 59.7555 359.889 117.45 381.149 167.359C402.41 217.269 460.104 240.494 510.014 219.233Z" fill="#E6F4FD"/>
<path d="M96.7597 197.175C104.835 146.835 70.5733 99.4796 20.2334 91.404C-30.1066 83.3284 -77.4618 117.59 -85.5374 167.93C-93.613 218.27 -59.351 265.626 -9.011 273.701C41.329 281.777 88.6841 247.515 96.7597 197.175Z" fill="#E6F4FD"/>
<path d="M48.2988 478.309C121.477 478.309 180.8 418.987 180.8 345.808C180.8 272.63 121.477 213.307 48.2988 213.307C-24.8797 213.307 -84.2025 272.63 -84.2025 345.808C-84.2025 418.987 -24.8797 478.309 48.2988 478.309Z" fill="#E6F4FD"/>
<path d="M253.36 434.565C326.538 434.565 385.861 375.243 385.861 302.064C385.861 228.886 326.538 169.563 253.36 169.563C180.181 169.563 120.859 228.886 120.859 302.064C120.859 375.243 180.181 434.565 253.36 434.565Z" fill="#E6F4FD"/>
<path d="M553.516 296.349C565.43 224.144 516.554 155.952 444.349 144.039C372.143 132.125 303.952 181.001 292.038 253.206C280.125 325.412 329.001 393.603 401.206 405.517C473.411 417.43 541.603 368.554 553.516 296.349Z" fill="#E6F4FD"/>
<path d="M727.304 351.741C738.493 279.426 688.941 211.733 616.626 200.544C544.311 189.355 476.618 238.907 465.429 311.222C454.24 383.537 503.792 451.231 576.107 462.42C648.422 473.609 716.115 424.056 727.304 351.741Z" fill="#E6F4FD"/>
<path d="M677.403 240.674C684.846 190.237 649.993 143.316 599.557 135.872C549.12 128.429 502.199 163.282 494.755 213.719C487.312 264.156 522.165 311.077 572.602 318.52C623.038 325.964 669.96 291.111 677.403 240.674Z" fill="#E6F4FD"/>
<path d="M543.015 525.1C593.997 525.1 635.326 483.771 635.326 432.788C635.326 381.806 593.997 340.477 543.015 340.477C492.032 340.477 450.703 381.806 450.703 432.788C450.703 483.771 492.032 525.1 543.015 525.1Z" fill="#E6F4FD"/>
<path d="M234.304 495.199C245.427 447.345 215.651 399.534 167.797 388.411C119.943 377.288 72.1325 407.064 61.0091 454.918C49.8857 502.772 79.6618 550.583 127.516 561.706C175.37 572.829 223.181 543.053 234.304 495.199Z" fill="#E6F4FD"/>
<path d="M714.969 331.514C756.108 331.514 789.458 298.165 789.458 257.025C789.458 215.886 756.108 182.536 714.969 182.536C673.83 182.536 640.48 215.886 640.48 257.025C640.48 298.165 673.83 331.514 714.969 331.514Z" fill="#E6F4FD"/>
<path d="M812.721 366.305C818.878 337.667 800.653 309.461 772.015 303.304C743.378 297.147 715.171 315.371 709.014 344.009C702.857 372.647 721.081 400.853 749.719 407.01C778.357 413.167 806.564 394.943 812.721 366.305Z" fill="#E6F4FD"/>
<path d="M684.808 508.801C726.788 508.801 760.82 474.769 760.82 432.788C760.82 390.808 726.788 356.776 684.808 356.776C642.827 356.776 608.795 390.808 608.795 432.788C608.795 474.769 642.827 508.801 684.808 508.801Z" fill="#E6F4FD"/>
<path d="M338.233 570.063C418.128 570.063 482.895 505.295 482.895 425.4C482.895 345.506 418.128 280.738 338.233 280.738C258.338 280.738 193.571 345.506 193.571 425.4C193.571 505.295 258.338 570.063 338.233 570.063Z" fill="#E6F4FD"/>
<path d="M823.91 247.708C811.952 247.708 800.781 251.034 791.261 256.797C796.465 257.965 801.315 260.326 805.301 264.21C817.614 276.193 818.832 296.733 814.669 312.448C808.601 335.399 790.753 348.753 768.259 353.983C754.651 357.157 740.56 357.487 726.571 357.791C730.761 371.247 730.101 386.175 724.718 399.225C714.588 423.852 690.52 436.749 664.599 437.231C644.847 437.612 625.044 430.275 610.293 417.124C523.516 491.029 443.162 444.137 418.13 411.411C415.286 416.819 398.784 467.951 307.208 469.982C265.318 470.921 233.252 453.48 210.86 431.849C197.074 453.251 173.996 468.408 148.862 472.546C123.753 476.684 97.0188 469.728 77.0891 453.86C39.8952 478.817 -14.8672 472.952 -45.9424 440.709C-66.1769 450.078 -89.9149 451.601 -111.165 444.873C-156.356 430.554 -184.486 379.981 -181.313 334.155C-198.881 337.709 -217.77 334.383 -233.054 325.04C-253.593 312.473 -264.535 291.858 -266.617 268.399C-268.521 246.946 -264.155 222.7 -249.429 206.173C-279.616 216.556 -301.323 245.169 -301.323 278.885C-301.323 321.359 -266.896 355.786 -224.422 355.786C-218.506 355.786 -212.769 355.1 -207.234 353.831C-218.1 371.019 -224.422 391.355 -224.422 413.188C-224.422 474.577 -174.636 524.364 -113.247 524.364C-96.2366 524.364 -80.1404 520.53 -65.7199 513.701C-64.4251 555.947 -29.7955 589.815 12.7552 589.815C46.2931 589.815 74.9057 568.768 86.178 539.19C102.147 554.474 123.803 563.868 147.643 563.868C181.613 563.868 211.139 544.827 226.118 516.823C252.649 549.27 292.991 570.012 338.157 570.012C395.737 570.012 445.473 536.347 468.728 487.652C485.535 510.349 512.523 525.049 542.938 525.049C577.568 525.049 607.704 505.983 623.495 477.776C637.332 496.563 659.597 508.75 684.732 508.75C726.724 508.75 760.744 474.704 760.744 432.737C760.744 424.08 759.272 415.778 756.606 408.009C757.977 408.111 759.348 408.212 760.744 408.212C783.974 408.212 803.65 393.259 810.835 372.491C815.024 373.38 819.391 373.837 823.834 373.837C858.667 373.837 886.924 345.58 886.924 310.747C886.924 275.914 858.768 247.708 823.91 247.708Z" fill="#B3D6F2"/>
<path d="M285.07 247.708C349.26 247.708 401.297 195.671 401.297 131.481C401.297 67.2899 349.26 15.2531 285.07 15.2531C220.879 15.2531 168.842 67.2899 168.842 131.481C168.842 195.671 220.879 247.708 285.07 247.708Z" fill="#E6F4FD"/>
<path d="M-57.1894 177.738C-34.5939 168.141 -8.34241 167.253 15.2941 173.498C37.6611 179.388 55.4329 193.656 72.8239 208.229C85.7465 193.707 97.2728 176.875 116.847 171.01C138.427 164.561 161.073 170.528 178.947 183.425C197.328 140.595 253.36 102.309 332.85 117.695C360.879 123.102 384.008 145.571 384.008 145.571C384.008 145.571 436.739 116.375 493.736 139.3C528.34 153.213 535.626 172.305 548.6 194.469C590.211 148.44 651.118 174.26 666.782 182.435C651.042 154.051 620.779 134.857 586.022 134.857C580.335 134.857 574.801 135.39 569.393 136.38C569.571 133.918 569.698 131.455 569.698 128.942C569.698 74.687 525.725 30.7145 471.47 30.7145C436.155 30.7145 405.207 49.3749 387.892 77.3527C368.419 40.4382 329.677 15.2784 285.044 15.2784C235.817 15.2784 193.748 45.9221 176.814 89.1329C167.268 86.0356 157.062 84.3345 146.475 84.3345C116.695 84.3345 90.0371 97.6125 72.0114 118.532C55.2298 101.091 31.6441 90.2246 5.5196 90.2246C-45.46 90.2246 -86.7921 131.557 -86.7921 182.536C-86.7921 187.233 -86.4367 191.828 -85.7512 196.347C-77.3223 188.579 -67.7509 182.232 -57.1894 177.738Z" fill="white"/>
<path d="M-24.1592 304.324C-8.39307 349.236 39.413 354.491 79.9327 344.488C103.061 340.832 124.641 325.447 128.881 301.759L131.192 288.481L139.849 298.687C181.562 345.402 253.842 333.444 282.328 278.453C260.164 344.437 175.875 358.35 130.328 306.964L141.321 303.892C136.777 329.864 114.08 349.845 88.5901 354.059C69.295 358.35 49.1113 360.026 29.5624 356.014C3.66636 351.165 -20.0463 330.981 -24.1592 304.324Z" fill="#B3D6F2"/>
<path d="M387.029 210.133C399.317 254.36 447.428 272.258 483.885 243.722C500.311 272.385 532.885 282.287 563.173 268.399C538.495 292.848 495.538 286.323 475.786 258.32L486.17 260.123C466.951 274.137 440.116 276.244 419.069 265.327C398.936 254.918 385.176 232.424 387.029 210.133Z" fill="#B3D6F2"/>
<path d="M349.632 381.326C375.503 409.786 418.206 417.505 448.799 392.853C458.522 385.338 466.748 375.462 472.765 363.148C472.994 376.985 466.748 390.974 456.948 401.611C447.148 412.3 433.489 419.993 418.561 422.151C389.822 426.594 357.832 409.177 349.632 381.326Z" fill="#B3D6F2"/>
</svg>
