<svg width="262" height="62" viewBox="0 0 262 62" fill="none" xmlns="http://www.w3.org/2000/svg">
<g filter="url(#filter0_di_36_8572)">
<rect y="0.100098" width="262" height="53" rx="12" fill="url(#paint0_linear_36_8572)" shape-rendering="crispEdges"/>
<mask id="path-2-outside-1_36_8572" maskUnits="userSpaceOnUse" x="101.5" y="17.1001" width="59" height="21" fill="black">
<rect fill="white" x="101.5" y="17.1001" width="59" height="21"/>
<path d="M121.254 18.9786L120.173 36.2175L114.819 36.4524L114.866 27.3632L112.446 34.6909H110.38L108.524 28.1382L108.501 35.7478L103.075 35.9122L103.31 19.6832L109.346 19.4483L111.742 27.2223L114.936 18.9786H121.254ZM128.464 19.5657L127.172 35.5599L122.217 35.8183V19.8945L128.464 19.5657ZM145.257 19.2604L144.411 35.1841L138.258 35.7478L134.97 27.2223L134.453 35.9122H129.169L129.591 19.2604L135.463 18.9786L139.526 27.4336L139.714 19.4483L145.257 19.2604ZM158.632 19.3074L158.515 24.2865L155.015 24.4274L154.123 35.5599L149.167 35.8183L149.191 24.6857L145.691 24.8736L145.832 19.3309L158.632 19.3074Z"/>
</mask>
<path d="M121.254 18.9786L120.173 36.2175L114.819 36.4524L114.866 27.3632L112.446 34.6909H110.38L108.524 28.1382L108.501 35.7478L103.075 35.9122L103.31 19.6832L109.346 19.4483L111.742 27.2223L114.936 18.9786H121.254ZM128.464 19.5657L127.172 35.5599L122.217 35.8183V19.8945L128.464 19.5657ZM145.257 19.2604L144.411 35.1841L138.258 35.7478L134.97 27.2223L134.453 35.9122H129.169L129.591 19.2604L135.463 18.9786L139.526 27.4336L139.714 19.4483L145.257 19.2604ZM158.632 19.3074L158.515 24.2865L155.015 24.4274L154.123 35.5599L149.167 35.8183L149.191 24.6857L145.691 24.8736L145.832 19.3309L158.632 19.3074Z" fill="#361500"/>
<path d="M121.254 18.9786L122.252 19.0411C122.269 18.7656 122.172 18.4952 121.983 18.2939C121.794 18.0927 121.53 17.9786 121.254 17.9786V18.9786ZM120.173 36.2175L120.217 37.2166C120.728 37.1942 121.14 36.7902 121.172 36.2801L120.173 36.2175ZM114.819 36.4524L113.819 36.4472C113.817 36.7209 113.928 36.9833 114.125 37.173C114.323 37.3628 114.589 37.4634 114.862 37.4514L114.819 36.4524ZM114.866 27.3632L115.866 27.3684C115.868 26.8764 115.512 26.4556 115.027 26.3763C114.541 26.2969 114.07 26.5825 113.916 27.0497L114.866 27.3632ZM112.446 34.6909V35.6909C112.878 35.6909 113.261 35.4141 113.396 35.0044L112.446 34.6909ZM110.38 34.6909L109.417 34.9634C109.539 35.3938 109.932 35.6909 110.38 35.6909V34.6909ZM108.524 28.1382L109.486 27.8658C109.351 27.3861 108.882 27.0797 108.388 27.1475C107.894 27.2153 107.526 27.6366 107.524 28.1351L108.524 28.1382ZM108.501 35.7478L108.531 36.7473C109.07 36.731 109.499 36.2902 109.501 35.7509L108.501 35.7478ZM103.075 35.9122L102.076 35.8977C102.072 36.1707 102.179 36.4334 102.374 36.6249C102.568 36.8164 102.833 36.92 103.106 36.9117L103.075 35.9122ZM103.31 19.6832L103.271 18.6839C102.74 18.7046 102.318 19.1372 102.31 19.6687L103.31 19.6832ZM109.346 19.4483L110.302 19.1538C110.168 18.7206 109.76 18.4314 109.307 18.449L109.346 19.4483ZM111.742 27.2223L110.786 27.5168C110.912 27.9237 111.281 28.2066 111.707 28.2216C112.132 28.2367 112.52 27.9806 112.674 27.5836L111.742 27.2223ZM114.936 18.9786V17.9786C114.523 17.9786 114.153 18.2323 114.004 18.6173L114.936 18.9786ZM120.256 18.916L119.175 36.155L121.172 36.2801L122.252 19.0411L120.256 18.916ZM120.13 35.2185L114.775 35.4534L114.862 37.4514L120.217 37.2166L120.13 35.2185ZM115.819 36.4576L115.866 27.3684L113.866 27.358L113.819 36.4472L115.819 36.4576ZM113.916 27.0497L111.497 34.3774L113.396 35.0044L115.815 27.6767L113.916 27.0497ZM112.446 33.6909H110.38V35.6909H112.446V33.6909ZM111.342 34.4185L109.486 27.8658L107.562 28.4107L109.417 34.9634L111.342 34.4185ZM107.524 28.1351L107.501 35.7447L109.501 35.7509L109.524 28.1413L107.524 28.1351ZM108.47 34.7483L103.045 34.9127L103.106 36.9117L108.531 36.7473L108.47 34.7483ZM104.075 35.9267L104.31 19.6976L102.31 19.6687L102.076 35.8977L104.075 35.9267ZM103.349 20.6824L109.385 20.4475L109.307 18.449L103.271 18.6839L103.349 20.6824ZM108.391 19.7428L110.786 27.5168L112.698 26.9278L110.302 19.1538L108.391 19.7428ZM112.674 27.5836L115.868 19.3399L114.004 18.6173L110.809 26.861L112.674 27.5836ZM114.936 19.9786H121.254V17.9786H114.936V19.9786ZM128.464 19.5657L129.461 19.6462C129.484 19.3588 129.382 19.0753 129.181 18.8686C128.98 18.6618 128.7 18.5519 128.412 18.5671L128.464 19.5657ZM127.172 35.5599L127.224 36.5586C127.725 36.5325 128.129 36.1399 128.169 35.6404L127.172 35.5599ZM122.217 35.8183H121.217C121.217 36.0925 121.329 36.3547 121.528 36.5435C121.727 36.7324 121.995 36.8312 122.269 36.8169L122.217 35.8183ZM122.217 19.8945L122.164 18.8959C121.633 18.9239 121.217 19.3627 121.217 19.8945H122.217ZM127.467 19.4852L126.176 35.4794L128.169 35.6404L129.461 19.6462L127.467 19.4852ZM127.12 34.5613L122.165 34.8196L122.269 36.8169L127.224 36.5586L127.12 34.5613ZM123.217 35.8183V19.8945H121.217V35.8183H123.217ZM122.269 20.8931L128.517 20.5643L128.412 18.5671L122.164 18.8959L122.269 20.8931ZM145.257 19.2604L146.255 19.3134C146.27 19.0335 146.167 18.7602 145.971 18.5601C145.774 18.36 145.503 18.2515 145.223 18.261L145.257 19.2604ZM144.411 35.1841L144.503 36.18C144.997 36.1347 145.384 35.7332 145.41 35.2372L144.411 35.1841ZM138.258 35.7478L137.325 36.1076C137.486 36.5248 137.904 36.7844 138.349 36.7436L138.258 35.7478ZM134.97 27.2223L135.903 26.8624C135.734 26.4234 135.281 26.1618 134.816 26.2342C134.351 26.3065 134 26.6932 133.972 27.1629L134.97 27.2223ZM134.453 35.9122V36.9122C134.982 36.9122 135.42 36.4999 135.451 35.9716L134.453 35.9122ZM129.169 35.9122L128.169 35.8868C128.162 36.1564 128.264 36.4172 128.453 36.6103C128.641 36.8033 128.899 36.9122 129.169 36.9122V35.9122ZM129.591 19.2604L129.544 18.2616C129.02 18.2867 128.605 18.7113 128.592 19.235L129.591 19.2604ZM135.463 18.9786L136.364 18.5454C136.19 18.1833 135.816 17.9605 135.415 17.9797L135.463 18.9786ZM139.526 27.4336L138.625 27.8668C138.825 28.2835 139.285 28.5086 139.737 28.4112C140.189 28.3138 140.515 27.9193 140.526 27.4572L139.526 27.4336ZM139.714 19.4483L139.68 18.4489C139.151 18.4668 138.727 18.8949 138.714 19.4248L139.714 19.4483ZM144.258 19.2074L143.413 35.1311L145.41 35.2372L146.255 19.3134L144.258 19.2074ZM144.32 34.1883L138.167 34.752L138.349 36.7436L144.503 36.18L144.32 34.1883ZM139.191 35.388L135.903 26.8624L134.037 27.5821L137.325 36.1076L139.191 35.388ZM133.972 27.1629L133.455 35.8529L135.451 35.9716L135.968 27.2816L133.972 27.1629ZM134.453 34.9122H129.169V36.9122H134.453V34.9122ZM130.168 35.9376L130.591 19.2858L128.592 19.235L128.169 35.8868L130.168 35.9376ZM129.639 20.2593L135.511 19.9774L135.415 17.9797L129.544 18.2616L129.639 20.2593ZM134.562 19.4117L138.625 27.8668L140.428 27.0005L136.364 18.5454L134.562 19.4117ZM140.526 27.4572L140.714 19.4718L138.714 19.4248L138.526 27.4101L140.526 27.4572ZM139.748 20.4477L145.291 20.2598L145.223 18.261L139.68 18.4489L139.748 20.4477ZM158.632 19.3074L159.632 19.331C159.638 19.0614 159.536 18.8007 159.347 18.608C159.159 18.4153 158.9 18.3069 158.63 18.3074L158.632 19.3074ZM158.515 24.2865L158.555 25.2857C159.082 25.2644 159.502 24.8374 159.515 24.3101L158.515 24.2865ZM155.015 24.4274L154.975 23.4282C154.47 23.4486 154.059 23.8432 154.019 24.3475L155.015 24.4274ZM154.123 35.5599L154.175 36.5586C154.676 36.5325 155.08 36.1396 155.12 35.6398L154.123 35.5599ZM149.167 35.8183L148.167 35.8162C148.167 36.0908 148.279 36.3535 148.478 36.5428C148.677 36.7321 148.945 36.8312 149.219 36.8169L149.167 35.8183ZM149.191 24.6857L150.191 24.6879C150.191 24.413 150.079 24.15 149.879 23.9607C149.68 23.7713 149.412 23.6724 149.137 23.6872L149.191 24.6857ZM145.691 24.8736L144.692 24.8482C144.685 25.1271 144.794 25.3962 144.994 25.5906C145.194 25.7851 145.466 25.8872 145.745 25.8722L145.691 24.8736ZM145.832 19.3309L145.83 18.3309C145.289 18.3319 144.846 18.7639 144.833 19.3054L145.832 19.3309ZM157.633 19.2838L157.515 24.2629L159.515 24.3101L159.632 19.331L157.633 19.2838ZM158.475 23.2873L154.975 23.4282L155.056 25.4266L158.555 25.2857L158.475 23.2873ZM154.019 24.3475L153.126 35.48L155.12 35.6398L156.012 24.5073L154.019 24.3475ZM154.071 34.5613L149.115 34.8196L149.219 36.8169L154.175 36.5586L154.071 34.5613ZM150.167 35.8204L150.191 24.6879L148.191 24.6836L148.167 35.8162L150.167 35.8204ZM149.137 23.6872L145.638 23.8751L145.745 25.8722L149.244 25.6843L149.137 23.6872ZM146.691 24.899L146.832 19.3563L144.833 19.3054L144.692 24.8482L146.691 24.899ZM145.834 20.3309L158.634 20.3074L158.63 18.3074L145.83 18.3309L145.834 20.3309Z" fill="#FEA800" mask="url(#path-2-outside-1_36_8572)"/>
</g>
<defs>
<filter id="filter0_di_36_8572" x="0" y="0.100098" width="262" height="61" filterUnits="userSpaceOnUse" color-interpolation-filters="sRGB">
<feFlood flood-opacity="0" result="BackgroundImageFix"/>
<feColorMatrix in="SourceAlpha" type="matrix" values="0 0 0 0 0 0 0 0 0 0 0 0 0 0 0 0 0 0 127 0" result="hardAlpha"/>
<feOffset dy="8"/>
<feComposite in2="hardAlpha" operator="out"/>
<feColorMatrix type="matrix" values="0 0 0 0 0.211765 0 0 0 0 0.0823529 0 0 0 0 0 0 0 0 1 0"/>
<feBlend mode="normal" in2="BackgroundImageFix" result="effect1_dropShadow_36_8572"/>
<feBlend mode="normal" in="SourceGraphic" in2="effect1_dropShadow_36_8572" result="shape"/>
<feColorMatrix in="SourceAlpha" type="matrix" values="0 0 0 0 0 0 0 0 0 0 0 0 0 0 0 0 0 0 127 0" result="hardAlpha"/>
<feOffset/>
<feGaussianBlur stdDeviation="2"/>
<feComposite in2="hardAlpha" operator="arithmetic" k2="-1" k3="1"/>
<feColorMatrix type="matrix" values="0 0 0 0 1 0 0 0 0 1 0 0 0 0 1 0 0 0 0.65 0"/>
<feBlend mode="normal" in2="shape" result="effect2_innerShadow_36_8572"/>
</filter>
<linearGradient id="paint0_linear_36_8572" x1="131" y1="0.100098" x2="131" y2="53.1001" gradientUnits="userSpaceOnUse">
<stop stop-color="#FFF6B1"/>
<stop offset="0.54" stop-color="#D6A12D"/>
<stop offset="1" stop-color="#C16718"/>
</linearGradient>
</defs>
</svg>
