<?xml version="1.0" encoding="UTF-8" standalone="no"?><!DOCTYPE svg PUBLIC "-//W3C//DTD SVG 1.1//EN" "http://www.w3.org/Graphics/SVG/1.1/DTD/svg11.dtd"><svg width="100%" height="100%" viewBox="0 0 2013 2575" version="1.1" xmlns="http://www.w3.org/2000/svg" xmlns:xlink="http://www.w3.org/1999/xlink" xml:space="preserve" xmlns:serif="http://www.serif.com/" style="fill-rule:evenodd;clip-rule:evenodd;stroke-linejoin:round;stroke-miterlimit:2;"><path d="M967.917,2551.67c311.808,-0 564.583,-43.838 564.583,-97.917c0,-54.079 -252.775,-97.917 -564.583,-97.917c-311.813,0 -564.584,43.838 -564.584,97.917c-0,54.079 252.771,97.917 564.584,97.917Z" style="fill:#7cb83d;fill-rule:nonzero;"/><path d="M1372.92,2573.33c26.921,0 48.75,-11.379 48.75,-25.416c-0,-14.038 -21.829,-25.417 -48.75,-25.417c-26.925,0 -48.75,11.379 -48.75,25.417c-0,14.037 21.825,25.416 48.75,25.416Z" style="fill:#7cb83d;fill-rule:nonzero;"/><path d="M690,2396.67c31.987,-0 57.917,-12.313 57.917,-27.5c-0,-15.188 -25.93,-27.5 -57.917,-27.5c-31.987,-0 -57.917,12.312 -57.917,27.5c0,15.187 25.93,27.5 57.917,27.5Z" style="fill:#7cb83d;fill-rule:nonzero;"/><path d="M728.75,2544.58c0,0 -48.75,-58.333 -23.333,-79.583c25.416,-21.25 35.833,74.167 35.833,74.167c0,-0 -0.417,-70.417 33.75,-66.667c34.167,3.75 -22.083,75.417 -22.083,75.417c-0,-0 -22.917,5 -24.167,-3.334Z" style="fill:#c9e39a;fill-rule:nonzero;"/><path d="M1158.37,569.938c-31.834,-46.955 -383.521,-39.38 -406.259,-0c-22.737,39.383 145.534,583.095 163.717,964.833c16.808,352.854 -174.817,902.729 -57.604,902.729l300.146,0c117.216,0 53.204,-549.554 54.575,-902.729c1.462,-377.392 -22.738,-917.879 -54.575,-964.833Z" style="fill:#361500;fill-rule:nonzero;"/><path d="M1911.82,196.282l-6.625,-162.354c-0,0 -17.838,-33.425 -39.246,-32.671c-225.279,6.031 -1521.4,75.145 -1827.21,85.449l-8.665,223.424l35.678,33.677c-0,0 340.467,26.892 517.835,12.818c-241.078,43.981 -494.39,28.902 -494.39,28.902l-50.458,236.24l35.168,33.175c-0,-0 501.018,2.766 800.71,2.012c299.695,-0.754 1134.55,-10.304 1134.55,-10.304l-19.367,-158.333l-31.6,-29.154l-3.058,-1.005l-22.938,-218.146c0,-0 -25.483,-30.913 -41.283,-31.918c-96.329,-5.278 -417.429,6.534 -383.792,5.026c38.738,-2.262 404.688,-16.838 404.688,-16.838Z" style="fill:#462814;fill-rule:nonzero;"/><path d="M1874.1,162.353l-6.625,-162.353c0,0 -1531.09,41.217 -1866.46,52.778l27.014,257.101c-0,-0 340.467,26.891 517.836,12.817c-241.079,43.981 -494.391,28.902 -494.391,28.902l-15.291,269.415c0,-0 501.019,2.766 800.711,2.012c299.692,-0.754 1134.55,-10.304 1134.55,-10.304l-19.371,-158.333l-460.241,-0l425.583,-30.159l-22.933,-218.146c-0,0 -464.321,-24.881 -425.584,-26.891c39.242,-2.262 405.196,-16.839 405.196,-16.839Z" style="fill:#714121;fill-rule:nonzero;"/><path d="M1903.15,287.511c-489.804,162.101 -1434.75,174.164 -1857.28,170.897l-9.174,162.355c0,-0 501.019,2.766 800.71,2.012c299.696,-0.754 1134.56,-10.304 1134.56,-10.304l-19.367,-158.334l-460.246,0l425.588,-30.158l-14.784,-136.468Z" style="fill:#734425;fill-rule:nonzero;"/><path d="M764.521,208.094c26.504,0.503 128.95,5.78 141.692,-16.085c10.704,-18.346 -73.392,-20.356 -120.792,-20.105c-15.8,-0 -27.525,0.502 -30.075,0.502c-192.659,4.524 -388.886,4.524 -580.526,16.085c-18.349,1.005 -100.917,13.822 -157.492,21.865l6.116,56.044c53.517,-7.539 120.795,-15.582 125.382,-16.084c204.892,-22.116 404.687,-45.489 615.695,-42.222Z" style="fill:#361500;fill-rule:nonzero;"/><path d="M1914.88,400.606l-3.058,-30.159c-86.646,-11.058 -170.234,-32.42 -256.879,-44.232c-129.967,-17.593 -276.755,-27.646 -416.921,-27.897c-46.888,-0 -92.759,0.754 -137.104,3.016c-317.021,15.331 -556.571,81.931 -888.375,69.113c-26.504,-1.005 -132.518,12.315 -145.26,6.534c-4.587,-2.01 9.174,-12.817 10.194,-14.074c3.568,-4.021 6.116,-7.037 8.155,-10.052c-20.897,-0.754 -34.149,-1.257 -34.149,-1.257l-15.29,269.415c-0,-0 501.016,2.766 800.712,2.012c299.692,-0.754 1134.55,-10.304 1134.55,-10.304l-10.192,-82.433c-115.187,-3.771 -240.062,9.55 -349.133,23.875c-128.95,16.837 -257.387,54.287 -392.454,53.783c-258.921,-1.004 -510.704,-61.071 -770.129,-61.071c-37.209,0 -297.147,40.463 -298.676,38.45c-2.548,-2.763 13.252,-10.304 15.8,-11.813c74.414,-45.487 178.899,-68.608 290.517,-71.12c230.38,-4.775 434.25,31.666 657.492,29.154c137.104,-1.509 285.933,-11.058 420.488,-23.375c61.162,-5.529 117.229,-19.604 179.408,-21.613c78.492,-2.262 161.058,-5.529 240.571,-0.754l-2.038,-18.346c-162.591,-7.037 -326.708,-1.508 -487.258,12.313c-72.883,6.283 -146.279,17.846 -220.183,21.112c-381.242,18.096 -790.517,-77.408 -1145.26,24.88c-15.8,4.524 11.213,-18.596 15.29,-27.896c8.155,-18.85 13.252,-35.688 14.781,-55.038c0.51,-7.791 -14.271,-20.358 -1.019,-23.125c135.575,-27.141 297.653,-18.596 439.857,-33.424c100.916,-10.555 197.246,-29.655 297.654,-40.462c227.317,-24.127 456.167,-21.111 685.012,-2.513c124.871,10.304 242.1,36.944 362.892,57.301Z" style="fill:#361500;fill-rule:nonzero;"/><path d="M1471.45,376.479c-0.512,-2.513 -38.229,-9.048 -40.775,-10.053c-70.846,-5.529 -142.712,-8.796 -214.575,-8.796c-23.958,0 -47.912,0.251 -71.866,1.005c-74.413,2.262 -147.809,8.294 -219.163,19.352c-15.292,2.262 -121.817,12.817 -115.7,26.388c7.138,16.588 100.408,7.038 119.267,6.535c153.925,-5.529 308.358,8.294 461.262,-8.042c14.779,-1.508 83.588,-10.807 81.55,-26.389Z" style="fill:#361500;fill-rule:nonzero;"/><path d="M1446.48,268.411c-71.358,-12.063 -135.067,-17.09 -191.133,-17.341c-63.708,-0.252 -117.738,6.032 -163.096,15.582c241.588,-0.503 354.229,1.759 354.229,1.759Z" style="fill:#361500;fill-rule:nonzero;"/><path d="M734.963,444.338c201.833,45.737 294.595,46.491 530.579,11.808c-246.688,22.117 -530.579,-11.808 -530.579,-11.808Z" style="fill:#361500;fill-rule:nonzero;"/><path d="M1729.86,154.563c-16.313,-0.755 -73.905,-7.792 -117.738,-7.289c-25.996,0.251 -47.4,3.267 -50.967,12.063c-2.55,5.781 4.584,10.807 15.288,15.08c119.267,-5.027 297.654,-12.064 297.654,-12.064l-0.508,-8.545c-67.788,1.006 -124.871,1.508 -143.729,0.754Z" style="fill:#361500;fill-rule:nonzero;"/><path d="M1846.07,262.63c-216.613,-26.891 -384.3,-54.034 -571.863,-55.542l-37.716,0c-92.763,1.005 -191.13,8.797 -302.751,25.635c-132.516,20.106 -262.995,52.777 -401.629,58.809c-137.106,6.032 -339.959,-15.833 -476.554,19.854c33.639,2.514 110.091,7.54 209.989,11.561c196.228,-7.791 390.415,-1.257 580.528,-39.709c158.512,-32.168 332.312,-68.61 505.604,-56.295c189.604,13.32 366.971,69.615 552.496,94.496c1.021,0.251 2.042,0.251 3.058,0.251l-5.604,-52.525c-18.858,-1.76 -37.208,-4.273 -55.558,-6.535Z" style="fill:#361500;fill-rule:nonzero;"/><path d="M1777.77,91.481c-554.533,7.288 -1111.62,30.912 -1663.6,44.735c-20.897,-19.1 -47.91,-52.275 -73.904,-84.946c-11.213,0.251 -30.581,1.005 -40.265,1.256l13.252,126.917c17.839,-2.513 38.226,-4.272 58.613,-6.785c248.215,-31.918 507.135,-13.572 758.918,-30.159c85.625,-5.78 169.213,-3.77 255.35,-7.288c226.809,-9.048 453.109,-23.122 681.446,-24.63c11.721,0 55.046,0.503 103.463,1.508l-1.017,-24.881c-42.304,2.262 -78.492,4.022 -92.254,4.273Z" style="fill:#361500;fill-rule:nonzero;"/><path d="M1651.88,192.261c0.508,-0 0.508,-0 0,-0c38.738,6.785 141.692,13.571 242.609,18.346l-0.509,-4.524c0.509,-0.251 -125.891,-7.037 -242.1,-13.822Z" style="fill:#361500;fill-rule:nonzero;"/><path d="M194.19,86.706l1674.81,-47.249l-1.016,-17.592l-1673.8,64.841Z" style="fill:#361500;fill-rule:nonzero;"/><path d="M231.69,656.288l1674.81,-47.246l-1.016,-17.592l-1673.8,64.837Z" style="fill:#361500;fill-rule:nonzero;"/><path d="M680.425,300.077c39.754,-3.267 85.117,-10.304 146.279,-24.378c49.438,-11.058 125.892,-31.415 191.642,-40.965c27.012,-4.021 55.046,-7.289 83.587,-9.55c135.575,-11.059 263.505,-1.76 352.7,7.791c89.705,9.801 143.73,19.603 144.75,18.095c1.017,-1.508 -50.458,-14.074 -141.183,-26.137c-89.704,-12.064 -220.183,-22.62 -360.346,-11.31c-30.071,2.513 -58.612,5.78 -86.646,10.053c-69.825,10.555 -144.237,31.164 -193.166,43.227c-60.655,14.828 -101.938,22.619 -140.675,27.394c-34.659,4.524 -55.555,5.278 -55.555,6.032c1.021,1.508 22.425,2.513 58.613,-0.252Z" style="fill:#462814;fill-rule:nonzero;"/><path d="M1539.75,315.156c65.75,3.519 106.013,7.037 107.033,5.529c0.509,-1.507 -38.737,-7.79 -104.483,-13.32c-68.808,-5.78 -154.946,-9.801 -259.937,-9.047c-203.875,1.256 -367.992,16.838 -366.971,19.854c1.016,3.016 165.646,-7.288 367.479,-8.545c104.996,-0.754 187.054,1.759 256.879,5.529Z" style="fill:#462814;fill-rule:nonzero;"/><path d="M1363.91,504.15c70.846,-9.55 112.642,-19.604 111.113,-21.113c-1.021,-1.508 -44.342,5.784 -115.188,13.321c-74.416,7.792 -166.158,13.571 -281.346,13.071c-111.62,-0.754 -212.537,-7.292 -285.42,-13.071c-72.888,-5.529 -117.738,-10.054 -118.25,-8.546c-1.529,3.017 177.371,31.667 403.67,32.926c116.209,0.754 211.517,-6.534 285.421,-16.588Z" style="fill:#462814;fill-rule:nonzero;"/><path d="M625.379,582.058c66.767,2.013 115.188,5.529 159.021,9.805c40.263,4.02 64.729,7.787 65.75,6.283c1.017,-1.508 -21.408,-7.792 -61.675,-14.075c-42.3,-6.533 -95.308,-11.563 -161.567,-13.571c-61.671,-1.762 -123.854,-0.754 -163.1,0.25c-41.791,1.004 -67.277,2.513 -67.277,4.021c0,1.508 25.486,3.017 67.277,4.021c41.796,1.004 98.879,1.258 161.571,3.266Z" style="fill:#462814;fill-rule:nonzero;"/><path d="M1833.33,546.121c42.3,-4.021 68.804,-6.033 68.804,-7.542c0,-1.508 -27.521,-2.512 -71.354,-0.25c-45.871,2.263 -101.425,7.542 -167.175,17.342c-128.441,19.1 -226.808,41.971 -224.771,44.987c2.038,3.013 104.484,-15.079 231.396,-33.929c67.279,-10.304 116.717,-16.083 163.1,-20.608Z" style="fill:#462814;fill-rule:nonzero;"/><path d="M1072.38,124.907c147.296,-6.535 244.138,-9.551 344.542,-10.807c88.175,-1.005 142.712,-0.252 143.221,-1.76c-0,-1.507 -54.534,-5.277 -143.221,-6.282c-95.821,-1.006 -204.379,1.256 -346.071,7.288l-0.513,-0c-134.554,5.78 -255.858,12.817 -343.525,17.09c-87.666,4.272 -142.2,6.534 -142.2,8.293c0,1.508 55.046,2.011 143.221,-0.251c105.504,-2.513 193.167,-7.037 344.546,-13.571Z" style="fill:#462814;fill-rule:nonzero;"/><path d="M97.349,1130.38l6.626,162.355c-0,-0 17.838,33.425 39.245,32.67c225.28,-6.029 1521.4,-75.141 1827.21,-85.446l37.904,-24.545l-29.237,-198.88l-35.679,-33.679c-0,0 -340.467,-26.891 -517.838,-12.816c241.079,-43.98 494.392,-28.9 494.392,-28.9l50.458,-236.242l-35.166,-33.175l-800.713,-2.013l-1097.05,-12.629l-37.501,22.934l19.368,158.333l31.6,29.154l3.058,1.004l22.936,218.146c0,0 25.484,30.913 41.285,31.921c96.329,5.275 417.429,-6.537 383.791,-5.029c-38.737,2.262 -404.688,16.837 -404.688,16.837Z" style="fill:#462814;fill-rule:nonzero;"/><path d="M135.062,1105.98l6.626,162.354c-0,0 1531.09,-41.216 1866.46,-52.779l-27.017,-257.1c0,0 -340.467,-26.892 -517.833,-12.817c241.079,-43.983 494.391,-28.904 494.391,-28.904l15.288,-269.412c-0,-0 -501.017,-2.767 -800.708,-2.013c-299.696,0.755 -1134.56,10.304 -1134.56,10.304l19.368,158.334l460.245,-0l-425.586,30.158l22.935,218.146c0,-0 464.322,24.879 425.584,26.892c-39.246,2.262 -405.196,16.837 -405.196,16.837Z" style="fill:#714121;fill-rule:nonzero;"/><path d="M106.01,980.821c489.807,-162.1 1434.76,-174.163 1857.28,-170.896l9.175,-162.354c-0,-0 -501.017,-2.767 -800.713,-2.013c-299.691,0.755 -1134.55,10.305 -1134.55,10.305l19.368,158.333l460.242,-0l-425.583,30.158l14.78,136.467Z" style="fill:#734425;fill-rule:nonzero;"/><path d="M1244.64,1060.24c-26.5,-0.505 -128.95,-5.784 -141.692,16.083c-10.7,18.346 73.396,20.354 120.796,20.104c15.8,0 27.525,-0.5 30.071,-0.5c192.662,-4.525 388.887,-4.525 580.529,-16.087c18.35,-1.005 100.917,-13.821 157.492,-21.863l-6.117,-56.046c-53.517,7.538 -120.796,15.584 -125.383,16.084c-204.892,22.116 -404.688,45.491 -615.696,42.225Z" style="fill:#361500;fill-rule:nonzero;"/><path d="M94.289,867.729l3.058,30.159c86.646,11.058 170.234,32.42 256.88,44.233c129.969,17.591 276.756,27.641 416.919,27.896c46.892,-0 92.762,-0.755 137.104,-3.017c317.025,-15.329 556.575,-81.929 888.379,-69.112c26.5,1.004 132.517,-12.317 145.259,-6.538c4.587,2.013 -9.175,12.821 -10.196,14.075c-3.567,4.021 -6.113,7.038 -8.154,10.054c20.9,0.754 34.15,1.254 34.15,1.254l15.291,-269.412c0,-0 -501.021,-2.767 -800.712,-2.013c-299.692,0.755 -1134.55,10.304 -1134.55,10.304l10.194,82.434c115.188,3.771 240.06,-9.55 349.132,-23.875c128.948,-16.838 257.389,-54.284 392.456,-53.784c258.917,1.005 510.7,61.071 770.129,61.071c37.208,0 297.146,-40.462 298.675,-38.45c2.546,2.763 -13.254,10.305 -15.8,11.813c-74.417,45.487 -178.9,68.608 -290.521,71.121c-230.375,4.775 -434.25,-31.667 -657.487,-29.15c-137.109,1.504 -285.934,11.054 -420.492,23.37c-61.16,5.53 -117.225,19.605 -179.406,21.613c-78.491,2.263 -161.06,5.529 -240.57,0.754l2.038,18.346c162.589,7.037 326.707,1.508 487.259,-12.313c72.883,-6.283 146.275,-17.845 220.179,-21.112c381.246,-18.096 790.521,77.408 1145.26,-24.879c15.8,-4.525 -11.212,18.596 -15.291,27.896c-8.154,18.85 -13.25,35.687 -14.78,55.037c-0.512,7.792 14.271,20.358 1.017,23.125c-135.575,27.142 -297.654,18.596 -439.854,33.425c-100.917,10.554 -197.246,29.654 -297.654,40.463c-227.317,24.125 -456.167,21.108 -685.013,2.512c-124.873,-10.304 -242.1,-36.946 -362.894,-57.3Z" style="fill:#361500;fill-rule:nonzero;"/><path d="M537.713,891.854c0.508,2.513 38.225,9.046 40.774,10.054c70.846,5.529 142.709,8.796 214.576,8.796c23.954,0 47.912,-0.25 71.866,-1.004c74.413,-2.263 147.809,-8.296 219.163,-19.354c15.291,-2.263 121.812,-12.817 115.696,-26.388c-7.134,-16.587 -100.405,-7.037 -119.263,-6.533c-153.925,5.529 -308.358,-8.296 -461.263,8.042c-14.783,1.508 -83.587,10.804 -81.55,26.387Z" style="fill:#361500;fill-rule:nonzero;"/><path d="M562.688,999.921c71.354,12.067 135.066,17.091 191.129,17.341c63.712,0.255 117.737,-6.029 163.1,-15.579c-241.588,0.5 -354.23,-1.762 -354.23,-1.762Z" style="fill:#361500;fill-rule:nonzero;"/><path d="M1274.2,824c-201.837,-45.742 -294.6,-46.496 -530.579,-11.812c246.683,-22.117 530.579,11.812 530.579,11.812Z" style="fill:#361500;fill-rule:nonzero;"/><path d="M279.304,1113.77c16.31,0.754 73.904,7.792 117.737,7.287c25.992,-0.25 47.401,-3.266 50.967,-12.062c2.55,-5.779 -4.587,-10.809 -15.291,-15.079c-119.264,5.025 -297.653,12.062 -297.653,12.062l0.51,8.546c67.788,-1.004 124.872,-1.508 143.73,-0.754Z" style="fill:#361500;fill-rule:nonzero;"/><path d="M163.098,1005.7c216.615,26.892 384.298,54.033 571.864,55.542l37.717,-0c92.759,-1.004 191.129,-8.796 302.75,-25.634c132.517,-20.108 262.996,-52.779 401.629,-58.812c137.105,-6.029 339.959,15.833 476.555,-19.854c-33.642,-2.513 -110.092,-7.538 -209.992,-11.558c-196.225,7.791 -390.417,1.254 -580.525,39.708c-158.513,32.167 -332.317,68.608 -505.608,56.296c-189.601,-13.321 -366.97,-69.617 -552.494,-94.496c-1.02,-0.254 -2.039,-0.254 -3.059,-0.254l5.607,52.529c18.858,1.758 37.207,4.271 55.555,6.533Z" style="fill:#361500;fill-rule:nonzero;"/><path d="M231.394,1176.85c554.535,-7.292 1111.62,-30.912 1663.6,-44.737c20.896,19.1 47.912,52.275 73.904,84.946c11.212,-0.25 30.583,-1.005 40.267,-1.255l-13.255,-126.916c-17.837,2.512 -38.224,4.271 -58.612,6.783c-248.217,31.917 -507.133,13.571 -758.917,30.158c-85.625,5.784 -169.212,3.771 -255.35,7.288c-226.808,9.05 -453.108,23.125 -681.445,24.633c-11.723,0 -55.046,-0.504 -103.466,-1.508l1.019,24.879c42.304,-2.262 78.491,-4.021 92.253,-4.271Z" style="fill:#361500;fill-rule:nonzero;"/><path d="M357.285,1076.08c-0.509,0 -0.509,0 0,0c-38.735,-6.787 -141.691,-13.575 -242.608,-18.35l0.51,4.525c-0.51,0.25 125.891,7.037 242.098,13.825Z" style="fill:#361500;fill-rule:nonzero;"/><path d="M1328.74,968.254c-39.759,3.271 -85.117,10.304 -146.279,24.379c-49.442,11.059 -125.892,31.417 -191.642,40.967c-27.013,4.021 -55.046,7.287 -83.588,9.55c-135.575,11.058 -263.508,1.758 -352.7,-7.792c-89.704,-9.8 -143.731,-19.604 -144.75,-18.096c-1.02,1.509 50.459,14.075 141.184,26.138c89.704,12.067 220.179,22.621 360.341,11.313c30.075,-2.517 58.617,-5.784 86.65,-10.055c69.825,-10.554 144.238,-31.162 193.167,-43.229c60.654,-14.825 101.938,-22.617 140.675,-27.391c34.658,-4.526 55.554,-5.28 55.554,-6.034c-1.021,-1.508 -22.425,-2.512 -58.612,0.25Z" style="fill:#462814;fill-rule:nonzero;"/><path d="M469.417,953.179c-65.751,-3.521 -106.016,-7.037 -107.035,-5.529c-0.51,1.504 38.735,7.788 104.485,13.317c68.808,5.783 154.941,9.804 259.937,9.05c203.875,-1.259 367.992,-16.838 366.971,-19.854c-1.017,-3.017 -165.646,7.287 -367.479,8.545c-104.996,0.75 -187.054,-1.762 -256.879,-5.529Z" style="fill:#462814;fill-rule:nonzero;"/><path d="M645.258,764.183c-70.846,9.55 -112.641,19.605 -111.112,21.113c1.021,1.508 44.341,-5.784 115.187,-13.321c74.413,-7.792 166.159,-13.571 281.346,-13.071c111.621,0.754 212.538,7.292 285.421,13.071c72.883,5.529 117.737,10.054 118.246,8.546c1.529,-3.017 -177.367,-31.667 -403.667,-32.925c-116.208,-0.754 -211.517,6.533 -285.421,16.587Z" style="fill:#462814;fill-rule:nonzero;"/><path d="M1383.79,686.275c-66.77,-2.012 -115.187,-5.529 -159.02,-9.804c-40.267,-4.021 -64.729,-7.788 -65.75,-6.279c-1.021,1.504 21.408,7.787 61.67,14.071c42.305,6.537 95.313,11.562 161.571,13.57c61.671,1.763 123.854,0.755 163.096,-0.25c41.796,-1.004 67.279,-2.512 67.279,-4.02c0,-1.509 -25.483,-3.017 -67.279,-4.021c-41.791,-1.005 -98.875,-1.259 -161.567,-3.267Z" style="fill:#462814;fill-rule:nonzero;"/><path d="M175.838,722.213c-42.303,4.02 -68.807,6.033 -68.807,7.541c0,1.509 27.523,2.513 71.356,0.25c45.871,-2.262 101.426,-7.542 167.176,-17.341c128.441,-19.1 226.808,-41.971 224.77,-44.988c-2.041,-3.012 -104.487,15.079 -231.396,33.929c-67.279,10.304 -116.718,16.084 -163.099,20.609Z" style="fill:#462814;fill-rule:nonzero;"/><path d="M936.792,1143.42c-147.296,6.538 -244.138,9.554 -344.546,10.808c-88.175,1.005 -142.709,0.25 -143.221,1.759c-0,1.508 54.537,5.279 143.221,6.283c95.821,1.008 204.383,-1.254 346.075,-7.287l0.512,-0c134.554,-5.78 255.859,-12.817 343.525,-17.092c87.663,-4.271 142.2,-6.533 142.2,-8.292c0,-1.508 -55.046,-2.012 -143.221,0.25c-105.504,2.513 -193.17,7.038 -344.545,13.571Z" style="fill:#462814;fill-rule:nonzero;"/><path d="M1911.82,1741.64l-6.625,162.35c-0,-0 -17.838,33.425 -39.246,32.675c-225.279,-6.034 -1521.4,-75.146 -1827.21,-85.45l-37.903,-24.546l29.238,-198.879l35.678,-33.68c-0,0 340.467,-26.891 517.835,-12.816c-241.078,-43.979 -494.39,-28.9 -494.39,-28.9l-50.458,-236.242l35.168,-33.175l800.71,-2.012l1097.05,-12.63l37.5,22.934l-19.367,158.333l-31.6,29.154l-3.058,1.004l-22.938,218.146c0,0 -25.483,30.913 -41.283,31.921c-96.329,5.275 -417.429,-6.537 -383.792,-5.029c38.738,2.262 404.688,16.842 404.688,16.842Z" style="fill:#462814;fill-rule:nonzero;"/><path d="M1874.1,1717.23l-6.625,162.354c0,0 -1531.09,-41.216 -1866.46,-52.775l27.014,-257.104c-0,0 340.467,-26.891 517.836,-12.816c-241.079,-43.98 -494.391,-28.9 -494.391,-28.9l-15.291,-269.417c0,-0 501.019,-2.767 800.711,-2.013c299.692,0.755 1134.55,10.305 1134.55,10.305l-19.371,158.333l-460.241,-0l425.583,30.158l-22.933,218.146c-0,0 -464.321,24.883 -425.584,26.892c39.242,2.262 405.196,16.837 405.196,16.837Z" style="fill:#714121;fill-rule:nonzero;"/><path d="M1903.15,1592.07c-489.804,-162.1 -1434.75,-174.163 -1857.28,-170.896l-9.174,-162.354c0,-0 501.019,-2.763 800.71,-2.013c299.696,0.754 1134.56,10.309 1134.56,10.309l-19.367,158.329l-460.246,-0l425.588,30.158l-14.784,136.467Z" style="fill:#734425;fill-rule:nonzero;"/><path d="M764.521,1671.49c26.504,-0.505 128.95,-5.784 141.692,16.083c10.704,18.346 -73.392,20.358 -120.792,20.104c-15.8,0 -27.525,-0.5 -30.075,-0.5c-192.659,-4.525 -388.886,-4.525 -580.526,-16.087c-18.349,-1.005 -100.917,-13.821 -157.492,-21.863l6.116,-56.046c53.517,7.542 120.795,15.584 125.382,16.084c204.892,22.116 404.687,45.491 615.695,42.225Z" style="fill:#361500;fill-rule:nonzero;"/><path d="M1914.88,1478.98l-3.058,30.159c-86.646,11.058 -170.234,32.42 -256.879,44.233c-129.967,17.591 -276.755,27.641 -416.921,27.896c-46.888,-0 -92.759,-0.755 -137.104,-3.017c-317.021,-15.329 -556.571,-81.929 -888.375,-69.112c-26.504,1.004 -132.518,-12.317 -145.26,-6.534c-4.587,2.009 9.174,12.817 10.194,14.071c3.568,4.021 6.116,7.038 8.155,10.054c-20.897,0.754 -34.149,1.259 -34.149,1.259l-15.29,-269.417c-0,-0 501.016,-2.767 800.712,-2.013c299.692,0.755 1134.55,10.305 1134.55,10.305l-10.192,82.433c-115.187,3.771 -240.062,-9.55 -349.133,-23.875c-128.95,-16.838 -257.387,-54.284 -392.454,-53.784c-258.921,1.005 -510.704,61.071 -770.129,61.071c-37.209,0 -297.147,-40.462 -298.676,-38.45c-2.548,2.763 13.252,10.305 15.8,11.813c74.414,45.487 178.899,68.608 290.517,71.121c230.38,4.775 434.25,-31.667 657.492,-29.15c137.104,1.508 285.933,11.058 420.488,23.371c61.162,5.529 117.229,19.604 179.408,21.612c78.492,2.263 161.058,5.529 240.571,0.754l-2.038,18.346c-162.591,7.038 -326.708,1.508 -487.258,-12.313c-72.883,-6.283 -146.279,-17.845 -220.183,-21.112c-381.242,-18.096 -790.517,77.408 -1145.26,-24.879c-15.8,-4.525 11.213,18.596 15.29,27.896c8.155,18.85 13.252,35.687 14.781,55.037c0.51,7.792 -14.271,20.359 -1.019,23.125c135.575,27.142 297.653,18.596 439.857,33.425c100.916,10.554 197.246,29.654 297.654,40.463c227.317,24.125 456.167,21.112 685.012,2.512c124.871,-10.304 242.1,-36.946 362.892,-57.3Z" style="fill:#361500;fill-rule:nonzero;"/><path d="M1471.45,1503.1c-0.512,2.513 -38.229,9.05 -40.775,10.054c-70.846,5.53 -142.712,8.796 -214.575,8.796c-23.958,0 -47.912,-0.25 -71.866,-1.004c-74.413,-2.263 -147.809,-8.296 -219.163,-19.354c-15.292,-2.263 -121.817,-12.817 -115.7,-26.388c7.138,-16.587 100.408,-7.037 119.267,-6.533c153.925,5.529 308.358,-8.296 461.262,8.042c14.779,1.508 83.588,10.808 81.55,26.387Z" style="fill:#361500;fill-rule:nonzero;"/><path d="M1446.48,1611.17c-71.358,12.067 -135.067,17.092 -191.133,17.342c-63.708,0.254 -117.738,-6.03 -163.096,-15.58c241.588,0.5 354.229,-1.762 354.229,-1.762Z" style="fill:#361500;fill-rule:nonzero;"/><path d="M734.963,1435.25c201.833,-45.742 294.595,-46.496 530.579,-11.813c-246.688,-22.116 -530.579,11.813 -530.579,11.813Z" style="fill:#361500;fill-rule:nonzero;"/><path d="M1729.86,1725.02c-16.313,0.754 -73.905,7.792 -117.738,7.287c-25.996,-0.25 -47.4,-3.266 -50.967,-12.062c-2.55,-5.779 4.584,-10.809 15.288,-15.079c119.267,5.025 297.654,12.062 297.654,12.062l-0.508,8.546c-67.788,-1.004 -124.871,-1.508 -143.729,-0.754Z" style="fill:#361500;fill-rule:nonzero;"/><path d="M1846.07,1616.95c-216.613,26.892 -384.3,54.034 -571.863,55.542l-37.716,-0c-92.763,-1.004 -191.13,-8.796 -302.751,-25.633c-132.516,-20.109 -262.995,-52.78 -401.629,-58.813c-137.106,-6.029 -339.959,15.833 -476.554,-19.854c33.639,-2.513 110.091,-7.538 209.989,-11.558c196.228,7.791 390.415,1.254 580.528,39.708c158.512,32.167 332.312,68.608 505.604,56.296c189.604,-13.321 366.971,-69.617 552.496,-94.496c1.021,-0.254 2.042,-0.254 3.058,-0.254l-5.604,52.529c-18.858,1.758 -37.208,4.271 -55.558,6.533Z" style="fill:#361500;fill-rule:nonzero;"/><path d="M1777.77,1788.1c-554.533,-7.287 -1111.62,-30.912 -1663.6,-44.737c-20.897,19.1 -47.91,52.275 -73.904,84.946c-11.213,-0.25 -30.581,-1.005 -40.265,-1.255l13.252,-126.916c17.839,2.512 38.226,4.271 58.613,6.783c248.215,31.921 507.135,13.571 758.918,30.158c85.625,5.784 169.213,3.771 255.35,7.292c226.809,9.046 453.109,23.121 681.446,24.629c11.721,0 55.046,-0.504 103.463,-1.508l-1.017,24.879c-42.304,-2.262 -78.492,-4.021 -92.254,-4.271Z" style="fill:#361500;fill-rule:nonzero;"/><path d="M1651.88,1687.33c0.508,0 0.508,0 0,0c38.738,-6.787 141.692,-13.571 242.609,-18.346l-0.509,4.521c0.509,0.254 -125.891,7.038 -242.1,13.825Z" style="fill:#361500;fill-rule:nonzero;"/><path d="M680.425,1579.51c39.754,3.267 85.117,10.305 146.279,24.375c49.438,11.059 125.892,31.417 191.642,40.967c27.012,4.021 55.046,7.287 83.587,9.55c135.575,11.058 263.505,1.758 352.7,-7.792c89.705,-9.8 143.73,-19.604 144.75,-18.095c1.017,1.508 -50.458,14.074 -141.183,26.137c-89.704,12.067 -220.183,22.621 -360.346,11.313c-30.071,-2.517 -58.612,-5.784 -86.646,-10.055c-69.825,-10.554 -144.237,-31.162 -193.166,-43.229c-60.655,-14.825 -101.938,-22.616 -140.675,-27.391c-34.659,-4.525 -55.555,-5.28 -55.555,-6.034c1.021,-1.508 22.425,-2.512 58.613,0.254Z" style="fill:#462814;fill-rule:nonzero;"/><path d="M1539.75,1564.43c65.75,-3.521 106.013,-7.037 107.033,-5.529c0.509,1.508 -38.737,7.787 -104.483,13.317c-68.808,5.783 -154.946,9.804 -259.937,9.05c-203.875,-1.259 -367.992,-16.838 -366.971,-19.855c1.016,-3.016 165.646,7.288 367.479,8.546c104.996,0.755 187.054,-1.762 256.879,-5.529Z" style="fill:#462814;fill-rule:nonzero;"/><path d="M1363.91,1375.43c70.846,9.55 112.642,19.605 111.113,21.113c-1.021,1.508 -44.342,-5.779 -115.188,-13.321c-74.416,-7.792 -166.158,-13.571 -281.346,-13.067c-111.62,0.755 -212.537,7.288 -285.42,13.067c-72.888,5.529 -117.738,10.054 -118.25,8.546c-1.529,-3.017 177.371,-31.667 403.67,-32.925c116.209,-0.754 211.517,6.537 285.421,16.587Z" style="fill:#462814;fill-rule:nonzero;"/><path d="M625.379,1297.53c66.767,-2.013 115.188,-5.529 159.021,-9.8c40.263,-4.025 64.729,-7.792 65.75,-6.283c1.017,1.508 -21.408,7.787 -61.675,14.07c-42.3,6.538 -95.308,11.563 -161.567,13.571c-61.671,1.763 -123.854,0.755 -163.1,-0.25c-41.791,-1.004 -67.277,-2.512 -67.277,-4.021c0,-1.508 25.486,-3.016 67.277,-4.02c41.796,-1.005 98.879,-1.259 161.571,-3.267Z" style="fill:#462814;fill-rule:nonzero;"/><path d="M1833.33,1333.46c42.3,4.02 68.804,6.033 68.804,7.541c0,1.509 -27.521,2.513 -71.354,0.25c-45.871,-2.262 -101.425,-7.537 -167.175,-17.341c-128.441,-19.101 -226.808,-41.971 -224.771,-44.988c2.038,-3.012 104.484,15.079 231.396,33.929c67.279,10.304 116.717,16.088 163.1,20.609Z" style="fill:#462814;fill-rule:nonzero;"/><path d="M1072.38,1754.68c147.296,6.534 244.138,9.55 344.542,10.804c88.175,1.005 142.712,0.25 143.221,1.759c-0,1.508 -54.534,5.279 -143.221,6.283c-95.821,1.008 -204.379,-1.254 -346.071,-7.287l-0.513,-0c-134.554,-5.78 -255.858,-12.817 -343.525,-17.088c-87.666,-4.275 -142.2,-6.538 -142.2,-8.296c0,-1.508 55.046,-2.008 143.221,0.25c105.504,2.517 193.167,7.038 344.546,13.575Z" style="fill:#462814;fill-rule:nonzero;"/><path d="M1185.42,2462.92c-0,-0 27.083,-77.917 2.083,-89.584c-25.417,-11.666 -19.583,70 -19.583,70c-0,0 -27.084,-53.333 -51.667,-31.25c-24.167,22.5 29.167,55.417 29.167,55.417l40,-4.583Z" style="fill:#c9e39a;fill-rule:nonzero;"/></svg>