<svg width="95" height="121" viewBox="0 0 95 121" fill="none" xmlns="http://www.w3.org/2000/svg">
<g clip-path="url(#clip0_14_3382)">
<path d="M39.4563 6.16698C40.2306 6.03595 40.8588 5.58762 41.5606 5.29188C43.8594 4.29864 46.2493 3.69139 48.7527 3.4964C49.1002 3.4642 49.4456 3.45626 49.792 3.43619C49.9947 3.36757 50.218 3.49597 50.4227 3.40311C51.2298 3.47011 52.0247 3.5361 52.8318 3.60311C53.0531 3.75576 53.3342 3.63261 53.5697 3.76203C56.3868 4.38653 58.91 5.58478 61.0783 7.49819C61.4567 7.83478 61.8096 8.18147 62.188 8.51806C62.2686 8.58578 62.3614 8.65452 62.3768 8.76566C62.4015 9.06069 62.2571 9.31725 62.1616 9.57788C60.4755 13.8691 59.3195 18.3019 58.4875 22.8349C58.0863 24.9988 57.8429 27.1881 57.4773 29.3672C57.447 29.5844 57.4279 29.8148 57.3129 30.0128C57.2142 30.1633 57.0604 30.2359 56.8882 30.2338C56.3755 30.0326 56.0693 29.5677 55.7184 29.1968C54.833 28.2932 53.9334 27.4128 52.9258 26.6456C50.7649 24.9403 48.3567 23.6906 45.7432 22.8388C44.2939 22.4988 42.8598 22.1234 41.3679 21.9995C37.1959 21.6776 33.2512 22.4731 29.4757 24.1983C28.3105 24.7363 27.1872 25.3633 26.1088 26.0428C25.9011 26.172 25.6933 26.3012 25.4335 26.3163C25.2623 26.3021 25.1074 26.2404 25.0084 26.0979C24.8948 25.6856 25.0259 25.2937 25.1192 24.9108C26.5736 19.2576 29.4024 14.4021 33.6667 10.3494C35.1102 8.98 36.7068 7.84302 38.3717 6.77274C38.6996 6.53141 39.1367 6.45783 39.4563 6.16698Z" fill="#6485F7"/>
<path d="M57.1621 30.0491C58.041 22.7246 59.4153 15.5144 62.2635 8.6464C62.5466 8.499 62.8596 8.73251 63.1418 8.59724C63.6319 8.62573 64.1211 8.66634 64.6112 8.69483C64.8975 8.65756 65.1788 8.68091 65.4428 8.76386C65.8942 8.81355 66.3345 8.8501 66.7859 8.89979C67.0072 9.05243 67.2883 8.92929 67.5116 9.05769C69.6529 9.51623 71.717 10.1637 73.5921 11.3081C76.6642 13.1623 78.8343 15.7961 80.3406 19.0095C81.2086 20.8638 81.8108 22.8059 82.2602 24.8085C82.3144 25.0449 82.3809 25.2824 82.5248 25.4774C82.962 26.588 83.0366 27.766 83.1621 28.9239C83.5139 32.1025 83.5691 35.2932 83.4389 38.4928C83.3605 40.476 83.172 42.4501 83.0323 44.4283C82.9832 45.1688 82.8474 45.9144 82.6158 46.6276C82.5741 46.6852 82.5211 46.7296 82.458 46.7488C82.0472 46.6536 82.0408 46.2869 81.9671 45.9878C81.3216 43.5294 80.4479 41.1498 79.1658 38.9437C76.5148 34.3901 72.6225 31.589 67.3952 30.6301C65.5393 30.2929 63.6765 30.1871 61.7854 30.2742C60.4149 30.3191 59.065 30.5611 57.6945 30.606C57.4458 30.4877 57.2367 30.336 57.1621 30.0491Z" fill="#4C77FE"/>
<path d="M39.4562 6.16698C39.2264 6.70944 38.6396 6.8072 38.2109 7.07678C34.8097 9.18699 32.0235 11.8976 29.7332 15.162C27.6097 18.1962 26.1387 21.5287 25.2141 25.1018C25.139 25.4129 25.2086 25.7605 24.9888 26.0352C24.8688 26.2938 24.6591 26.4473 24.4136 26.5856C24.3128 26.6139 24.2272 26.6068 24.1294 26.5987C22.778 26.4132 21.4196 26.3127 20.0582 26.2485C18.28 26.1619 16.5091 26.2834 14.7743 26.7131C11.5062 27.516 9.49275 29.5217 8.88377 32.8525C8.84119 33.0687 8.8343 33.3001 8.67246 33.4697C8.60628 33.5253 8.55737 33.5212 8.48802 33.4666C8.50599 33.1019 8.53618 32.7382 8.55415 32.3735C8.55641 31.6046 8.61982 30.8408 8.74337 30.0943C8.78579 29.7316 8.82822 29.3689 8.85741 29.0173C8.9958 28.8335 8.89263 28.593 9.00657 28.4071C9.79143 23.6993 11.9251 19.6528 15.2026 16.214C17.6852 13.6003 20.6464 11.6 23.9585 10.1172C28.6406 8.00344 33.5753 6.85063 38.6809 6.31014C38.9417 6.28296 39.1933 6.2184 39.4562 6.16698Z" fill="#4C77FE"/>
<path d="M47.8319 107.876C46.8194 109.244 45.7509 110.547 44.4396 111.659C42.7831 113.072 40.9236 114.114 38.8578 114.821C38.4901 114.949 38.1336 115.09 37.7781 115.22C37.398 115.2 37.0609 115.404 36.687 115.459C33.2101 116.256 29.9263 115.618 26.8931 113.889C21.2375 110.673 18.6563 105.576 18.4012 99.3043C18.1805 93.805 20.129 89.0229 24.0633 85.0893C25.6472 83.5118 27.475 82.2598 29.6059 81.5089C29.9776 81.3323 30.3964 81.3304 30.759 81.1164C31.1113 80.8771 31.5455 80.9864 31.9274 80.835C32.517 80.4078 33.2355 80.5041 33.8977 80.3882C34.4947 80.3157 35.0815 80.2179 35.6767 80.3162C36.0374 80.2729 36.386 80.375 36.7416 80.3924C37.7148 80.3877 38.6595 80.576 39.582 80.8845C39.9326 80.9625 40.265 81.1121 40.6126 81.2264C41.4841 81.5551 42.314 81.9414 43.1113 82.4226C43.4132 82.643 43.7557 82.8179 44.0708 83.0272C44.3941 83.286 44.7286 83.5579 45.0519 83.8167C45.3487 84.0977 45.7371 84.313 45.8476 84.7616C49.3668 88.3497 50.9517 92.6927 50.9711 97.6504C50.9658 98.4556 50.8993 99.2558 50.7718 100.051C50.3161 102.869 49.3131 105.46 47.8319 107.876Z" fill="#FED871"/>
<path d="M82.5006 46.6791C82.8347 44.5828 83.0109 42.4612 83.1259 40.3345C83.2679 37.734 83.3355 35.1395 83.2075 32.5288C83.0952 30.3222 82.8698 28.1428 82.4956 25.9755C82.472 25.8149 82.3282 25.6198 82.5135 25.4643C86.6338 29.0779 88.9741 33.6667 90.0362 38.9673C90.4623 41.1023 90.6031 43.2624 90.7429 45.4346C90.8338 45.6741 90.6639 45.9408 90.7793 46.1823C90.7714 46.4258 90.7645 46.6571 90.7444 46.8996C90.8242 47.2724 90.6331 47.6472 90.7374 48.0221C90.5975 49.7072 90.4576 51.3924 90.3187 53.0654C90.1509 53.4543 90.2625 53.8909 90.1314 54.2828C90.093 54.597 90.0546 54.9112 90.0152 55.2375C89.8728 55.4698 89.9729 55.7467 89.8682 55.9699C89.8359 56.2114 89.8045 56.4407 89.7722 56.6822C89.6643 56.7953 89.748 56.9731 89.6279 57.0852C89.3476 57.0498 89.3545 56.8184 89.3329 56.6335C89.0612 55.0118 88.2905 53.6173 87.313 52.3398C86.2784 51.0088 85.1633 49.7566 83.8885 48.6498C83.5386 48.2667 83.0655 48.0321 82.7431 47.6147C82.7468 47.2732 82.6365 46.9711 82.5006 46.6791Z" fill="#2E5CF7"/>
<path d="M5.5308 46.9906C5.56602 46.5663 5.60125 46.142 5.63648 45.7176C5.76365 45.5207 5.67271 45.2812 5.77442 45.0943C5.7957 44.9862 5.81699 44.8781 5.83828 44.77C5.96545 44.5731 5.86228 44.3326 5.98945 44.1356L6.02513 44.1508C6.3069 42.6849 7.1066 41.5062 8.07147 40.4144C8.26079 40.2104 8.42968 39.9559 8.78129 40.0217C9.05551 40.1299 9.15867 40.3704 9.29953 40.6018C11.7758 44.7381 14.2002 48.9066 16.6765 53.0429C16.8816 53.3895 17.1245 53.7271 17.1392 54.1433C16.9424 55.0303 16.5193 55.8253 16.1789 56.6637C16.0996 56.8768 15.9163 57.0081 15.7106 57.1131C15.5558 57.1979 15.4112 57.308 15.238 57.318C13.9499 57.2599 12.8122 56.726 11.6877 56.181C9.16755 54.9464 7.26425 53.1038 6.18656 50.5119C5.80657 49.6014 5.56612 48.6415 5.57528 47.6413C5.49557 47.4149 5.63698 47.1947 5.5308 46.9906Z" fill="#0B3A9F"/>
<path d="M8.59609 33.5C8.7921 31.8805 9.25011 30.3683 10.3167 29.0896C11.6021 27.5484 13.3172 26.7631 15.2457 26.3738C18.1645 25.7739 21.0974 26.0418 24.0252 26.3703C24.0986 26.3764 24.1669 26.4431 24.2383 26.4734C22.5985 27.2406 21.2333 28.409 19.8139 29.4875C16.5945 31.9302 13.6126 34.6245 10.9583 37.6756C10.4677 38.2452 10.0465 38.8695 9.46417 39.3582C9.25225 39.3895 9.07386 39.3136 8.92495 39.1792C8.452 38.0535 8.3275 36.8835 8.46484 35.6742C8.47762 35.2236 8.50263 34.774 8.51542 34.3234C8.48965 34.0405 8.51179 33.7738 8.59609 33.5Z" fill="#1442C0"/>
<path d="M29.7333 81.605C23.9328 84.1386 20.4382 88.5603 19.0464 94.646C17.9072 99.6173 18.6865 104.321 21.4697 108.617C23.717 112.099 26.9311 114.319 31.0019 115.267C32.9109 115.707 34.8479 115.66 36.7796 115.381C36.9049 115.355 36.9253 115.405 36.8918 115.512C30.2453 117.707 22.8374 114.834 19.3675 108.576C15.9404 102.396 16.2234 96.1694 19.4095 89.9764C20.0258 88.7824 20.8174 87.7007 21.6896 86.6867C21.8118 86.5503 21.9686 86.4413 21.9857 86.2352C22.5873 85.6626 23.1665 85.0637 23.814 84.5315C25.5448 83.1127 27.4706 82.0153 29.6403 81.3897C29.7351 81.4342 29.8045 81.4888 29.7333 81.605Z" fill="#FEA800"/>
<path d="M83.9507 48.4962C84.7971 49.128 85.5081 49.9073 86.2059 50.6976C87.2434 51.8458 88.177 53.0585 88.8601 54.4702C89.2594 55.2968 89.4315 56.19 89.6291 57.0731C89.7097 57.1409 89.6904 57.2247 89.6467 57.3065C89.6396 57.3914 89.6326 57.4763 89.6255 57.5611C89.6605 57.8814 89.6333 58.2087 89.546 58.5189C89.0926 60.5686 87.849 62.0523 86.2056 63.3075C85.4033 63.9245 84.5142 64.4 83.6915 64.9664C83.391 65.0269 83.296 64.8359 83.2041 64.6086C83.1035 63.8922 83.3687 63.2184 83.4638 62.5183C83.7379 60.5513 83.901 58.5873 83.954 56.6142C84.0227 54.1541 83.8949 51.6898 83.7171 49.2337C83.6913 48.9508 83.7012 48.683 83.9507 48.4962Z" fill="#0B3A9F"/>
<path d="M70.7085 74.6674C69.5283 74.4962 68.3522 74.2764 67.2289 73.8658C67.2559 73.392 67.7022 73.3558 67.9975 73.2094C70.3237 72.0353 72.6508 70.8491 74.9769 69.6751C77.4701 68.4172 79.952 67.1462 82.4564 65.9015C82.6489 65.8076 82.8707 65.5086 83.1268 65.8351C82.8517 66.7766 82.6611 67.7373 82.3248 68.6738C80.8545 72.7387 77.9475 74.8289 73.572 74.8807C73.5109 74.8756 73.4477 74.8948 73.3866 74.8897C73.0861 74.9502 72.7772 74.8147 72.4746 74.8995C72.2218 74.8296 71.9783 74.7972 71.7164 74.8365C71.3963 74.6879 71.0306 74.7918 70.7085 74.6674Z" fill="#1442C0"/>
<path d="M16.5485 59.6241C17.3503 60.4963 17.9689 61.4998 18.6536 62.4478C19.9801 64.2669 21.2934 66.0971 22.6057 67.9395C22.7159 68.0951 22.9137 68.2336 22.8325 68.471C21.7986 67.8725 20.8889 67.1133 20.0749 66.2401C18.3438 64.3996 17.2706 62.1987 16.508 59.816C16.4905 59.7291 16.4457 59.6766 16.5485 59.6241Z" fill="#1542C0"/>
<path d="M9.00446 39.1125C8.54309 39.3305 8.5149 39.67 8.76496 40.0692C8.15599 40.4337 7.79894 41.0266 7.38477 41.5659C6.79049 42.3467 6.45518 43.271 6.02707 44.1265C6.04318 43.9326 6.04806 43.7255 6.06416 43.5315C6.20256 43.3477 6.09839 43.1193 6.2011 42.9203C6.62035 40.3916 7.45956 37.9955 8.46695 35.6499C8.67806 36.8149 8.71595 37.9899 9.00446 39.1125Z" fill="#2E5CF7"/>
<path d="M29.7334 81.605C29.7028 81.5292 29.6711 81.4655 29.6405 81.3897C30.0174 81.299 30.3811 81.2193 30.758 81.1285C30.5159 81.5234 30.0563 81.4243 29.7334 81.605Z" fill="#FAB321"/>
<path d="M36.8808 115.499C36.8471 115.46 36.8012 115.419 36.7685 115.368C37.0976 115.261 37.3979 115.054 37.767 115.206C37.4746 115.316 37.1843 115.402 36.8808 115.499Z" fill="#FEBD35"/>
<path d="M45.8306 22.6752C48.277 23.4642 50.5209 24.6149 52.5727 26.1524C52.7348 26.2757 52.8827 26.4223 53.0326 26.5446C53.0932 27.0013 52.8653 27.373 52.6976 27.7619C47.9682 38.3067 44.303 49.2329 41.1657 60.325C40.2621 63.4971 39.4543 66.7015 38.6587 69.9069C38.5654 70.2898 38.5424 70.7152 38.186 71.003C37.0266 71.1753 35.8674 71.4941 34.6921 71.1157C34.4095 70.8115 34.3806 70.4185 34.3007 70.0456C33.0892 64.1711 31.8533 58.2946 30.6418 52.4201C29.6494 47.6136 28.6449 42.806 27.6393 38.0106C27.5871 37.7499 27.5216 37.5004 27.556 37.2347C27.7695 36.7397 28.2032 36.4095 28.5554 36.0237C30.3722 34.0139 32.3471 32.1759 34.4118 30.443C37.8123 27.6003 41.4688 25.084 45.3438 22.9033C45.4873 22.8054 45.6738 22.7842 45.8306 22.6752Z" fill="#1442C0"/>
<path d="M38.1412 70.9505C38.6131 69.122 39.1105 67.2834 39.5702 65.4539C40.3871 62.1403 41.3354 58.8743 42.297 55.5972C43.5826 51.2362 45.0006 46.9105 46.5257 42.6304C47.6484 39.4888 48.7956 36.3491 50.109 33.2843C50.9944 31.2216 51.8686 29.1457 52.7418 27.082C52.819 26.8931 52.8606 26.689 53.0316 26.5567C54.447 27.602 55.6751 28.827 56.7943 30.1772C56.9282 30.4935 56.7817 30.7743 56.6842 31.0592C55.4926 34.5858 54.3122 38.1255 53.1195 41.6642C50.2669 50.0699 47.4622 58.4919 44.6217 66.8986C43.9045 69.0119 43.1516 71.1101 42.4945 73.2406C42.395 73.5497 42.3311 73.874 42.0542 74.0951C41.7833 74.2436 41.5773 74.0556 41.3917 73.9181C40.3465 73.1599 39.3307 72.3432 38.3822 71.4587C38.2455 71.3253 38.0344 71.1979 38.1412 70.9505Z" fill="#0B3A9F"/>
<path d="M45.8305 22.6752C45.6678 23.0035 45.3255 23.1216 45.0282 23.2922C42.3906 24.8066 39.852 26.4635 37.4094 28.2993C35.6886 29.5969 34.0474 30.9743 32.4399 32.3912C30.9251 33.7302 29.5122 35.1755 28.1677 36.6874C28.0191 36.8459 27.8348 36.9893 27.675 37.1347C27.3671 36.9871 27.3424 36.6921 27.2911 36.4193C26.6501 33.3143 25.9978 30.1962 25.3567 27.0912C25.2942 26.8052 25.1716 26.5021 25.368 26.2132C26.701 25.4328 28.0004 24.6129 29.4202 23.974C32.5531 22.5739 35.8222 21.7589 39.2856 21.7168C41.5162 21.6945 43.691 22.0459 45.8305 22.6752Z" fill="#0B3A9F"/>
<path d="M42.8779 74.4077C45.2641 67.3182 47.6627 60.2297 50.0489 53.1402C52.549 45.7184 55.0358 38.3076 57.5359 30.8858C57.5836 30.7555 57.608 30.611 57.6435 30.4797C59.0403 30.266 60.4351 30.0767 61.8494 30.0964C62.1064 30.2642 62.2065 30.5411 62.2954 30.8048C64.3484 36.4807 66.0998 42.2291 67.02 48.2015C67.5913 51.85 67.8651 55.5226 67.6447 59.2153C67.6288 59.5558 67.5629 59.9043 67.5103 60.2417C67.2236 60.8771 66.6615 61.2699 66.1688 61.7173C63.81 63.8774 61.4635 66.0385 59.1058 68.1866C57.3996 69.7539 55.6934 71.3212 53.976 72.8754C52.5121 74.1943 51.0818 75.5526 49.6056 76.8705C49.3796 77.0715 49.1638 77.2977 48.8491 77.3814C48.4008 77.4419 48.0093 77.2629 47.6006 77.1435C46.0859 76.7004 44.677 76.0219 43.3138 75.2373C43.01 75.0412 42.6806 74.8552 42.8779 74.4077Z" fill="#0B3A9F"/>
<path d="M67.3311 60.3244C67.7945 55.1871 67.2543 50.1252 66.2312 45.0964C65.2981 40.4657 63.924 35.9571 62.2972 31.5252C62.1276 31.0472 61.9824 30.5713 61.826 30.0822C62.3455 29.9056 62.8918 29.9998 63.4084 30.0061C68.1406 30.106 72.499 31.2979 76.0291 34.6061C78.4861 36.8975 80.0715 39.7513 81.215 42.8858C81.6656 44.1317 82.0042 45.3927 82.354 46.6669C81.9991 47.382 81.324 47.8021 80.7529 48.304C77.9848 50.7963 75.2739 53.3423 72.5181 55.8356C70.9473 57.2555 69.3999 58.6896 67.8403 60.1226C67.7192 60.2468 67.5808 60.4306 67.3311 60.3244Z" fill="#1442C0"/>
<path d="M24.4462 26.4907C25.2183 30.2413 26.0027 33.993 26.7749 37.7436C26.8005 37.88 26.8129 38.0275 26.8263 38.1629C26.8582 38.5196 26.6404 38.77 26.4348 39.0215C23.5211 42.5272 21.0856 46.3533 18.9907 50.3786C18.6398 51.0453 18.3256 51.715 17.9982 52.3958C17.8945 52.6069 17.8367 52.8585 17.5708 52.9463C15.7876 49.954 14.0044 46.9617 12.2222 43.9573C11.3045 42.4041 10.3868 40.8508 9.48141 39.2986C9.99597 38.2915 10.845 37.5563 11.5676 36.713C12.9976 35.0617 14.5887 33.5459 16.2461 32.121C18.5531 30.1396 20.9478 28.2877 23.465 26.5923C23.7134 26.4177 23.9662 26.4875 24.226 26.4724C24.3116 26.4795 24.3728 26.4846 24.4462 26.4907Z" fill="#0B3A9F"/>
<path d="M27.8162 111.963C26.6174 111.424 25.6159 110.584 24.707 109.667C21.8999 106.846 20.5737 103.391 20.3689 99.4799C20.3524 99.2344 20.3593 99.003 20.355 98.7585C20.4703 97.9624 20.5 97.1592 20.5665 96.3591C20.5987 95.9711 20.6543 95.5973 20.7824 95.2417C20.8259 95.0134 20.7727 94.7649 20.9366 94.571C20.9863 94.4164 20.975 94.2568 21.0125 94.1012C21.1487 93.7951 21.2258 93.4597 21.3264 93.1385C21.4504 92.8314 21.5866 92.5253 21.6627 92.202C22.3328 90.805 23.0742 89.4384 24.0736 88.2274C24.1692 88.1132 24.2639 88.0112 24.3586 87.9092C26.6373 85.2298 29.4815 83.4517 32.9964 82.9379C37.035 82.3454 40.5843 83.4946 43.4892 86.3237C46.8267 89.5792 48.1545 93.6079 47.9085 98.2018C47.7405 101.264 46.8773 104.098 45.1507 106.652C42.7078 110.27 39.3976 112.62 34.982 113.303C33.0606 113.607 31.2149 113.295 29.3964 112.656C28.8592 112.453 28.3504 112.203 27.8162 111.963Z" fill="#FEA800"/>
<path d="M29.3903 112.582C30.0711 112.688 30.7306 112.901 31.4216 113.032C33.5068 113.425 35.5445 113.203 37.489 112.473C42.6349 110.557 45.7552 106.788 47.1703 101.607C48.1784 97.919 48.0004 94.2787 46.3847 90.7511C44.5914 86.8424 41.6703 84.2073 37.4141 83.268C33.6777 82.4451 30.2763 83.3712 27.1676 85.5179C26.1361 86.2258 25.2749 87.1064 24.425 88.0002C24.3139 88.0032 24.2548 87.9739 24.3026 87.8436C26.9293 84.6803 30.2767 82.7731 34.4369 82.4959C41.7801 81.9947 47.3899 87.2456 48.7968 93.881C49.8504 98.8391 48.8657 103.433 45.8425 107.515C43.2071 111.081 39.6561 113.215 35.1536 113.61C33.1322 113.784 31.1652 113.45 29.2844 112.671C29.2435 112.57 29.2608 112.511 29.3903 112.582Z" fill="#C87B00"/>
<path d="M24.278 87.8415C24.3229 87.8941 24.3555 87.9456 24.4004 87.9981C23.4265 89.199 22.5454 90.4686 21.9344 91.895C21.8887 92.001 21.796 92.0788 21.7136 92.1818C21.6565 92.1283 21.6605 92.0798 21.7144 92.0232C22.3222 90.4867 23.1655 89.0797 24.278 87.8415Z" fill="#CF8206"/>
<path d="M20.8515 95.1498C20.4951 96.3287 20.6625 97.5755 20.3549 98.7585C20.3944 97.5411 20.4085 96.3338 20.7405 95.1528C20.7832 95.0831 20.8199 95.0862 20.8515 95.1498Z" fill="#E69404"/>
<path d="M29.3901 112.582C29.3504 112.616 29.3107 112.649 29.2588 112.681C28.7573 112.493 28.2415 112.328 27.8152 111.976C28.3727 112.083 28.8804 112.345 29.3901 112.582Z" fill="#D58A0B"/>
<path d="M21.7135 92.0354C21.7095 92.0838 21.7177 92.1334 21.7126 92.194C21.7089 92.5355 21.5482 92.8395 21.3886 93.1314C21.3468 93.189 21.3101 93.186 21.2785 93.1223C21.3963 92.7414 21.4897 92.3586 21.7135 92.0354Z" fill="#D78F13"/>
<path d="M21.2784 93.1223C21.3151 93.1253 21.3518 93.1284 21.3885 93.1314C21.3002 93.4537 21.272 93.7931 21.0634 94.081C21.0155 94.0648 20.9941 94.0264 20.9991 93.9658C21.0966 93.6809 21.1942 93.396 21.2784 93.1223Z" fill="#D88B09"/>
<path d="M20.8515 95.1498C20.8148 95.1468 20.7659 95.1427 20.7292 95.1397C20.7463 94.9336 20.7278 94.7123 20.8906 94.5305C20.9456 94.4618 20.9823 94.4649 21.0129 94.5407C20.9102 94.7397 20.8686 94.9437 20.8515 95.1498Z" fill="#DA9013"/>
<path d="M21.012 94.5528C20.9753 94.5498 20.9264 94.5457 20.8897 94.5426C20.9302 94.3507 20.9708 94.1588 20.9991 93.9658C21.0206 94.0042 21.042 94.0426 21.0634 94.081C21.0504 94.2386 21.0373 94.3962 21.012 94.5528Z" fill="#D4890B"/>
<path d="M65.7537 73.3894C65.1931 73.1719 64.6446 72.9555 64.083 72.7502C63.9471 72.4581 64.1048 72.1904 64.2116 71.943C65.3258 69.4964 66.0671 66.9456 66.5922 64.3281C66.7595 63.4997 66.7453 62.6318 67.1776 61.8743C68.8848 60.2948 70.593 58.7032 72.3124 57.1248C75.791 53.9346 79.294 50.7464 82.7838 47.5693C83.2324 47.8018 83.6383 48.1041 83.9372 48.5073C83.8731 49.5762 84.0688 50.6301 84.1035 51.695C84.1468 53.1024 84.19 54.5098 84.1965 55.9141C84.2014 57.6357 83.9983 59.3401 83.8931 61.0525C83.8159 62.279 83.4462 63.469 83.3323 64.6925C83.052 64.657 82.8301 64.8095 82.5867 64.9236C77.0993 67.6906 71.6241 70.4587 66.1367 73.2258C66.0206 73.2894 65.8933 73.3399 65.7537 73.3894Z" fill="#1442C0"/>
<path d="M25.0634 69.6327C22.7766 66.4766 20.5021 63.3214 18.2153 60.1653C17.5531 59.2436 16.8776 58.333 16.2285 57.4002C16.053 57.1415 15.8572 56.9788 15.5362 56.9888C15.7419 56.8838 15.9589 56.7919 16.0544 56.5313C16.3572 55.7019 16.6957 54.8877 17.0107 54.0594C18.697 56.885 20.372 59.6974 22.0583 62.5229C23.5383 65.0139 25.0184 67.505 26.4975 70.0082C26.4459 70.3335 26.2113 70.1919 26.0411 70.1656C25.6651 70.0977 25.351 69.8763 25.0634 69.6327Z" fill="#1442C0"/>
<path d="M33.6976 71.082C32.1876 71.1764 30.7017 70.9798 29.2047 70.77C28.8276 70.7143 28.4383 70.6576 28.0602 70.614C27.9898 70.5715 27.892 70.5634 27.8603 70.4997C24.4724 64.7375 21.0713 58.9864 17.6834 53.2242C17.6293 53.1342 17.5996 53.0463 17.5578 52.9574C18.314 51.1159 19.2466 49.3744 20.2394 47.6502C22.0814 44.4462 24.1448 41.3949 26.5344 38.5659C26.6433 38.4407 26.7165 38.3003 26.8142 38.1619C27.3272 40.5848 27.8647 43.0098 28.3644 45.4439C30.133 53.9526 31.9015 62.4612 33.671 70.9577C33.6925 70.9961 33.6884 71.0446 33.6976 71.082Z" fill="#1442C0"/>
<path d="M30.4838 77.1629C30.5235 77.1295 30.5765 77.0851 30.6162 77.0518C30.913 77.3328 31.0285 77.7208 31.2072 78.0896C30.831 77.8753 30.7175 77.463 30.4838 77.1629Z" fill="#D4E3FE"/>
<path d="M67.1908 61.8631C66.892 64.5727 66.2783 67.2195 65.3271 69.7772C64.9603 70.7844 64.4987 71.747 64.084 72.738C61.3351 75 58.3329 76.7527 54.7702 77.3969C53.2451 77.6731 51.7014 77.7281 50.1614 77.4415C51.8941 75.852 53.6155 74.2493 55.3604 72.6607C59.2391 69.1009 63.1167 65.5532 67.0066 62.0065C67.0605 61.95 67.1247 61.9187 67.1908 61.8631Z" fill="#0B3A9F"/>
<path d="M9.00453 39.1125C9.15948 39.1742 9.32666 39.2369 9.4816 39.2986C9.80876 39.3624 9.89466 39.6625 10.0355 39.8939C12.5956 44.208 15.1291 48.5443 17.7024 52.8473C19.3591 55.7314 21.0811 58.5721 22.7633 61.4462C24.5547 64.488 26.3472 67.5177 28.1508 70.5605C29.9218 73.5517 31.6928 76.543 33.4516 79.5333C33.6466 79.8546 33.9424 80.1477 33.8572 80.5801C33.197 80.6718 32.549 80.7645 31.8898 80.844C30.7419 79.2473 29.5929 77.6626 28.4449 76.0658C27.1203 74.2225 24.4581 70.5469 24.4581 70.5469L22.8082 68.469C22.8082 68.469 20.6286 65.5048 19.5327 64.0222C18.7246 62.9297 17.146 60.7357 17.146 60.7357C17.146 60.7357 15.8895 58.666 15.5476 58.186C15.3487 57.9131 15.1854 57.6554 15.2145 57.3039C15.2419 57.123 15.3834 57.0493 15.525 56.9756C15.9152 56.8737 16.1874 57.0062 16.4068 57.3296C19.3314 61.4054 22.2702 65.458 25.1947 69.5338C26.6714 71.6217 28.2131 73.6662 29.6755 75.7774C29.9725 76.2049 30.2674 76.6566 30.5511 77.0952C30.6613 77.2508 30.7573 77.4297 30.9114 77.65C30.7593 77.4054 30.6379 77.2367 30.5297 77.0568C29.0173 74.8072 27.6993 72.4395 26.3427 70.093C23.9706 66.1851 21.6758 62.2348 19.3424 58.3057C18.7473 57.3164 17.0117 54.0473 17.0117 54.0473C17.0117 54.0473 13.7983 48.5559 12.1784 45.8213C11.0454 43.8962 9.89909 41.9822 8.76504 40.0692C8.54276 39.9287 8.4101 39.7467 8.48116 39.4841C8.56344 39.2346 8.70183 39.0507 9.00453 39.1125Z" fill="#FEFEFE"/>
<path d="M83.1145 65.8341C82.1519 66.157 81.2944 66.6961 80.3951 67.1464C76.1299 69.2825 71.8748 71.4439 67.6085 73.5922C67.467 73.6659 67.2927 73.688 67.2165 73.8648C66.1103 74.2857 65.0889 74.8722 64.0348 75.4073C59.1004 77.8907 54.1783 80.3751 49.2439 82.8585C48.2672 83.3512 47.2783 83.8428 46.3006 84.3476C46.1081 84.4415 45.8687 84.507 45.8221 84.7717C45.5243 84.5029 45.2275 84.2219 44.9297 83.953C44.9853 83.5792 45.3348 83.5228 45.5914 83.3976C48.3952 81.958 51.2214 80.5447 54.0364 79.1182C57.9299 77.1588 61.8122 75.1861 65.7057 73.2267C71.2441 70.4394 76.7844 67.6279 82.3349 64.8416C82.6435 64.6841 82.951 64.3923 83.3456 64.6814C83.4618 64.7643 83.5781 64.8472 83.6933 64.9422C83.7652 65.412 83.3812 65.5877 83.1145 65.8341Z" fill="#FEFEFE"/>
<path d="M25.356 26.2122C26.0379 29.4182 26.7066 32.6354 27.3886 35.8414C27.4756 36.2759 27.5749 36.7114 27.6752 37.1347C28.9297 43.2325 30.1975 49.3192 31.452 55.417C32.5344 60.6217 34.687 71.0299 34.687 71.0299C34.687 71.0299 36.1759 77.1227 36.7421 79.7942C36.7954 80.0428 36.8721 80.3055 36.7032 80.5601C36.3475 80.5427 35.9807 80.5123 35.625 80.495C35.4649 80.3474 35.3812 80.1695 35.3483 79.9715C34.7441 77.0161 34.0899 74.0687 33.5244 71.092C32.9595 68.7014 32.5066 66.2956 32.0038 63.8979C30.2773 55.6247 28.5641 47.3404 26.8375 39.0671C26.7761 38.7691 26.7768 38.4639 26.6654 38.1739C25.9179 34.5718 25.1836 30.9586 24.4105 27.3666C24.3481 27.0807 24.2377 26.7785 24.4463 26.4907C24.5306 26.2169 24.7159 26.0614 25.0022 26.0241C25.1195 26.0949 25.2377 26.1535 25.356 26.2122Z" fill="#FEFEFE"/>
<path d="M41.9218 74.0597C41.9218 74.0597 43.3512 69.8937 44.0542 67.8036C48.206 55.4652 52.3589 43.1146 56.5108 30.7762C56.5778 30.562 56.6917 30.3762 56.771 30.163C56.8973 30.1247 57.0236 30.0864 57.1377 30.047C57.367 30.1027 57.5129 30.2735 57.6069 30.4766C57.8325 30.8737 57.6178 31.2343 57.503 31.5788C56.8773 33.48 56.2271 35.3791 55.5769 37.2783C53.3247 43.9394 51.0837 50.6138 48.8437 57.2759C46.9654 62.8451 45.087 68.4143 43.2199 73.9966C43.1701 74.1511 43.1203 74.3057 43.0471 74.4461C42.4844 76.1816 41.885 77.9141 41.3223 79.6496C41.1922 80.0294 41.0622 80.4092 40.9321 80.7891C40.8519 81.0143 40.7828 81.2527 40.5496 81.3921C40.2092 81.3394 39.8983 81.2281 39.6037 81.0694C39.4271 80.8228 39.5227 80.5622 39.6049 80.3127C40.2419 78.4246 41.9218 74.0597 41.9218 74.0597Z" fill="#FEFEFE"/>
<path d="M67.3311 60.3245C69.5819 58.2775 71.8328 56.2304 74.0714 54.1824C76.6429 51.8324 79.2155 49.4703 81.788 47.1082C81.962 46.9395 82.1698 46.8103 82.3551 46.6548C82.404 46.6588 82.4529 46.6629 82.4896 46.666C82.9422 46.85 83.0536 47.14 82.7728 47.5562C82.7344 47.8704 82.5094 48.0592 82.2976 48.2369C80.5832 49.7548 78.9137 51.3251 77.2218 52.8692C75.5023 54.4477 73.7839 56.014 72.0635 57.6046C70.9437 58.6347 69.8361 59.6657 68.6928 60.6817C68.2011 61.1169 67.7675 61.5936 67.2656 62.0036C65.9533 63.1276 64.7093 64.3183 63.4307 65.4816C62.2182 66.5895 61.0057 67.6973 59.8045 68.8183C57.9904 70.4987 56.1651 72.166 54.3398 73.8334C52.9808 75.0755 51.6319 76.3429 50.2504 77.5588C49.0859 78.6828 47.8632 79.7654 46.664 80.8621C45.931 81.5337 45.2317 82.2447 44.4538 82.8637C44.296 82.9849 44.1821 83.1707 43.9477 83.1757C43.6154 83.026 43.3237 82.8309 43.0484 82.5883C42.9677 82.3741 43.1265 82.2408 43.2588 82.1297C44.9528 80.5614 48.9121 77.2158 48.9121 77.2158C48.9121 77.2158 54.1773 72.3794 56.816 69.9618C60.3445 66.7635 63.8373 63.5501 67.3311 60.3245Z" fill="#FEFEFE"/>
</g>
<defs>
<clipPath id="clip0_14_3382">
<rect width="85" height="114" fill="white" transform="translate(9.43188) rotate(4.74586)"/>
</clipPath>
</defs>
</svg>
