<svg width="138" height="170" viewBox="0 0 138 170" fill="none" xmlns="http://www.w3.org/2000/svg">
<g clip-path="url(#clip0_14_3274)">
<path d="M72.0992 11.7737C71.061 11.692 70.177 11.1712 69.2145 10.862C66.0586 9.81651 62.8293 9.29469 59.5001 9.33414C59.0375 9.3328 58.5804 9.36344 58.1206 9.37809C57.8446 9.31109 57.5654 9.50831 57.2838 9.40934C56.2262 9.59461 55.1847 9.77707 54.1272 9.96233C53.8535 10.1915 53.4674 10.0614 53.1721 10.2615C49.5283 11.4271 46.3422 13.32 43.7115 16.1207C43.2527 16.613 42.8288 17.1157 42.3701 17.6081C42.2719 17.7076 42.1577 17.81 42.1509 17.9595C42.154 18.3545 42.3758 18.6781 42.5336 19.013C45.2808 24.5132 47.3454 30.2649 48.9941 36.1882C49.7867 39.0154 50.3738 41.8951 51.121 44.7467C51.1875 45.0317 51.2407 45.3354 51.4165 45.5847C51.5651 45.7729 51.777 45.8512 52.0041 45.8278C52.6567 45.4993 53.0045 44.8452 53.4228 44.3105C54.4822 43.0044 55.5632 41.7275 56.8004 40.588C59.4467 38.0646 62.4746 36.1171 65.822 34.6738C67.6944 34.0492 69.5424 33.3794 71.4973 33.0369C76.9668 32.1117 82.2719 32.6983 87.4665 34.5401C89.0703 35.116 90.6296 35.815 92.136 36.5892C92.426 36.7362 92.7159 36.8831 93.0608 36.8721C93.2852 36.8328 93.4823 36.7324 93.5957 36.5313C93.6955 35.97 93.4749 35.4649 93.3052 34.9673C90.6985 27.6299 86.374 21.5161 80.2515 16.6402C78.1792 14.9929 75.9331 13.6727 73.6048 12.4492C73.1426 12.1677 72.5566 12.122 72.0992 11.7737Z" fill="#7960F7"/>
<path d="M51.62 45.615C49.5702 35.9884 46.8803 26.5729 42.2859 17.7876C41.8942 17.6255 41.5092 17.9731 41.1202 17.827C40.4765 17.9233 39.8356 18.0356 39.1918 18.1319C38.8093 18.1165 38.4407 18.1811 38.1022 18.3228C37.5122 18.4426 36.9353 18.5437 36.3453 18.6635C36.0716 18.8927 35.6855 18.7626 35.4063 18.9598C32.6345 19.8244 29.9877 20.9307 27.6509 22.6748C23.8196 25.5046 21.274 29.2627 19.6753 33.7117C18.7542 36.2788 18.1949 38.9309 17.8446 41.6452C17.8017 41.9658 17.7428 42.2892 17.5765 42.5655C17.1339 44.0931 17.1785 45.6672 17.1533 47.2205C17.0748 51.4856 17.3891 55.7313 17.9495 59.9668C18.2938 62.5924 18.7824 65.1927 19.2069 67.8043C19.3617 68.7823 19.6315 69.7567 20.0239 70.6766C20.086 70.7481 20.1613 70.8009 20.247 70.8188C20.7778 70.6434 20.7418 70.1554 20.8028 69.7492C21.3567 66.406 22.2213 63.1402 23.6464 60.0564C26.5939 53.6903 31.3932 49.5045 38.1788 47.6072C40.5884 46.9379 43.0352 46.5752 45.5428 46.4654C47.3578 46.3617 49.1695 46.5222 50.9845 46.4184C51.2986 46.2316 51.5562 46.0052 51.62 45.615Z" fill="#664CFE"/>
<path d="M72.099 11.7737C72.4682 12.4671 73.2549 12.527 73.8537 12.834C78.6008 15.2321 82.6087 18.5012 86.0291 22.5652C89.2013 26.3432 91.5482 30.5953 93.2028 35.2324C93.3397 35.6368 93.2899 36.1069 93.6135 36.4457C93.8033 36.775 94.0989 36.9539 94.4398 37.1084C94.5764 37.1339 94.6885 37.1142 94.8167 37.0918C96.5785 36.6843 98.3599 36.3887 100.15 36.141C102.487 35.8139 104.84 35.7642 107.183 36.1283C111.595 36.8053 114.498 39.23 115.706 43.5827C115.788 43.8649 115.826 44.1714 116.06 44.3775C116.154 44.4434 116.218 44.4322 116.303 44.3514C116.235 43.869 116.151 43.3894 116.083 42.9069C115.987 41.8857 115.81 40.8785 115.557 39.9013C115.456 39.4245 115.356 38.9477 115.275 38.4841C115.07 38.2564 115.177 37.9245 115.004 37.6912C113.396 31.53 110.088 26.4082 105.343 22.2302C101.747 19.0536 97.5948 16.7491 93.0414 15.174C86.6027 12.924 79.947 11.9808 73.1401 11.8715C72.7924 11.8665 72.4523 11.8107 72.099 11.7737Z" fill="#664CFE"/>
<path d="M73.3875 147.903C74.8905 149.601 76.4596 151.205 78.326 152.525C80.6846 154.205 83.2665 155.367 86.08 156.061C86.581 156.187 87.0689 156.333 87.554 156.462C88.0535 156.391 88.5233 156.622 89.0236 156.649C93.7114 157.295 97.9697 156.054 101.765 153.396C108.842 148.448 111.631 141.368 111.207 133.006C110.831 125.673 107.677 119.552 102.005 114.795C99.7221 112.888 97.1568 111.442 94.252 110.699C93.7397 110.509 93.1865 110.556 92.6818 110.315C92.1876 110.039 91.6275 110.236 91.1048 110.08C90.2745 109.583 89.3375 109.797 88.4491 109.722C87.652 109.697 86.8653 109.637 86.0913 109.838C85.6098 109.824 85.162 110.001 84.6945 110.066C83.409 110.176 82.1844 110.539 81.0038 111.059C80.5503 111.204 80.1297 111.443 79.6846 111.636C78.5737 112.177 77.5249 112.789 76.5305 113.523C76.1587 113.852 75.7277 114.125 75.3371 114.441C74.9416 114.823 74.5329 115.225 74.1375 115.607C73.7797 116.016 73.293 116.348 73.2015 116.957C68.9904 122.144 67.425 128.103 68.0013 134.692C68.106 135.762 68.2909 136.817 68.5559 137.858C69.4996 141.548 71.1385 144.87 73.3875 147.903Z" fill="#FEF371"/>
<path d="M20.182 70.7313C19.4863 67.986 18.9962 65.1882 18.5862 62.3764C18.083 58.9383 17.6787 55.4993 17.5308 52.0154C17.4112 49.0703 17.4442 46.1479 17.6751 43.2238C17.6868 43.0076 17.8531 42.7312 17.5896 42.5467C12.5878 47.8391 10.0549 54.2149 9.29593 61.3839C8.99252 64.2713 9.06885 67.158 9.14797 70.0608C9.05698 70.3898 9.31368 70.7238 9.19063 71.0585C9.23063 71.381 9.26782 71.6876 9.32383 72.0073C9.26364 72.5122 9.56157 72.9873 9.46933 73.4978C9.85864 75.7201 10.2479 77.9423 10.6345 80.1486C10.9031 80.6453 10.8089 81.2385 11.0295 81.7436C11.1183 82.1565 11.2072 82.5694 11.2988 82.9982C11.5151 83.2899 11.4165 83.6697 11.5818 83.9538C11.6539 84.2707 11.7231 84.5717 11.7951 84.8886C11.9513 85.026 11.8624 85.2723 12.0346 85.4069C12.4003 85.3264 12.3631 85.0198 12.3692 84.7716C12.5311 82.5846 13.3795 80.6399 14.5151 78.8261C15.7196 76.9343 17.0398 75.1376 18.5887 73.5151C19.0042 72.9644 19.6004 72.5963 19.9754 72.0033C19.929 71.5501 20.0381 71.1355 20.182 70.7313Z" fill="#4E2EF7"/>
<path d="M121.85 61.9669C121.752 61.4073 121.654 60.8478 121.556 60.2882C121.364 60.0417 121.455 59.7127 121.298 59.4765C121.257 59.3354 121.216 59.1944 121.174 59.0533C120.982 58.8068 121.089 58.4749 120.898 58.2284L120.852 58.2528C120.302 56.3389 119.103 54.8681 117.697 53.5327C117.422 53.2842 117.168 52.9662 116.712 53.0955C116.363 53.272 116.256 53.6038 116.098 53.9281C113.331 59.7188 110.636 65.5463 107.868 71.3371C107.639 71.822 107.36 72.2995 107.391 72.8543C107.758 74.0093 108.413 75.015 108.965 76.0883C109.095 76.3621 109.353 76.5146 109.637 76.6296C109.852 76.7238 110.056 76.8528 110.286 76.8455C111.98 76.6147 113.417 75.7697 114.836 74.9114C118.014 72.9706 120.303 70.2956 121.411 66.7234C121.803 65.4685 122.004 64.1645 121.87 62.8367C121.948 62.5264 121.734 62.2507 121.85 61.9669Z" fill="#1A0B9F"/>
<path d="M116.165 44.4087C115.709 42.2804 114.921 40.3258 113.357 38.7542C111.473 36.8597 109.113 36.0209 106.519 35.7337C102.593 35.2846 98.7526 35.9903 94.9266 36.7759C94.8304 36.7928 94.7483 36.8896 94.6578 36.9384C96.916 37.7621 98.8605 39.1517 100.866 40.4153C105.413 43.2767 109.677 46.5009 113.552 50.2381C114.269 50.9364 114.901 51.7155 115.729 52.2954C116.013 52.3117 116.239 52.1896 116.42 51.9933C116.908 50.4413 116.93 48.8719 116.602 47.2816C116.53 46.6845 116.443 46.0901 116.371 45.493C116.371 45.1141 116.309 44.7623 116.165 44.4087Z" fill="#2A14C0"/>
<path d="M94.0952 110.842C102.062 113.516 107.213 118.974 109.789 126.894C111.897 133.363 111.439 139.705 108.286 145.744C105.741 150.639 101.767 153.972 96.5067 155.717C94.0395 156.529 91.4762 156.697 88.8917 156.557C88.7231 156.537 88.7022 156.607 88.7595 156.745C97.8019 158.868 107.234 154.168 111.056 145.44C114.831 136.82 113.702 128.581 108.743 120.733C107.784 119.22 106.608 117.877 105.333 116.634C105.155 116.468 104.935 116.342 104.887 116.07C104.023 115.381 103.186 114.654 102.266 114.024C99.8086 112.346 97.1326 111.117 94.1918 110.545C94.072 110.615 93.987 110.696 94.0952 110.842Z" fill="#FED900"/>
<path d="M18.4882 73.3185C17.4473 74.2588 16.6031 75.3789 15.7777 76.5122C14.5472 78.1613 13.4617 79.884 12.731 81.841C12.3042 82.9869 12.1854 84.1941 12.0317 85.3909C11.9336 85.4905 11.9692 85.5996 12.0369 85.7031C12.0565 85.815 12.0761 85.9269 12.0957 86.0389C12.0884 86.4686 12.164 86.9002 12.3169 87.3019C13.1644 89.9711 14.9866 91.794 17.3088 93.2657C18.4431 93.9898 19.6748 94.5155 20.8299 95.17C21.234 95.2145 21.3363 94.9495 21.43 94.6364C21.4759 93.6727 21.0439 92.8091 20.8333 91.8903C20.2326 89.3096 19.7789 86.7197 19.4694 84.1044C19.0799 80.8441 18.9496 77.5549 18.8861 74.2704C18.8858 73.8915 18.8402 73.5369 18.4882 73.3185Z" fill="#1A0B9F"/>
<path d="M39.1502 106.511C40.6877 106.142 42.2139 105.71 43.6473 105.031C43.5541 104.404 42.9605 104.409 42.5527 104.25C39.3388 102.968 36.1221 101.669 32.9082 100.387C29.4635 99.0128 26.0321 97.6201 22.5743 96.265C22.3087 96.1633 21.9795 95.7925 21.681 96.2567C22.1586 97.4748 22.5269 98.7285 23.0846 99.9326C25.5195 105.158 29.6116 107.588 35.3951 107.135C35.4752 107.121 35.561 107.139 35.6411 107.125C36.0453 107.17 36.4367 106.953 36.8464 107.03C37.1717 106.907 37.4894 106.834 37.8399 106.855C38.2445 106.62 38.74 106.714 39.1502 106.511Z" fill="#2A14C0"/>
<path d="M108.836 80.0656C107.883 81.3201 107.188 82.7271 106.399 84.0682C104.868 86.6433 103.356 89.2316 101.847 91.8358C101.721 92.0557 101.476 92.2633 101.612 92.569C102.905 91.6506 104.014 90.5335 104.983 89.2762C107.045 86.6245 108.195 83.5724 108.913 80.3158C108.925 80.1983 108.978 80.1231 108.836 80.0656Z" fill="#2B15C0"/>
<path d="M116.307 51.9142C116.943 52.1489 117.021 52.5965 116.739 53.1567C117.588 53.5683 118.131 54.3135 118.743 54.9807C119.623 55.9471 120.178 57.1352 120.847 58.2208C120.802 57.965 120.77 57.6904 120.726 57.4347C120.521 57.2069 120.63 56.8911 120.471 56.6389C119.61 53.3293 118.211 50.2459 116.596 47.2496C116.459 48.8226 116.552 50.3883 116.307 51.9142Z" fill="#4E2EF7"/>
<path d="M94.0952 110.842C94.1265 110.737 94.1606 110.649 94.1918 110.545C93.6831 110.469 93.1932 110.407 92.6845 110.331C93.0521 110.827 93.647 110.64 94.0952 110.842Z" fill="#FADD21"/>
<path d="M88.7727 156.726C88.8124 156.67 88.8681 156.611 88.905 156.538C88.4576 156.435 88.0358 156.196 87.5671 156.443C87.9664 156.554 88.3602 156.634 88.7727 156.726Z" fill="#FEE435"/>
<path d="M65.6865 34.4668C62.5522 35.8069 59.729 37.6032 57.2065 39.8906C57.0074 40.0738 56.8299 40.2862 56.6468 40.4665C56.6222 41.0805 56.9682 41.5472 57.2369 42.0439C64.7617 55.4899 70.9277 69.5695 76.4166 83.9324C77.9948 88.0391 79.4505 92.2002 80.8901 96.3641C81.0598 96.8617 81.1418 97.424 81.6473 97.7639C83.1991 97.8546 84.7684 98.1399 86.2743 97.4971C86.6105 97.0592 86.601 96.5336 86.6612 96.0287C87.5476 88.0793 88.4661 80.1243 89.3526 72.1749C90.0794 65.6706 90.8221 59.1635 91.5677 52.6724C91.605 52.3198 91.6612 51.9804 91.5835 51.6315C91.2416 50.9993 90.6288 50.6124 90.117 50.1418C87.4741 47.6882 84.6433 45.4817 81.7067 43.4256C76.8717 40.0542 71.7382 37.1471 66.357 34.7119C66.1555 34.5989 65.9068 34.593 65.6865 34.4668Z" fill="#2A14C0"/>
<path d="M81.7002 97.6887C80.8551 95.3157 79.9751 92.9322 79.146 90.5563C77.6652 86.2514 76.0165 82.0252 74.349 77.7859C72.1221 72.1451 69.7246 66.5671 67.1913 61.0623C65.3275 57.0222 63.4316 52.9877 61.3254 49.0724C59.9059 46.4374 58.4996 43.7836 57.0962 41.1458C56.9712 40.9041 56.8916 40.6379 56.6497 40.4826C54.9077 42.0401 53.4348 43.8141 52.1209 45.7415C51.9827 46.1776 52.2101 46.5333 52.3735 46.9001C54.375 51.4434 56.3633 56.0055 58.3677 60.5649C63.1547 71.3926 67.8804 82.2476 72.6515 93.0782C73.855 95.8005 75.1039 98.4983 76.2301 101.251C76.3991 101.649 76.5228 102.073 76.9153 102.333C77.291 102.498 77.5402 102.224 77.7685 102.019C79.0566 100.887 80.2986 99.681 81.4437 98.3928C81.608 98.1992 81.8712 98.0048 81.7002 97.6887Z" fill="#1A0B9F"/>
<path d="M65.6865 34.4668C65.9412 34.8836 66.4074 34.9996 66.8207 35.1909C70.4872 36.8884 74.0403 38.7871 77.4884 40.9349C79.9179 42.4536 82.2521 44.088 84.5467 45.7787C86.7094 47.3772 88.7504 49.1288 90.7092 50.9772C90.9247 51.1702 91.1854 51.3387 91.4141 51.5129C91.8027 51.28 91.7996 50.8851 91.8341 50.5165C92.3036 46.3148 92.7864 42.0942 93.2559 37.8925C93.3036 37.5051 93.4287 37.0878 93.1343 36.7274C91.2795 35.8494 89.4643 34.9151 87.512 34.2355C83.2054 32.7489 78.79 32.0559 74.2118 32.413C71.264 32.6493 68.435 33.3756 65.6865 34.4668Z" fill="#1A0B9F"/>
<path d="M75.8658 102.847C71.8543 93.7122 67.8268 84.5804 63.8153 75.4458C59.6132 65.8833 55.43 56.3338 51.228 46.7712C51.1491 46.6038 51.0994 46.4148 51.0366 46.2445C49.1663 46.1272 47.3017 46.042 45.4366 46.2369C45.1177 46.4905 45.0191 46.8703 44.9337 47.2313C42.912 55.017 41.2973 62.8633 40.8074 70.908C40.496 75.8235 40.5803 80.7357 41.3196 85.6155C41.382 86.0659 41.5113 86.5211 41.6217 86.9632C42.0774 87.7731 42.8673 88.228 43.5722 88.7636C46.9488 91.3523 50.3095 93.9438 53.6834 96.5165C56.1265 98.3955 58.5696 100.274 61.0259 102.135C63.119 103.712 65.1724 105.346 67.2815 106.921C67.6043 107.161 67.9167 107.436 68.3425 107.51C68.9417 107.537 69.4369 107.252 69.9621 107.045C71.9082 106.275 73.6862 105.206 75.3908 104.001C75.7682 103.704 76.1805 103.418 75.8658 102.847Z" fill="#1A0B9F"/>
<path d="M41.8684 87.0518C40.6328 80.2816 40.7315 73.4918 41.472 66.6885C42.1418 60.4249 43.4088 54.2708 45.0187 48.1886C45.1847 47.5333 45.3186 46.8837 45.4658 46.2153C44.7584 46.0426 44.0486 46.2329 43.3672 46.3028C37.1309 46.9998 31.5209 49.1031 27.2615 53.9194C24.2954 57.2567 22.5485 61.2374 21.4192 65.5382C20.9754 67.2473 20.6815 68.9631 20.3743 70.6976C20.9297 71.6055 21.8721 72.083 22.6872 72.6817C26.6446 75.663 30.5331 78.7223 34.4745 81.7064C36.721 83.4056 38.9382 85.1263 41.1714 86.8443C41.3465 86.9949 41.5515 87.2226 41.8684 87.0518Z" fill="#2A14C0"/>
<path d="M94.3854 36.9861C93.8212 42.0613 93.2409 47.1393 92.6767 52.2145C92.6594 52.3988 92.661 52.5962 92.6597 52.7777C92.6608 53.2554 92.9788 53.5622 93.2808 53.8718C97.5536 58.182 101.234 62.975 104.489 68.0732C105.033 68.9171 105.529 69.7695 106.044 70.635C106.207 70.9031 106.313 71.2304 106.675 71.3153C108.666 67.1271 110.658 62.9389 112.646 58.7347C113.669 56.5616 114.692 54.3886 115.7 52.2183C114.898 50.9416 113.687 50.0661 112.631 49.0318C110.542 47.0084 108.258 45.1842 105.896 43.4887C102.609 41.1314 99.2227 38.9564 95.6933 37.0041C95.344 36.8017 95.0187 36.9246 94.6738 36.9356C94.5617 36.9552 94.4815 36.9693 94.3854 36.9861Z" fill="#1A0B9F"/>
<path d="M100.312 150.948C101.829 150.089 103.05 148.853 104.139 147.526C107.503 143.443 108.834 138.695 108.63 133.474C108.622 133.146 108.585 132.839 108.561 132.514C108.312 131.47 108.175 130.406 107.99 129.351C107.9 128.84 107.782 128.35 107.569 127.892C107.484 127.594 107.524 127.258 107.284 127.02C107.2 126.82 107.195 126.607 107.127 126.404C106.91 126.014 106.767 125.578 106.596 125.163C106.395 124.77 106.178 124.379 106.038 123.959C104.984 122.183 103.839 120.455 102.372 118.966C102.232 118.825 102.095 118.701 101.957 118.577C98.6232 115.289 94.6519 113.265 89.9485 113.002C84.544 112.696 79.9971 114.646 76.5049 118.751C72.4935 123.475 71.2293 128.986 72.1118 135.06C72.7054 139.108 74.1892 142.77 76.779 145.958C80.4437 150.474 85.0998 153.201 91.013 153.582C93.587 153.757 95.9862 153.123 98.3097 152.056C98.9943 151.722 99.6357 151.33 100.312 150.948Z" fill="#FED900"/>
<path d="M98.309 151.958C97.4229 152.179 96.578 152.541 95.6815 152.797C92.9758 153.568 90.2584 153.516 87.6023 152.779C80.5751 150.846 75.9975 146.21 73.5001 139.496C71.7214 134.716 71.5144 129.859 73.2195 124.979C75.1128 119.572 78.6499 115.723 84.1557 113.967C88.9893 112.428 93.5929 113.253 97.9582 115.735C99.4061 116.552 100.65 117.619 101.881 118.706C102.028 118.696 102.102 118.65 102.023 118.483C98.1711 114.593 93.5197 112.459 87.993 112.586C78.2363 112.796 71.4667 120.441 70.4146 129.425C69.6253 136.138 71.4831 142.124 75.9705 147.187C79.8832 151.61 84.8309 154.022 90.8239 154.01C93.5141 154.001 96.0707 153.322 98.4596 152.063C98.5013 151.924 98.4712 151.847 98.309 151.958Z" fill="#C8A200"/>
<path d="M102.055 118.477C102.003 118.552 101.966 118.625 101.913 118.7C103.344 120.179 104.662 121.761 105.642 123.583C105.715 123.719 105.847 123.811 105.968 123.938C106.037 123.86 106.026 123.796 105.948 123.727C104.959 121.759 103.675 119.99 102.055 118.477Z" fill="#CFA906"/>
<path d="M107.467 127.779C108.081 129.302 108.011 130.979 108.561 132.514C108.361 130.901 108.196 129.299 107.614 127.769C107.549 127.682 107.501 127.69 107.467 127.779Z" fill="#E6C004"/>
<path d="M98.3088 151.958C98.3653 151.997 98.4218 152.037 98.4943 152.074C99.1337 151.764 99.7947 151.483 100.315 150.964C99.5916 151.173 98.953 151.581 98.3088 151.958Z" fill="#D5B10B"/>
<path d="M105.951 123.743C105.962 123.807 105.957 123.874 105.971 123.954C106.018 124.407 106.267 124.792 106.513 125.161C106.575 125.232 106.623 125.224 106.657 125.136C106.455 124.644 106.286 124.146 105.951 123.743Z" fill="#D7B513"/>
<path d="M106.657 125.136C106.609 125.144 106.561 125.152 106.513 125.161C106.669 125.578 106.747 126.026 107.057 126.384C107.119 126.357 107.142 126.303 107.128 126.223C106.965 125.856 106.802 125.489 106.657 125.136Z" fill="#D8B309"/>
<path d="M107.467 127.779C107.515 127.77 107.579 127.759 107.627 127.75C107.58 127.479 107.577 127.182 107.34 126.96C107.259 126.876 107.211 126.884 107.18 126.988C107.34 127.241 107.419 127.507 107.467 127.779Z" fill="#DAB613"/>
<path d="M107.183 127.004C107.231 126.996 107.295 126.985 107.343 126.976C107.266 126.726 107.189 126.476 107.128 126.223C107.105 126.277 107.081 126.33 107.057 126.384C107.094 126.592 107.13 126.799 107.183 127.004Z" fill="#D4B00B"/>
<path d="M45.5369 104.222C46.2508 103.866 46.9487 103.513 47.6653 103.173C47.8092 102.769 47.5686 102.432 47.3976 102.116C45.6293 98.9985 44.3409 95.698 43.3298 92.2829C43.0083 91.2022 42.9216 90.0475 42.2589 89.0925C39.813 87.1976 37.3643 85.2867 34.9023 83.3946C29.922 79.5709 24.9096 75.7528 19.9161 71.9478C19.352 72.3103 18.8528 72.7602 18.507 73.3316C18.7214 74.7441 18.591 76.1676 18.6744 77.5866C18.7882 79.4616 18.9019 81.3367 19.0638 83.2033C19.2664 85.4912 19.7415 87.7314 20.0883 89.994C20.3391 91.6143 20.9717 93.1513 21.2706 94.7632C21.6364 94.6827 21.948 94.8588 22.2832 94.9813C29.8646 98.0033 37.43 101.028 45.0114 104.05C45.1724 104.121 45.3466 104.173 45.5369 104.222Z" fill="#2A14C0"/>
<path d="M98.8082 94.3786C101.444 89.9126 104.065 85.4494 106.701 80.9834C107.464 79.6799 108.245 78.3896 108.989 77.0729C109.189 76.7082 109.428 76.4686 109.853 76.4436C109.568 76.3286 109.271 76.2325 109.113 75.8976C108.613 74.8318 108.067 73.7905 107.55 72.7275C105.667 76.6826 103.797 80.6189 101.913 84.574C100.261 88.0602 98.6093 91.5463 96.9602 95.0484C97.0679 95.4744 97.3604 95.2584 97.5819 95.2031C98.0702 95.0681 98.458 94.7365 98.8082 94.3786Z" fill="#2A14C0"/>
<path d="M87.5835 97.3336C89.5888 97.2789 91.5268 96.8406 93.4781 96.3834C93.9692 96.2644 94.4764 96.1426 94.9703 96.0396C95.0581 95.9748 95.1862 95.9523 95.2203 95.864C98.9941 87.8042 102.787 79.7577 106.561 71.6979C106.621 71.572 106.65 71.4517 106.694 71.3285C105.472 68.972 104.029 66.7696 102.509 64.5971C99.6878 60.5599 96.593 56.7519 93.0943 53.2783C92.9353 53.1249 92.8216 52.9471 92.6758 52.7749C92.2926 56.0552 91.8773 59.3412 91.5129 62.6347C90.2107 74.1502 88.9086 85.6658 87.6036 97.1653C87.5799 97.2189 87.5911 97.2829 87.5835 97.3336Z" fill="#2A14C0"/>
<path d="M92.5651 105.03C92.5086 104.99 92.4333 104.937 92.3769 104.898C92.0191 105.306 91.9136 105.836 91.7225 106.347C92.1932 106.017 92.293 105.456 92.5651 105.03Z" fill="#D7D4FE"/>
<path d="M42.2401 89.0793C42.9636 92.6437 44.0953 96.087 45.6617 99.3719C46.2683 100.666 46.9947 101.89 47.6626 103.157C51.5668 105.835 55.7436 107.806 60.5259 108.237C62.5732 108.422 64.6181 108.311 66.6167 107.746C64.1359 105.841 61.6684 103.917 59.1716 102.014C53.6182 97.7473 48.0675 93.4962 42.5008 89.2479C42.4227 89.1792 42.3342 89.1452 42.2401 89.0793Z" fill="#1A0B9F"/>
<path d="M116.307 51.9142C116.11 52.0146 115.897 52.1179 115.699 52.2183C115.275 52.3421 115.198 52.751 115.04 53.0753C112.184 59.1123 109.365 65.1757 106.49 71.1995C104.652 75.229 102.723 79.2085 100.851 83.2276C98.8551 87.4825 96.8562 91.7215 94.844 95.9793C92.8688 100.165 90.8935 104.35 88.9343 108.533C88.7159 108.983 88.3609 109.408 88.5258 109.972C89.4087 110.015 90.2755 110.061 91.1555 110.088C92.4775 107.83 93.8022 105.587 95.1242 103.329C96.6493 100.722 99.7183 95.5209 99.7183 95.5209L101.644 92.5634C101.644 92.5634 104.162 88.3653 105.429 86.2649C106.364 84.717 108.182 81.6137 108.182 81.6137C108.182 81.6137 109.59 78.7142 109.983 78.0356C110.212 77.6494 110.397 77.2875 110.316 76.8239C110.258 76.5869 110.062 76.5058 109.866 76.4248C109.338 76.336 108.995 76.5444 108.744 77.0002C105.378 82.7641 101.989 88.4989 98.6226 94.2628C96.9264 97.2129 95.1388 100.113 93.4642 103.092C93.124 103.696 92.7894 104.331 92.468 104.948C92.3414 105.168 92.2364 105.417 92.0597 105.728C92.2308 105.385 92.3707 105.146 92.4917 104.894C94.2156 101.725 95.6683 98.4219 97.1747 95.1426C99.8324 89.6677 102.383 84.1457 104.987 78.6472C105.652 77.2618 107.547 72.7115 107.547 72.7115C107.547 72.7115 111.124 65.0324 112.93 61.206C114.193 58.5132 115.474 55.8335 116.739 53.1567C117.016 52.9435 117.169 52.686 117.043 52.3455C116.904 52.0238 116.699 51.796 116.307 51.9142Z" fill="#FEFEFE"/>
<path d="M21.6971 96.2539C23.0073 96.5682 24.2049 97.1823 25.4469 97.6732C31.3381 100.003 37.2188 102.367 43.1127 104.712C43.3086 104.793 43.5413 104.802 43.6634 105.028C45.1751 105.455 46.595 106.113 48.0517 106.698C54.8685 109.409 61.6693 112.123 68.486 114.834C69.8354 115.372 71.2009 115.907 72.5531 116.461C72.8187 116.563 73.1427 116.622 73.2364 116.968C73.597 116.575 73.9548 116.166 74.3153 115.774C74.1965 115.284 73.7282 115.25 73.3741 115.115C69.4973 113.536 65.5941 111.995 61.704 110.436C56.3252 108.297 50.9596 106.139 45.5808 104C37.9297 100.957 30.273 97.8824 22.6059 94.8424C22.1793 94.67 21.7379 94.3189 21.2519 94.75C21.1085 94.874 20.9651 94.998 20.8245 95.138C20.7867 95.7708 21.315 95.9584 21.6971 96.2539Z" fill="#FEFEFE"/>
<path d="M93.1504 36.7246C92.6392 41.0655 92.1468 45.4195 91.6356 49.7604C91.5734 50.348 91.4951 50.9385 91.4141 51.5129C90.4979 59.7641 89.5629 68.0021 88.6468 76.2533C87.8494 83.2973 86.2707 97.3824 86.2707 97.3824C86.2707 97.3824 85.0445 105.655 84.6211 109.272C84.581 109.608 84.5117 109.967 84.7656 110.285C85.233 110.219 85.7137 110.135 86.1812 110.07C86.3747 109.854 86.4637 109.608 86.483 109.341C86.922 105.342 87.428 101.349 87.8133 97.3263C88.269 94.0827 88.5749 90.8324 88.9477 87.5869C90.223 76.3891 91.4794 65.1782 92.7547 53.9804C92.7997 53.5771 92.7617 53.1718 92.8735 52.7732C93.4233 47.8983 93.9542 43.0102 94.5389 38.1456C94.5866 37.7583 94.6956 37.3437 94.3853 36.9861C94.2407 36.6324 93.9772 36.4479 93.5947 36.4325C93.4484 36.5405 93.2994 36.6326 93.1504 36.7246Z" fill="#FEFEFE"/>
<path d="M77.086 102.271C77.086 102.271 74.6928 96.906 73.5109 94.213C66.5309 78.3151 59.5482 62.4013 52.5683 46.5035C52.4538 46.2269 52.2808 45.9936 52.1502 45.7198C51.9788 45.684 51.8074 45.6481 51.6519 45.6094C51.3559 45.7107 51.184 45.955 51.0846 46.2361C50.8349 46.7906 51.1621 47.2441 51.3555 47.6881C52.4125 50.1394 53.5016 52.5851 54.5906 55.0308C58.3731 63.6123 62.1423 72.2126 65.9088 80.7969C69.065 87.9722 72.2213 95.1474 75.3643 102.341C75.4488 102.541 75.5332 102.74 75.647 102.918C76.6007 105.157 77.6025 107.387 78.5562 109.626C78.774 110.115 78.9918 110.604 79.2096 111.093C79.3429 111.383 79.463 111.691 79.7879 111.849C80.2309 111.738 80.6279 111.553 80.9977 111.307C81.2009 110.959 81.0431 110.624 80.9042 110.302C79.8339 107.87 77.086 102.271 77.086 102.271Z" fill="#FEFEFE"/>
<path d="M41.8684 87.0518C38.6479 84.6005 35.4274 82.1492 32.2229 79.6951C28.5422 76.8795 24.8587 74.048 21.1753 71.2164C20.9249 71.0131 20.635 70.8662 20.3714 70.6816C20.3073 70.6929 20.2432 70.7041 20.1952 70.7125C19.6199 71.011 19.508 71.4096 19.9293 71.929C20.0182 72.3419 20.3382 72.5659 20.6394 72.7768C23.0873 74.589 25.4823 76.4763 27.9038 78.3261C30.3657 80.2182 32.8249 82.0943 35.2896 84.0024C36.8932 85.2374 38.4809 86.4753 40.1137 87.6887C40.8158 88.2084 41.4462 88.79 42.1587 89.2749C44.0279 90.6117 45.815 92.0453 47.6445 93.4385C49.3799 94.7658 51.1153 96.0931 52.8375 97.4392C55.4368 99.4555 58.0493 101.453 60.6618 103.451C62.6071 104.939 64.542 106.462 66.5137 107.913C68.1878 109.267 69.9336 110.56 71.6502 111.874C72.6995 112.679 73.7092 113.54 74.8114 114.27C75.0345 114.412 75.2075 114.645 75.5176 114.624C75.9382 114.385 76.2996 114.091 76.6337 113.736C76.7143 113.442 76.4884 113.284 76.3002 113.152C73.8731 111.27 68.2391 107.297 68.2391 107.297C68.2391 107.297 60.6999 101.5 56.9223 98.6021C51.8751 94.7736 46.8731 90.9207 41.8684 87.0518Z" fill="#FEFEFE"/>
</g>
<defs>
<clipPath id="clip0_14_3274">
<rect width="112.685" height="152.099" fill="white" transform="matrix(-0.984999 0.172558 0.172558 0.984999 110.994 0)"/>
</clipPath>
</defs>
</svg>
