<svg width="255" height="118" viewBox="0 0 255 118" fill="none" xmlns="http://www.w3.org/2000/svg">
<g clip-path="url(#clip0_76_16633)">
<path d="M41.4482 91.718C50.3382 90.4988 60.549 89.5336 70.5058 89.6352C60.7522 89.3304 50.4906 89.8892 41.4482 91.718Z" fill="#361500"/>
<path d="M219.299 60.8315L235.809 65.5559L235.759 64.3875L219.299 60.8315Z" fill="#361500"/>
<path d="M20.5697 37.5652C14.7277 39.7496 8.78408 40.156 6.39648 43.1532C5.12648 44.7788 5.93928 50.2144 5.93928 50.2144C5.93928 50.2144 16.6581 65.2004 29.7645 93.5976C33.2189 92.988 37.1813 92.3276 41.4485 91.7688C50.4909 89.94 60.7525 89.3812 70.5061 89.686C77.5673 89.7368 84.5269 90.2956 90.8261 91.6164C84.7809 90.6004 77.7705 89.8892 70.5061 89.686C60.5493 89.6352 50.3385 90.5496 41.4485 91.7688C38.6037 92.3276 35.9113 92.988 33.3713 93.8516C32.8633 94.004 33.3205 100.303 32.8633 100.456C35.3017 105.942 37.7401 111.784 40.2293 118.134C128.52 83.4376 214.118 118.134 214.118 118.134C214.118 118.134 225.141 95.8328 236.063 71.144L235.809 65.6068L219.299 60.8824L235.758 64.4384L235.809 65.556L238.248 66.2672C241.55 58.6472 244.801 50.8748 247.696 43.6104C248.154 42.4928 248.408 34.8728 248.814 33.806C208.936 9.77755 177.999 13.0796 116.632 12.7748C55.1645 12.4192 20.5697 37.5652 20.5697 37.5652Z" fill="#361500"/>
<path d="M248.915 33.5012C209.037 9.47281 177.948 6.27242 116.531 5.91682C55.1642 5.61202 20.5186 30.7072 20.5186 30.7072C11.4762 34.06 5.93896 43.3564 5.93896 43.3564C5.93896 43.3564 16.6578 58.3424 29.7642 86.7396C45.6138 83.8948 71.4202 80.5928 90.8258 84.7584C73.6554 81.812 49.627 88.0096 32.863 93.5468C35.3014 99.0332 37.7398 104.875 40.229 111.225C128.519 76.5288 214.117 111.225 214.117 111.225C214.117 111.225 225.141 88.924 236.063 64.2352L219.299 53.9736L238.247 59.3584C242.057 50.6716 245.766 41.7308 248.915 33.5012Z" fill="#734425"/>
<path d="M248.916 33.5012C243.074 29.996 237.435 26.948 231.847 24.2556C215.032 56.0564 167.28 83.0312 97.8365 75.6652C61.3621 71.8044 39.4165 74.954 26.3101 79.526C27.4277 81.8628 28.5961 84.1996 29.7645 86.7396C45.6141 83.8948 71.4205 80.5928 90.8261 84.7584C73.6557 81.812 49.6273 88.0096 32.8633 93.5468C35.3017 99.0332 37.7401 104.875 40.2293 111.225C128.52 76.5288 214.118 111.225 214.118 111.225C214.118 111.225 225.141 88.924 236.063 64.2352L219.299 53.9736L238.248 59.3584C242.058 50.6716 245.766 41.7308 248.916 33.5012Z" fill="#714121"/>
<path d="M218.994 101.268C220.417 98.3727 221.077 96.8995 223.058 92.7339C218.639 91.7687 214.168 90.9559 209.698 90.3463C202.078 89.2795 195.067 86.4347 187.651 84.6059C173.884 81.2023 159.863 77.9003 145.639 77.2907C141.423 77.1383 137.257 77.9003 133.091 77.7987C132.939 77.7987 131.821 77.5955 131.771 77.6463C131.618 77.9003 132.279 77.7987 132.583 77.8495C134.26 78.1035 135.936 78.3575 137.613 78.6115C140.661 79.0179 143.759 79.1703 146.858 79.4751C155.596 80.4403 164.232 81.9135 172.766 84.0979C184.958 87.1967 195.779 93.3943 207.513 97.7123C208.275 98.0171 213.711 99.6427 218.994 101.268Z" fill="#462814"/>
<path d="M57.2977 92.8864C49.3729 94.3088 41.6005 95.2232 33.8281 95.9344C34.2345 96.8996 34.6917 97.9156 35.0981 98.9316C42.8197 98.1188 51.8113 97.7124 54.5037 97.3568C90.4701 93.0388 127.097 84.9108 163.013 94.8676C168.448 96.3916 175.306 97.814 179.878 101.268C180.031 101.37 180.234 101.573 180.386 101.726C185.669 102.843 190.241 103.961 194.407 105.078C190.546 102.335 186.685 99.6936 182.52 97.3568C166.772 88.7208 148.23 85.4696 129.078 85.1648C104.491 84.7076 78.9893 89.0764 57.2977 92.8864Z" fill="#462814"/>
<path d="M181.098 22.9856C175.916 22.3252 170.633 21.9696 165.502 21.1568C158.898 20.09 152.345 18.058 145.639 17.6008C143.709 17.4484 141.728 17.3976 139.746 17.3468C133.854 17.2452 127.859 17.6008 122.017 18.0072C106.828 18.9724 91.1816 20.9028 76.348 24.2556C53.1832 29.5388 30.12 36.8032 9.39355 48.538C9.69835 48.9952 9.95236 49.4016 10.2572 49.9096C10.9176 49.554 11.6796 49.1984 12.4416 48.8428C20.976 45.0836 29.7136 40.7148 38.4004 37.3112C43.7344 35.2284 49.3732 34.2632 54.8596 32.6376C59.076 31.3676 63.0384 29.488 67.3564 28.472C74.6716 26.7956 82.1392 26.3892 89.556 25.7288C97.9888 24.9668 106.422 23.3412 114.804 22.6808C123.795 21.9696 132.787 22.8332 141.778 23.1888C153.818 23.646 165.654 24.3064 177.745 23.9508C181.148 23.8492 184.654 23.7476 188.006 24.2048C189.327 24.3572 192.426 26.0336 191.969 24.8144C191.359 23.1888 183.028 23.1888 181.098 22.9856Z" fill="#462814"/>
<path d="M229.662 78.51C226.868 77.1384 224.074 75.8176 221.28 74.5476C211.476 70.0264 201.164 67.4864 190.597 65.556C176.627 63.016 162.708 62.1016 148.789 62.1524C118.156 62.254 87.6255 66.9784 56.9931 69.366C45.5631 70.2804 34.0315 70.2296 22.7031 72.2108C23.8715 74.446 25.0399 76.7828 26.2591 79.272C38.1463 77.2908 50.0335 75.2588 61.9715 73.5316C105.964 67.1816 138.629 63.778 182.825 70.3312C192.629 71.8044 214.27 75.8176 227.986 82.2184C228.494 81.1008 229.053 79.7292 229.662 78.51Z" fill="#462814"/>
<path d="M245.054 43.1532C245.562 41.934 246.02 40.8164 246.477 39.5972C235.301 37.4636 219.858 36.346 214.727 35.9396C206.243 35.33 197.607 34.9744 188.92 35.0252C174.493 35.076 159.964 36.0412 145.893 38.0224C133.345 39.8004 120.848 42.188 108.25 43.8644C87.2697 46.6584 65.6289 46.8108 44.8009 50.9764C35.0981 52.9068 24.8365 55.4468 15.4385 58.9012C15.5909 59.1552 15.7433 59.4092 15.8957 59.714C34.2345 51.7892 64.7145 51.84 83.3073 50.2652C94.1785 49.3508 105.1 48.7412 115.921 47.4204C130.805 45.5916 145.639 42.442 160.625 41.426C169.108 40.8672 177.592 41.2736 186.076 41.2736C200.554 41.2736 215.133 41.1212 229.56 42.3912C234.742 42.8484 239.924 42.7468 245.054 43.1532Z" fill="#462814"/>
<path d="M141.321 43.8643C143.201 43.6103 145.08 43.3055 146.96 43.0515C168.804 39.9019 181.91 38.9875 194.915 39.2923C202.23 39.4447 206.244 39.2923 206.294 39.0383C206.345 38.7843 201.976 38.4287 194.966 37.9207C182.418 36.9555 168.042 37.6667 146.655 40.7655C144.725 41.0195 142.845 41.3243 141.016 41.6291C122.83 44.4231 115.921 45.6931 103.12 47.1155C93.5183 48.2331 87.5747 48.5379 87.5747 48.7919C87.5747 49.0967 93.5183 49.3507 103.221 48.6395C114.499 47.8267 124.76 46.3027 141.321 43.8643Z" fill="#361500"/>
<path d="M113.432 21.8173H113.533C124.862 20.4965 133.599 20.2933 141.219 20.6997C148.281 21.0553 152.649 21.8173 152.7 21.5125C152.751 21.2077 148.484 19.8869 141.321 19.0741C133.752 18.2613 124.557 18.2105 113.229 19.5313H113.127C102.561 20.8013 92.299 22.9857 85.6442 24.5605C78.6846 26.1861 74.4682 27.4053 74.519 27.7101C74.5698 28.0149 78.9386 27.4053 85.9998 26.1353C92.4006 25.0177 103.323 23.0365 113.432 21.8173Z" fill="#361500"/>
<path d="M154.834 64.1337C166.518 64.7941 176.881 65.9117 185.111 66.9277C190.089 67.5373 194.102 67.5881 196.845 67.9437C199.589 68.2993 201.062 68.7565 201.113 68.6041C201.214 68.2993 194.915 66.8261 185.365 65.2005C177.237 63.8289 166.721 62.4573 154.986 61.7969C141.829 61.0857 130.653 61.4413 121.966 62.2033C113.534 62.9653 108.403 63.9305 108.453 64.2353C108.504 64.5401 113.686 64.1337 122.119 63.7781C130.806 63.5241 141.626 63.3717 154.834 64.1337Z" fill="#361500"/>
<path d="M182.317 86.2316C185.771 87.654 190.14 88.7716 195.677 89.3304H195.728C200.503 89.8384 206.345 89.94 209.241 89.9908C212.695 90.0416 214.829 90.0924 214.879 89.7368C214.93 89.432 212.847 88.8224 209.393 88.3652C205.939 87.8572 201.163 87.5524 195.982 86.9936H195.931C190.394 86.384 186.431 85.622 182.825 84.6568C179.573 83.7424 177.541 82.9804 177.44 83.2344C177.338 83.59 179.065 84.9108 182.317 86.2316Z" fill="#361500"/>
<path d="M86.9648 91.4133C92.6544 90.8545 100.427 89.7877 109.012 88.8733H109.114C118.258 87.9081 124.862 87.6033 131.059 87.7049C136.647 87.8065 140.152 88.2129 140.203 87.9081C140.254 87.6033 136.85 86.6381 131.161 86.0793C125.116 85.5205 117.902 85.5713 108.86 86.5873H108.758C100.884 87.4509 91.5368 89.0257 86.7616 89.8385C81.1736 90.8037 77.7192 91.4133 77.7192 91.7181C77.7192 92.0229 81.2752 91.9721 86.9648 91.4133Z" fill="#361500"/>
<g filter="url(#filter0_d_76_16633)">
<path d="M89.9296 56.0341L93.1011 85.8033L84.02 87.7631L81.4549 72.2195L79.4543 85.4439L75.923 86.0454L70.8456 75.3894L73.0202 88.3981L63.7983 90.258L59.4761 62.4605L69.7209 60.3024L76.0767 72.8879L79.1349 57.8729L89.9296 56.0341Z" fill="white"/>
<path d="M89.9296 56.0341L93.1011 85.8033L84.02 87.7631L81.4549 72.2195L79.4543 85.4439L75.923 86.0454L70.8456 75.3894L73.0202 88.3981L63.7983 90.258L59.4761 62.4605L69.7209 60.3024L76.0767 72.8879L79.1349 57.8729L89.9296 56.0341Z" fill="url(#paint0_linear_76_16633)"/>
<path d="M107.629 55.4309L107.972 83.2406L99.4613 84.4834L96.9004 57.003L107.629 55.4309Z" fill="white"/>
<path d="M107.629 55.4309L107.972 83.2406L99.4613 84.4834L96.9004 57.003L107.629 55.4309Z" fill="url(#paint1_linear_76_16633)"/>
<path d="M141.106 54.0412L139.855 81.6512L129.198 82.7112L123.384 67.9794L122.606 83.0475L113.447 83.1189L113.955 54.2527L124.128 53.6849L131.284 68.2842L131.502 54.4417L141.106 54.0412Z" fill="white"/>
<path d="M141.106 54.0412L139.855 81.6512L129.198 82.7112L123.384 67.9794L122.606 83.0475L113.447 83.1189L113.955 54.2527L124.128 53.6849L131.284 68.2842L131.502 54.4417L141.106 54.0412Z" fill="url(#paint2_linear_76_16633)"/>
<path d="M165.456 56.4797L164.646 65.074L158.578 64.8913L155.679 84.0301L147.08 83.873L148.477 64.6284L142.403 64.527L143.322 54.961L165.456 56.4797Z" fill="white"/>
<path d="M165.456 56.4797L164.646 65.074L158.578 64.8913L155.679 84.0301L147.08 83.873L148.477 64.6284L142.403 64.527L143.322 54.961L165.456 56.4797Z" fill="url(#paint3_linear_76_16633)"/>
<path d="M177.923 78.6732L171.109 77.727C171.213 76.2893 171.459 75.111 171.847 74.1922C172.237 73.26 172.69 72.5079 173.208 71.936C173.741 71.3524 174.304 70.9031 174.895 70.588C175.502 70.2613 176.081 69.9923 176.631 69.781C177.196 69.5581 177.692 69.3393 178.119 69.1246C178.56 68.9118 178.882 68.6141 179.086 68.2314C179.213 68.0026 179.279 67.7308 179.281 67.416C179.286 67.0879 179.187 66.7659 178.984 66.45C178.795 66.1361 178.478 65.8524 178.033 65.5989C177.605 65.3338 177.02 65.15 176.281 65.0473C175.797 64.9801 175.213 64.9469 174.528 64.9477C173.858 64.9369 173.147 64.9751 172.395 65.0625C171.645 65.1365 170.896 65.2584 170.146 65.4283C169.412 65.5866 168.739 65.7945 168.128 66.0521L168.338 58.0262C168.876 57.7996 169.476 57.5746 170.137 57.3514C170.814 57.1165 171.545 56.9304 172.331 56.793C173.119 56.6421 173.968 56.5477 174.878 56.5096C175.787 56.4715 176.753 56.5233 177.774 56.6652C179.427 56.8947 180.954 57.3397 182.356 58.0001C183.771 58.6624 184.968 59.5135 185.947 60.5536C186.926 61.5937 187.647 62.8104 188.111 64.2037C188.577 65.5835 188.694 67.1134 188.46 68.7934C188.283 70.0702 187.959 71.0732 187.488 71.8023C187.018 72.518 186.467 73.0853 185.833 73.5042C185.2 73.9231 184.51 74.252 183.765 74.491C183.019 74.7299 182.282 75.0044 181.554 75.3142C180.842 75.6126 180.163 76.0115 179.518 76.511C178.887 77.0124 178.355 77.7332 177.923 78.6732ZM178.192 84.1355C178.11 84.7268 177.92 85.262 177.62 85.741C177.321 86.22 176.95 86.6206 176.508 86.9428C176.078 87.2803 175.592 87.5211 175.051 87.6652C174.509 87.8228 173.949 87.8614 173.371 87.7812C172.78 87.6991 172.244 87.5083 171.765 87.2089C171.284 86.9229 170.876 86.558 170.541 86.1141C170.217 85.6856 169.976 85.2 169.818 84.6576C169.674 84.117 169.643 83.551 169.725 82.9597C169.805 82.3817 169.989 81.8456 170.277 81.3513C170.579 80.8589 170.943 80.4506 171.372 80.1266C171.816 79.7909 172.309 79.5443 172.852 79.3868C173.394 79.2292 173.961 79.1915 174.552 79.2736C175.13 79.3539 175.659 79.5437 176.138 79.8431C176.617 80.1425 177.017 80.5132 177.339 80.9552C177.677 81.3857 177.924 81.8789 178.079 82.4347C178.235 82.9906 178.273 83.5575 178.192 84.1355Z" fill="white"/>
<path d="M177.923 78.6732L171.109 77.727C171.213 76.2893 171.459 75.111 171.847 74.1922C172.237 73.26 172.69 72.5079 173.208 71.936C173.741 71.3524 174.304 70.9031 174.895 70.588C175.502 70.2613 176.081 69.9923 176.631 69.781C177.196 69.5581 177.692 69.3393 178.119 69.1246C178.56 68.9118 178.882 68.6141 179.086 68.2314C179.213 68.0026 179.279 67.7308 179.281 67.416C179.286 67.0879 179.187 66.7659 178.984 66.45C178.795 66.1361 178.478 65.8524 178.033 65.5989C177.605 65.3338 177.02 65.15 176.281 65.0473C175.797 64.9801 175.213 64.9469 174.528 64.9477C173.858 64.9369 173.147 64.9751 172.395 65.0625C171.645 65.1365 170.896 65.2584 170.146 65.4283C169.412 65.5866 168.739 65.7945 168.128 66.0521L168.338 58.0262C168.876 57.7996 169.476 57.5746 170.137 57.3514C170.814 57.1165 171.545 56.9304 172.331 56.793C173.119 56.6421 173.968 56.5477 174.878 56.5096C175.787 56.4715 176.753 56.5233 177.774 56.6652C179.427 56.8947 180.954 57.3397 182.356 58.0001C183.771 58.6624 184.968 59.5135 185.947 60.5536C186.926 61.5937 187.647 62.8104 188.111 64.2037C188.577 65.5835 188.694 67.1134 188.46 68.7934C188.283 70.0702 187.959 71.0732 187.488 71.8023C187.018 72.518 186.467 73.0853 185.833 73.5042C185.2 73.9231 184.51 74.252 183.765 74.491C183.019 74.7299 182.282 75.0044 181.554 75.3142C180.842 75.6126 180.163 76.0115 179.518 76.511C178.887 77.0124 178.355 77.7332 177.923 78.6732ZM178.192 84.1355C178.11 84.7268 177.92 85.262 177.62 85.741C177.321 86.22 176.95 86.6206 176.508 86.9428C176.078 87.2803 175.592 87.5211 175.051 87.6652C174.509 87.8228 173.949 87.8614 173.371 87.7812C172.78 87.6991 172.244 87.5083 171.765 87.2089C171.284 86.9229 170.876 86.558 170.541 86.1141C170.217 85.6856 169.976 85.2 169.818 84.6576C169.674 84.117 169.643 83.551 169.725 82.9597C169.805 82.3817 169.989 81.8456 170.277 81.3513C170.579 80.8589 170.943 80.4506 171.372 80.1266C171.816 79.7909 172.309 79.5443 172.852 79.3868C173.394 79.2292 173.961 79.1915 174.552 79.2736C175.13 79.3539 175.659 79.5437 176.138 79.8431C176.617 80.1425 177.017 80.5132 177.339 80.9552C177.677 81.3857 177.924 81.8789 178.079 82.4347C178.235 82.9906 178.273 83.5575 178.192 84.1355Z" fill="url(#paint4_linear_76_16633)"/>
</g>
<g filter="url(#filter1_d_76_16633)">
<path d="M71.2608 43.4874L62.3085 45.5867L60.697 37.2543L56.5422 38.0205L57.7486 45.9794L49.6557 47.472L45.6579 21.9468L54.3299 20.7583L56.18 33.8286L60.1903 33.0889L57.6545 19.1365L65.9318 17.8341L71.2608 43.4874Z" fill="url(#paint5_linear_76_16633)"/>
<path d="M96.1862 28.0045C96.2892 29.1142 96.2607 30.1991 96.1008 31.2593C95.9398 32.3073 95.6572 33.3051 95.2532 34.2527C94.8613 35.1992 94.353 36.0826 93.7281 36.9031C93.1142 37.7103 92.3993 38.4223 91.5834 39.0391C90.7796 39.6549 89.8858 40.1621 88.902 40.5608C87.9171 40.9474 86.8576 41.1932 85.7236 41.2985C84.6261 41.4003 83.5645 41.3573 82.5386 41.1696C81.5249 40.9808 80.5619 40.6766 79.6498 40.257C78.7365 39.8252 77.8935 39.2885 77.1206 38.6468C76.3588 37.9919 75.6878 37.2547 75.1076 36.4354C74.5384 35.6027 74.0672 34.6994 73.6939 33.7255C73.3329 32.7505 73.1021 31.7204 73.0014 30.6352C72.9029 29.5743 72.9348 28.526 73.097 27.4901C73.258 26.4421 73.5345 25.4449 73.9263 24.4984C74.3303 23.5508 74.8387 22.6674 75.4514 21.848C76.0641 21.0286 76.7657 20.3056 77.5562 19.6788C78.3588 19.0509 79.2399 18.5387 80.1993 18.1422C81.1587 17.7457 82.1871 17.4966 83.2845 17.3948C85.0526 17.2308 86.6876 17.3558 88.1896 17.7699C89.7037 18.1828 91.0205 18.8539 92.1398 19.7832C93.2701 20.6991 94.1831 21.8566 94.8786 23.2556C95.5852 24.6413 96.0211 26.2242 96.1862 28.0045ZM88.1094 29.2335C88.0607 28.7092 87.9345 28.2105 87.7307 27.7375C87.538 27.2511 87.2778 26.8325 86.9501 26.4816C86.6212 26.1186 86.2266 25.8416 85.7661 25.6506C85.3167 25.4463 84.8116 25.3702 84.2506 25.4223C83.6775 25.4754 83.175 25.6266 82.7431 25.8757C82.3112 26.1249 81.9475 26.4476 81.6523 26.844C81.368 27.227 81.1632 27.6703 81.0377 28.1739C80.9111 28.6653 80.8727 29.1793 80.9225 29.7158C80.97 30.2279 81.0907 30.7333 81.2845 31.2318C81.4784 31.7304 81.7408 32.1734 82.0719 32.5608C82.4031 32.9483 82.7939 33.2502 83.2444 33.4667C83.7071 33.682 84.2251 33.7631 84.7982 33.71C85.3713 33.6568 85.8732 33.4995 86.304 33.2382C86.7459 32.9635 87.1078 32.6225 87.3898 32.2151C87.6706 31.7954 87.8732 31.3277 87.9975 30.812C88.1219 30.2962 88.1591 29.77 88.1094 29.2335Z" fill="url(#paint6_linear_76_16633)"/>
<path d="M131.086 15.9633L126.989 41.4562L116.558 41.7593L114.212 28.5885L112.068 40.8397L101.638 41.2898L97.1038 16.2328L106.208 15.3523L108.166 30.5836L110.506 15.3182L117.67 15.2614L120.658 30.6683L122.005 15.2271L131.086 15.9633Z" fill="url(#paint7_linear_76_16633)"/>
<path d="M176.178 16.3064L175.392 24.0573L169.917 23.8531L167.177 41.1065L159.417 40.909L160.802 23.5503L155.322 23.4193L156.213 14.7922L176.178 16.3064Z" fill="url(#paint8_linear_76_16633)"/>
<path d="M197.981 33.7317C197.787 34.829 197.472 35.8677 197.037 36.8478C196.604 37.8159 196.068 38.7033 195.428 39.5102C194.799 40.3192 194.075 41.0366 193.255 41.6625C192.45 42.2784 191.572 42.7758 190.622 43.1547C189.684 43.5358 188.688 43.7884 187.633 43.9125C186.581 44.0246 185.495 43.9814 184.373 43.7827C183.288 43.5904 182.275 43.2681 181.336 42.8156C180.408 42.3652 179.56 41.817 178.792 41.1709C178.025 40.5128 177.354 39.7721 176.779 38.9488C176.217 38.1156 175.765 37.2272 175.423 36.2835C175.094 35.3298 174.879 34.334 174.777 33.2961C174.686 32.2604 174.736 31.2059 174.927 30.1327C175.112 29.0836 175.421 28.0811 175.851 27.1251C176.284 26.1571 176.814 25.2685 177.443 24.4595C178.083 23.6527 178.807 22.9352 179.615 22.3072C180.422 21.6792 181.29 21.1676 182.219 20.7724C183.159 20.3793 184.144 20.1185 185.174 19.9901C186.204 19.8617 187.262 19.8936 188.347 20.0858C190.096 20.3956 191.639 20.9488 192.978 21.7457C194.329 22.5446 195.421 23.5403 196.255 24.7326C197.102 25.915 197.676 27.2728 197.977 28.806C198.291 30.3293 198.293 31.9712 197.981 33.7317ZM189.867 32.7793C189.959 32.2608 189.969 31.7465 189.898 31.2364C189.84 30.7164 189.7 30.2438 189.477 29.8188C189.256 29.3816 188.949 29.0101 188.555 28.7041C188.176 28.3881 187.709 28.181 187.154 28.0828C186.588 27.9824 186.063 27.9951 185.58 28.1211C185.098 28.2471 184.662 28.4621 184.272 28.7661C183.897 29.0603 183.582 29.4336 183.328 29.886C183.076 30.3264 182.903 30.8119 182.809 31.3424C182.719 31.8489 182.701 32.3681 182.756 32.9002C182.811 33.4323 182.947 33.929 183.164 34.3902C183.381 34.8515 183.678 35.2461 184.055 35.5741C184.444 35.9042 184.922 36.1195 185.489 36.2199C186.056 36.3203 186.581 36.3014 187.066 36.1634C187.565 36.0155 188.004 35.7824 188.384 35.4641C188.766 35.1338 189.085 34.7364 189.341 34.2719C189.598 33.8074 189.773 33.3099 189.867 32.7793Z" fill="url(#paint9_linear_76_16633)"/>
</g>
</g>
<defs>
<filter id="filter0_d_76_16633" x="58.8696" y="53.5527" width="131.041" height="39.6723" filterUnits="userSpaceOnUse" color-interpolation-filters="sRGB">
<feFlood flood-opacity="0" result="BackgroundImageFix"/>
<feColorMatrix in="SourceAlpha" type="matrix" values="0 0 0 0 0 0 0 0 0 0 0 0 0 0 0 0 0 0 127 0" result="hardAlpha"/>
<feOffset dy="2.044"/>
<feComposite in2="hardAlpha" operator="out"/>
<feColorMatrix type="matrix" values="0 0 0 0 0.211765 0 0 0 0 0.0823529 0 0 0 0 0 0 0 0 1 0"/>
<feBlend mode="normal" in2="BackgroundImageFix" result="effect1_dropShadow_76_16633"/>
<feBlend mode="normal" in="SourceGraphic" in2="effect1_dropShadow_76_16633" result="shape"/>
</filter>
<filter id="filter1_d_76_16633" x="44.8647" y="14.7385" width="155.167" height="35.199" filterUnits="userSpaceOnUse" color-interpolation-filters="sRGB">
<feFlood flood-opacity="0" result="BackgroundImageFix"/>
<feColorMatrix in="SourceAlpha" type="matrix" values="0 0 0 0 0 0 0 0 0 0 0 0 0 0 0 0 0 0 127 0" result="hardAlpha"/>
<feOffset dy="2.032"/>
<feComposite in2="hardAlpha" operator="out"/>
<feColorMatrix type="matrix" values="0 0 0 0 0.211765 0 0 0 0 0.0823529 0 0 0 0 0 0 0 0 1 0"/>
<feBlend mode="normal" in2="BackgroundImageFix" result="effect1_dropShadow_76_16633"/>
<feBlend mode="normal" in="SourceGraphic" in2="effect1_dropShadow_76_16633" result="shape"/>
</filter>
<linearGradient id="paint0_linear_76_16633" x1="74.2657" y1="59.3876" x2="81.3185" y2="100.791" gradientUnits="userSpaceOnUse">
<stop stop-color="#EBFF00"/>
<stop offset="0.715" stop-color="#FF5900"/>
</linearGradient>
<linearGradient id="paint1_linear_76_16633" x1="102.092" y1="55.6032" x2="105.989" y2="97.422" gradientUnits="userSpaceOnUse">
<stop stop-color="#EBFF00"/>
<stop offset="0.715" stop-color="#FF5900"/>
</linearGradient>
<linearGradient id="paint2_linear_76_16633" x1="127.389" y1="54.335" x2="127.716" y2="96.3338" gradientUnits="userSpaceOnUse">
<stop stop-color="#EBFF00"/>
<stop offset="0.715" stop-color="#FF5900"/>
</linearGradient>
<linearGradient id="paint3_linear_76_16633" x1="154.424" y1="55.8083" x2="151.472" y2="97.7044" gradientUnits="userSpaceOnUse">
<stop stop-color="#EBFF00"/>
<stop offset="0.715" stop-color="#FF5900"/>
</linearGradient>
<linearGradient id="paint4_linear_76_16633" x1="179.663" y1="57.6505" x2="173.886" y2="99.2513" gradientUnits="userSpaceOnUse">
<stop stop-color="#EBFF00"/>
<stop offset="0.715" stop-color="#FF5900"/>
</linearGradient>
<linearGradient id="paint5_linear_76_16633" x1="55.801" y1="18.8833" x2="62.693" y2="56.253" gradientUnits="userSpaceOnUse">
<stop stop-color="#EBFF00"/>
<stop offset="0.715" stop-color="#FF5900"/>
</linearGradient>
<linearGradient id="paint6_linear_76_16633" x1="83.2988" y1="15.1085" x2="86.8092" y2="52.946" gradientUnits="userSpaceOnUse">
<stop stop-color="#EBFF00"/>
<stop offset="0.715" stop-color="#FF5900"/>
</linearGradient>
<linearGradient id="paint7_linear_76_16633" x1="114.499" y1="14.5911" x2="114.801" y2="52.5899" gradientUnits="userSpaceOnUse">
<stop stop-color="#EBFF00"/>
<stop offset="0.715" stop-color="#FF5900"/>
</linearGradient>
<linearGradient id="paint8_linear_76_16633" x1="166.412" y1="14.8133" x2="163.469" y2="52.6991" gradientUnits="userSpaceOnUse">
<stop stop-color="#EBFF00"/>
<stop offset="0.715" stop-color="#FF5900"/>
</linearGradient>
<linearGradient id="paint9_linear_76_16633" x1="188.966" y1="17.8848" x2="182.337" y2="55.3022" gradientUnits="userSpaceOnUse">
<stop stop-color="#EBFF00"/>
<stop offset="0.715" stop-color="#FF5900"/>
</linearGradient>
<clipPath id="clip0_76_16633">
<rect width="254" height="118" fill="white" transform="translate(0.100098)"/>
</clipPath>
</defs>
</svg>
