<svg width="500" height="500" viewBox="0 0 500 500" fill="none" xmlns="http://www.w3.org/2000/svg">
<path d="M81 308.5C98.5 306.1 118.6 304.2 138.2 304.4C119 303.8 98.8 304.9 81 308.5Z" fill="#361500"/>
<path d="M431.1 247.7L463.6 257L463.5 254.7L431.1 247.7Z" fill="#361500"/>
<path d="M39.9 201.9C28.4 206.2 16.7 207 12 212.9C9.49998 216.1 11.1 226.8 11.1 226.8C11.1 226.8 32.2 256.3 58 312.2C64.8 311 72.6 309.7 81 308.6C98.8 305 119 303.9 138.2 304.5C152.1 304.6 165.8 305.7 178.2 308.3C166.3 306.3 152.5 304.9 138.2 304.5C118.6 304.4 98.5 306.2 81 308.6C75.4 309.7 70.1 311 65.1 312.7C64.1 313 65 325.4 64.1 325.7C68.9 336.5 73.7 348 78.6 360.5C252.4 292.2 420.9 360.5 420.9 360.5C420.9 360.5 442.6 316.6 464.1 268L463.6 257.1L431.1 247.8L463.5 254.8L463.6 257L468.4 258.4C474.9 243.4 481.3 228.1 487 213.8C487.9 211.6 488.4 196.6 489.2 194.5C410.7 147.2 349.8 153.7 229 153.1C108 152.4 39.9 201.9 39.9 201.9Z" fill="#361500"/>
<path d="M489.4 193.9C410.9 146.6 349.7 140.3 228.8 139.6C108 139 39.8001 188.4 39.8001 188.4C22.0001 195 11.1001 213.3 11.1001 213.3C11.1001 213.3 32.2001 242.8 58.0001 298.7C89.2001 293.1 140 286.6 178.2 294.8C144.4 289 97.1001 301.2 64.1001 312.1C68.9001 322.9 73.7001 334.4 78.6001 346.9C252.4 278.6 420.9 346.9 420.9 346.9C420.9 346.9 442.6 303 464.1 254.4L431.1 234.2L468.4 244.8C475.9 227.7 483.2 210.1 489.4 193.9Z" fill="#734425"/>
<path d="M489.4 193.9C477.9 187 466.8 181 455.8 175.7C422.7 238.3 328.7 291.4 192 276.9C120.2 269.3 77 275.5 51.2 284.5C53.4 289.1 55.7 293.7 58 298.7C89.2 293.1 140 286.6 178.2 294.8C144.4 289 97.0999 301.2 64.0999 312.1C68.8999 322.9 73.6999 334.4 78.5999 346.9C252.4 278.6 420.9 346.9 420.9 346.9C420.9 346.9 442.6 303 464.1 254.4L431.1 234.2L468.4 244.8C475.9 227.7 483.2 210.1 489.4 193.9Z" fill="#714121"/>
<path d="M430.5 327.3C433.3 321.6 434.6 318.7 438.5 310.5C429.8 308.6 421 307 412.2 305.8C397.2 303.7 383.4 298.1 368.8 294.5C341.7 287.8 314.1 281.3 286.1 280.1C277.8 279.8 269.6 281.3 261.4 281.1C261.1 281.1 258.9 280.7 258.8 280.8C258.5 281.3 259.8 281.1 260.4 281.2C263.7 281.7 267 282.2 270.3 282.7C276.3 283.5 282.4 283.8 288.5 284.4C305.7 286.3 322.7 289.2 339.5 293.5C363.5 299.6 384.8 311.8 407.9 320.3C409.4 320.9 420.1 324.1 430.5 327.3Z" fill="#462814"/>
<path d="M112.2 310.8C96.6 313.6 81.3 315.4 66 316.8C66.8 318.7 67.7 320.7 68.5 322.7C83.7 321.1 101.4 320.3 106.7 319.6C177.5 311.1 249.6 295.1 320.3 314.7C331 317.7 344.5 320.5 353.5 327.3C353.8 327.5 354.2 327.9 354.5 328.2C364.9 330.4 373.9 332.6 382.1 334.8C374.5 329.4 366.9 324.2 358.7 319.6C327.7 302.6 291.2 296.2 253.5 295.6C205.1 294.7 154.9 303.3 112.2 310.8Z" fill="#462814"/>
<path d="M355.9 173.2C345.7 171.9 335.3 171.2 325.2 169.6C312.2 167.5 299.3 163.5 286.1 162.6C282.3 162.3 278.4 162.2 274.5 162.1C262.9 161.9 251.1 162.6 239.6 163.4C209.7 165.3 178.9 169.1 149.7 175.7C104.1 186.1 58.6999 200.4 17.8999 223.5C18.4999 224.4 18.9999 225.2 19.5999 226.2C20.8999 225.5 22.3999 224.8 23.8999 224.1C40.6999 216.7 57.8999 208.1 74.9999 201.4C85.4999 197.3 96.5999 195.4 107.4 192.2C115.7 189.7 123.5 186 132 184C146.4 180.7 161.1 179.9 175.7 178.6C192.3 177.1 208.9 173.9 225.4 172.6C243.1 171.2 260.8 172.9 278.5 173.6C302.2 174.5 325.5 175.8 349.3 175.1C356 174.9 362.9 174.7 369.5 175.6C372.1 175.9 378.2 179.2 377.3 176.8C376.1 173.6 359.7 173.6 355.9 173.2Z" fill="#462814"/>
<path d="M451.5 282.5C446 279.8 440.5 277.2 435 274.7C415.7 265.8 395.4 260.8 374.6 257C347.1 252 319.7 250.2 292.3 250.3C232 250.5 171.9 259.8 111.6 264.5C89.1001 266.3 66.4001 266.2 44.1001 270.1C46.4001 274.5 48.7001 279.1 51.1001 284C74.5001 280.1 97.9001 276.1 121.4 272.7C208 260.2 272.3 253.5 359.3 266.4C378.6 269.3 421.2 277.2 448.2 289.8C449.2 287.6 450.3 284.9 451.5 282.5Z" fill="#462814"/>
<path d="M481.8 212.9C482.8 210.5 483.7 208.3 484.6 205.9C462.6 201.7 432.2 199.5 422.1 198.7C405.4 197.5 388.4 196.8 371.3 196.9C342.9 197 314.3 198.9 286.6 202.8C261.9 206.3 237.3 211 212.5 214.3C171.2 219.8 128.6 220.1 87.6 228.3C68.5 232.1 48.3 237.1 29.8 243.9C30.1 244.4 30.4001 244.9 30.7001 245.5C66.8 229.9 126.8 230 163.4 226.9C184.8 225.1 206.3 223.9 227.6 221.3C256.9 217.7 286.1 211.5 315.6 209.5C332.3 208.4 349 209.2 365.7 209.2C394.2 209.2 422.9 208.9 451.3 211.4C461.5 212.3 471.7 212.1 481.8 212.9Z" fill="#462814"/>
<path d="M277.6 214.3C281.3 213.8 285 213.2 288.7 212.7C331.7 206.5 357.5 204.7 383.1 205.3C397.5 205.6 405.4 205.3 405.5 204.8C405.6 204.3 397 203.6 383.2 202.6C358.5 200.7 330.2 202.1 288.1 208.2C284.3 208.7 280.6 209.3 277 209.9C241.2 215.4 227.6 217.9 202.4 220.7C183.5 222.9 171.8 223.5 171.8 224C171.8 224.6 183.5 225.1 202.6 223.7C224.8 222.1 245 219.1 277.6 214.3Z" fill="#361500"/>
<path d="M222.7 170.9H222.9C245.2 168.3 262.4 167.9 277.4 168.7C291.3 169.4 299.9 170.9 300 170.3C300.1 169.7 291.7 167.1 277.6 165.5C262.7 163.9 244.6 163.8 222.3 166.4H222.1C201.3 168.9 181.1 173.2 168 176.3C154.3 179.5 146 181.9 146.1 182.5C146.2 183.1 154.8 181.9 168.7 179.4C181.3 177.2 202.8 173.3 222.7 170.9Z" fill="#361500"/>
<path d="M304.2 254.2C327.2 255.5 347.6 257.7 363.8 259.7C373.6 260.9 381.5 261 386.9 261.7C392.3 262.4 395.2 263.3 395.3 263C395.5 262.4 383.1 259.5 364.3 256.3C348.3 253.6 327.6 250.9 304.5 249.6C278.6 248.2 256.6 248.9 239.5 250.4C222.9 251.9 212.8 253.8 212.9 254.4C213 255 223.2 254.2 239.8 253.5C256.9 253 278.2 252.7 304.2 254.2Z" fill="#361500"/>
<path d="M358.3 297.7C365.1 300.5 373.7 302.7 384.6 303.8H384.7C394.1 304.8 405.6 305 411.3 305.1C418.1 305.2 422.3 305.3 422.4 304.6C422.5 304 418.4 302.8 411.6 301.9C404.8 300.9 395.4 300.3 385.2 299.2H385.1C374.2 298 366.4 296.5 359.3 294.6C352.9 292.8 348.9 291.3 348.7 291.8C348.5 292.5 351.9 295.1 358.3 297.7Z" fill="#361500"/>
<path d="M170.6 307.9C181.8 306.8 197.1 304.7 214 302.9H214.2C232.2 301 245.2 300.4 257.4 300.6C268.4 300.8 275.3 301.6 275.4 301C275.5 300.4 268.8 298.5 257.6 297.4C245.7 296.3 231.5 296.4 213.7 298.4H213.5C198 300.1 179.6 303.2 170.2 304.8C159.2 306.7 152.4 307.9 152.4 308.5C152.4 309.1 159.4 309 170.6 307.9Z" fill="#361500"/>
<g filter="url(#filter0_d_9_2076)">
<path d="M101.911 251.519C102.347 253.997 102.79 256.445 103.24 258.865C103.69 261.284 104.107 263.739 104.492 266.23L88.191 271.093L89.3817 275.999L103.71 272.521L105.861 284.781L92.328 288.477L98.0004 311.508L78.3935 316.68L66.0121 260.232L101.911 251.519Z" fill="white"/>
<path d="M101.911 251.519C102.347 253.997 102.79 256.445 103.24 258.865C103.69 261.284 104.107 263.739 104.492 266.23L88.191 271.093L89.3817 275.999L103.71 272.521L105.861 284.781L92.328 288.477L98.0004 311.508L78.3935 316.68L66.0121 260.232L101.911 251.519Z" fill="url(#paint0_linear_9_2076)"/>
<path d="M167.437 295.264L148.277 301.129L144.387 292.606L135.381 294.14L134.927 303.403L114.447 304.859L121.205 249.571L142.977 244.725L167.437 295.264ZM140.906 280.762L135.563 267.529L134.981 281.772L140.906 280.762Z" fill="white"/>
<path d="M167.437 295.264L148.277 301.129L144.387 292.606L135.381 294.14L134.927 303.403L114.447 304.859L121.205 249.571L142.977 244.725L167.437 295.264ZM140.906 280.762L135.563 267.529L134.981 281.772L140.906 280.762Z" fill="url(#paint1_linear_9_2076)"/>
<path d="M214.433 255.302C214.626 257.377 214.616 259.282 214.402 261.019C214.212 262.727 213.798 264.321 213.158 265.803C212.518 267.284 211.642 268.68 210.53 269.991C209.418 271.302 208.049 272.583 206.422 273.835L217.492 289.864L199.868 295.048L192.14 278.626L187.208 279.247L188.037 295.909L170.883 297.508C170.451 291.432 170.008 285.383 169.554 279.363C169.127 273.34 168.711 267.289 168.305 261.21C168.073 258.147 167.844 255.11 167.617 252.1C167.39 249.09 167.214 246.048 167.089 242.974C168.886 242.109 170.668 241.367 172.434 240.746C174.2 240.125 175.977 239.611 177.763 239.203C179.573 238.766 181.405 238.421 183.26 238.168C185.138 237.885 187.061 237.652 189.029 237.469C192.061 237.187 195.026 237.339 197.925 237.928C200.847 238.487 203.477 239.503 205.814 240.975C208.151 242.447 210.088 244.373 211.624 246.751C213.186 249.127 214.123 251.978 214.433 255.302ZM196.679 258.244C196.575 257.127 196.32 256.118 195.914 255.217C195.535 254.313 195.009 253.558 194.335 252.95C193.685 252.313 192.891 251.85 191.952 251.562C191.037 251.245 189.982 251.142 188.785 251.254C188.253 251.303 187.738 251.392 187.24 251.519C186.74 251.619 186.256 251.758 185.79 251.935L186.535 266.835L187.492 266.746C188.636 266.639 189.779 266.385 190.922 265.984C192.091 265.58 193.113 265.028 193.987 264.33C194.887 263.629 195.586 262.772 196.081 261.76C196.604 260.746 196.803 259.574 196.679 258.244Z" fill="white"/>
<path d="M214.433 255.302C214.626 257.377 214.616 259.282 214.402 261.019C214.212 262.727 213.798 264.321 213.158 265.803C212.518 267.284 211.642 268.68 210.53 269.991C209.418 271.302 208.049 272.583 206.422 273.835L217.492 289.864L199.868 295.048L192.14 278.626L187.208 279.247L188.037 295.909L170.883 297.508C170.451 291.432 170.008 285.383 169.554 279.363C169.127 273.34 168.711 267.289 168.305 261.21C168.073 258.147 167.844 255.11 167.617 252.1C167.39 249.09 167.214 246.048 167.089 242.974C168.886 242.109 170.668 241.367 172.434 240.746C174.2 240.125 175.977 239.611 177.763 239.203C179.573 238.766 181.405 238.421 183.26 238.168C185.138 237.885 187.061 237.652 189.029 237.469C192.061 237.187 195.026 237.339 197.925 237.928C200.847 238.487 203.477 239.503 205.814 240.975C208.151 242.447 210.088 244.373 211.624 246.751C213.186 249.127 214.123 251.978 214.433 255.302ZM196.679 258.244C196.575 257.127 196.32 256.118 195.914 255.217C195.535 254.313 195.009 253.558 194.335 252.95C193.685 252.313 192.891 251.85 191.952 251.562C191.037 251.245 189.982 251.142 188.785 251.254C188.253 251.303 187.738 251.392 187.24 251.519C186.74 251.619 186.256 251.758 185.79 251.935L186.535 266.835L187.492 266.746C188.636 266.639 189.779 266.385 190.922 265.984C192.091 265.58 193.113 265.028 193.987 264.33C194.887 263.629 195.586 262.772 196.081 261.76C196.604 260.746 196.803 259.574 196.679 258.244Z" fill="url(#paint2_linear_9_2076)"/>
<path d="M284.628 234.227L281.4 293.071L263.136 294.014L263.055 263.003L254.997 288.067L247.945 288.122L241.441 265.816L241.563 291.778L223.057 292.483L223.427 237.107L244.014 236.146L252.394 262.605L263.073 234.395L284.628 234.227Z" fill="white"/>
<path d="M284.628 234.227L281.4 293.071L263.136 294.014L263.055 263.003L254.997 288.067L247.945 288.122L241.441 265.816L241.563 291.778L223.057 292.483L223.427 237.107L244.014 236.146L252.394 262.605L263.073 234.395L284.628 234.227Z" fill="url(#paint3_linear_9_2076)"/>
<path d="M331.98 238.437C331.644 240.93 331.322 243.398 331.016 245.84C330.711 248.282 330.363 250.748 329.973 253.237L312.965 252.922L312.211 257.93L324.121 258.769L322.369 271.097L310.35 270.652L309.54 276.459L319.451 277.157L326.485 277.653C326.119 280.573 325.74 283.478 325.349 286.369C324.987 289.236 324.636 292.116 324.298 295.011L289.791 293.383L295.13 235.841L331.98 238.437Z" fill="white"/>
<path d="M331.98 238.437C331.644 240.93 331.322 243.398 331.016 245.84C330.711 248.282 330.363 250.748 329.973 253.237L312.965 252.922L312.211 257.93L324.121 258.769L322.369 271.097L310.35 270.652L309.54 276.459L319.451 277.157L326.485 277.653C326.119 280.573 325.74 283.478 325.349 286.369C324.987 289.236 324.636 292.116 324.298 295.011L289.791 293.383L295.13 235.841L331.98 238.437Z" fill="url(#paint4_linear_9_2076)"/>
<path d="M383.728 264.803C383.442 266.867 382.996 268.72 382.39 270.361C381.815 271.981 381.046 273.438 380.084 274.734C379.122 276.029 377.95 277.188 376.567 278.209C375.185 279.231 373.559 280.165 371.688 281.011L378.797 299.149L360.454 300.161L356.69 282.407L351.747 281.882L348.74 298.292L331.675 295.922C332.645 289.908 333.598 283.919 334.534 277.955C335.497 271.994 336.476 266.008 337.473 259.998C337.948 256.963 338.42 253.954 338.888 250.972C339.356 247.99 339.881 244.988 340.462 241.968C342.409 241.537 344.314 241.222 346.175 241.022C348.037 240.822 349.884 240.728 351.716 240.74C353.578 240.728 355.441 240.812 357.304 240.99C359.197 241.145 361.122 241.358 363.08 241.63C366.096 242.049 368.948 242.876 371.635 244.112C374.352 245.326 376.679 246.916 378.617 248.884C380.555 250.852 382 253.17 382.951 255.837C383.928 258.507 384.187 261.496 383.728 264.803ZM365.773 263.604C365.927 262.493 365.91 261.453 365.721 260.483C365.558 259.516 365.219 258.66 364.702 257.914C364.216 257.145 363.548 256.513 362.7 256.018C361.882 255.5 360.878 255.158 359.688 254.993C359.158 254.919 358.637 254.887 358.123 254.897C357.613 254.88 357.111 254.905 356.616 254.971L353.931 269.646L354.884 269.778C356.021 269.936 357.192 269.95 358.397 269.821C359.628 269.695 360.749 269.392 361.759 268.912C362.796 268.436 363.672 267.762 364.386 266.891C365.127 266.023 365.589 264.927 365.773 263.604Z" fill="white"/>
<path d="M383.728 264.803C383.442 266.867 382.996 268.72 382.39 270.361C381.815 271.981 381.046 273.438 380.084 274.734C379.122 276.029 377.95 277.188 376.567 278.209C375.185 279.231 373.559 280.165 371.688 281.011L378.797 299.149L360.454 300.161L356.69 282.407L351.747 281.882L348.74 298.292L331.675 295.922C332.645 289.908 333.598 283.919 334.534 277.955C335.497 271.994 336.476 266.008 337.473 259.998C337.948 256.963 338.42 253.954 338.888 250.972C339.356 247.99 339.881 244.988 340.462 241.968C342.409 241.537 344.314 241.222 346.175 241.022C348.037 240.822 349.884 240.728 351.716 240.74C353.578 240.728 355.441 240.812 357.304 240.99C359.197 241.145 361.122 241.358 363.08 241.63C366.096 242.049 368.948 242.876 371.635 244.112C374.352 245.326 376.679 246.916 378.617 248.884C380.555 250.852 382 253.17 382.951 255.837C383.928 258.507 384.187 261.496 383.728 264.803ZM365.773 263.604C365.927 262.493 365.91 261.453 365.721 260.483C365.558 259.516 365.219 258.66 364.702 257.914C364.216 257.145 363.548 256.513 362.7 256.018C361.882 255.5 360.878 255.158 359.688 254.993C359.158 254.919 358.637 254.887 358.123 254.897C357.613 254.88 357.111 254.905 356.616 254.971L353.931 269.646L354.884 269.778C356.021 269.936 357.192 269.95 358.397 269.821C359.628 269.695 360.749 269.392 361.759 268.912C362.796 268.436 363.672 267.762 364.386 266.891C365.127 266.023 365.589 264.927 365.773 263.604Z" fill="url(#paint5_linear_9_2076)"/>
<path d="M428.985 295.924C428.23 299.504 426.942 302.508 425.12 304.936C423.329 307.343 421.162 309.206 418.618 310.526C416.1 311.852 413.297 312.653 410.209 312.93C407.146 313.212 403.956 313.004 400.636 312.304C399.356 312.034 397.98 311.566 396.51 310.901C395.065 310.242 393.612 309.499 392.148 308.672C390.69 307.818 389.29 306.95 387.948 306.066C386.637 305.162 385.475 304.33 384.461 303.57L389.591 287.782C391.532 289.583 393.774 291.121 396.317 292.394C398.892 293.646 401.486 294.548 404.1 295.099C404.596 295.204 405.2 295.318 405.911 295.44C406.628 295.537 407.319 295.56 407.985 295.509C408.683 295.438 409.295 295.253 409.822 294.954C410.349 294.656 410.689 294.141 410.844 293.409C410.948 292.913 410.88 292.461 410.638 292.055C410.401 291.623 410.057 291.25 409.604 290.937C409.157 290.597 408.631 290.308 408.026 290.072C407.426 289.809 406.831 289.588 406.241 289.409C405.651 289.23 405.095 289.085 404.572 288.975C404.049 288.865 403.631 288.777 403.317 288.71C401.07 288.237 399.101 287.412 397.41 286.237C395.746 285.067 394.394 283.649 393.353 281.983C392.343 280.296 391.674 278.421 391.344 276.359C391.02 274.271 391.095 272.103 391.569 269.855C392.219 266.771 393.415 264.143 395.156 261.971C396.928 259.779 399.026 258.051 401.449 256.787C403.903 255.503 406.573 254.688 409.458 254.34C412.343 253.993 415.223 254.123 418.098 254.729C419.379 254.999 420.687 255.329 422.024 255.72C423.367 256.085 424.68 256.526 425.963 257.042C427.273 257.564 428.529 258.143 429.733 258.779C430.936 259.415 432.055 260.128 433.09 260.919L428.244 276.522C426.593 275.546 424.829 274.656 422.952 273.851C421.106 273.025 419.255 272.416 417.4 272.025C417.06 271.953 416.613 271.873 416.058 271.783C415.536 271.673 414.965 271.594 414.348 271.545C413.762 271.476 413.154 271.444 412.526 271.448C411.897 271.452 411.323 271.522 410.803 271.658C410.288 271.768 409.848 271.975 409.484 272.281C409.119 272.586 408.898 272.99 408.819 273.492C408.724 274.072 408.834 274.587 409.149 275.035C409.495 275.463 409.96 275.848 410.543 276.189C411.158 276.51 411.836 276.789 412.578 277.027C413.345 277.271 414.105 277.486 414.858 277.672C415.616 277.832 416.321 277.981 416.975 278.118C417.634 278.23 418.167 278.356 418.574 278.496C420.637 279.068 422.425 279.909 423.938 281.02C425.451 282.13 426.65 283.434 427.536 284.931C428.448 286.433 429.019 288.124 429.251 290.001C429.515 291.859 429.426 293.833 428.985 295.924Z" fill="white"/>
<path d="M428.985 295.924C428.23 299.504 426.942 302.508 425.12 304.936C423.329 307.343 421.162 309.206 418.618 310.526C416.1 311.852 413.297 312.653 410.209 312.93C407.146 313.212 403.956 313.004 400.636 312.304C399.356 312.034 397.98 311.566 396.51 310.901C395.065 310.242 393.612 309.499 392.148 308.672C390.69 307.818 389.29 306.95 387.948 306.066C386.637 305.162 385.475 304.33 384.461 303.57L389.591 287.782C391.532 289.583 393.774 291.121 396.317 292.394C398.892 293.646 401.486 294.548 404.1 295.099C404.596 295.204 405.2 295.318 405.911 295.44C406.628 295.537 407.319 295.56 407.985 295.509C408.683 295.438 409.295 295.253 409.822 294.954C410.349 294.656 410.689 294.141 410.844 293.409C410.948 292.913 410.88 292.461 410.638 292.055C410.401 291.623 410.057 291.25 409.604 290.937C409.157 290.597 408.631 290.308 408.026 290.072C407.426 289.809 406.831 289.588 406.241 289.409C405.651 289.23 405.095 289.085 404.572 288.975C404.049 288.865 403.631 288.777 403.317 288.71C401.07 288.237 399.101 287.412 397.41 286.237C395.746 285.067 394.394 283.649 393.353 281.983C392.343 280.296 391.674 278.421 391.344 276.359C391.02 274.271 391.095 272.103 391.569 269.855C392.219 266.771 393.415 264.143 395.156 261.971C396.928 259.779 399.026 258.051 401.449 256.787C403.903 255.503 406.573 254.688 409.458 254.34C412.343 253.993 415.223 254.123 418.098 254.729C419.379 254.999 420.687 255.329 422.024 255.72C423.367 256.085 424.68 256.526 425.963 257.042C427.273 257.564 428.529 258.143 429.733 258.779C430.936 259.415 432.055 260.128 433.09 260.919L428.244 276.522C426.593 275.546 424.829 274.656 422.952 273.851C421.106 273.025 419.255 272.416 417.4 272.025C417.06 271.953 416.613 271.873 416.058 271.783C415.536 271.673 414.965 271.594 414.348 271.545C413.762 271.476 413.154 271.444 412.526 271.448C411.897 271.452 411.323 271.522 410.803 271.658C410.288 271.768 409.848 271.975 409.484 272.281C409.119 272.586 408.898 272.99 408.819 273.492C408.724 274.072 408.834 274.587 409.149 275.035C409.495 275.463 409.96 275.848 410.543 276.189C411.158 276.51 411.836 276.789 412.578 277.027C413.345 277.271 414.105 277.486 414.858 277.672C415.616 277.832 416.321 277.981 416.975 278.118C417.634 278.23 418.167 278.356 418.574 278.496C420.637 279.068 422.425 279.909 423.938 281.02C425.451 282.13 426.65 283.434 427.536 284.931C428.448 286.433 429.019 288.124 429.251 290.001C429.515 291.859 429.426 293.833 428.985 295.924Z" fill="url(#paint6_linear_9_2076)"/>
</g>
<g filter="url(#filter1_d_9_2076)">
<path d="M166.302 200.997C166.665 202.965 166.61 204.727 166.137 206.285C165.688 207.839 164.951 209.225 163.926 210.444C162.9 211.662 161.653 212.738 160.182 213.671C158.731 214.576 157.185 215.364 155.544 216.034C153.903 216.705 152.228 217.259 150.519 217.696C148.834 218.13 147.245 218.484 145.751 218.759C144.281 219.031 142.741 219.253 141.131 219.428C139.549 219.621 137.952 219.732 136.339 219.76C134.726 219.788 133.122 219.728 131.526 219.581C129.926 219.411 128.389 219.118 126.915 218.704L118.397 172.915C119.624 172.125 120.945 171.379 122.359 170.677C123.77 169.951 125.219 169.304 126.708 168.735C128.216 168.138 129.727 167.627 131.242 167.2C132.752 166.75 134.23 166.392 135.676 166.125C137.359 165.815 139.074 165.609 140.82 165.507C142.59 165.402 144.315 165.451 145.995 165.656C147.676 165.861 149.277 166.24 150.801 166.792C152.32 167.321 153.697 168.072 154.93 169.046C156.188 170.015 157.243 171.217 158.096 172.653C158.973 174.085 159.597 175.808 159.969 177.824C160.214 179.151 160.254 180.431 160.089 181.662C159.923 182.894 159.571 184.037 159.03 185.093C158.489 186.149 157.77 187.103 156.873 187.954C155.972 188.783 154.91 189.469 153.686 190.013C155.302 190.132 156.81 190.467 158.21 191.017C159.635 191.563 160.888 192.313 161.971 193.265C163.077 194.213 163.997 195.343 164.729 196.654C165.484 197.961 166.009 199.409 166.302 200.997ZM144.499 184.059C144.372 183.372 144.123 182.817 143.751 182.396C143.375 181.95 142.945 181.613 142.461 181.383C142.001 181.149 141.509 181.007 140.985 180.957C140.485 180.902 140.045 180.91 139.666 180.98C139.192 181.067 138.743 181.223 138.318 181.449C137.894 181.674 137.486 181.921 137.095 182.189L138.337 190.123C138.882 190.022 139.549 189.85 140.338 189.607C141.126 189.363 141.86 189.02 142.538 188.576C143.235 188.104 143.788 187.512 144.196 186.8C144.599 186.063 144.7 185.15 144.499 184.059ZM141.588 196.583C140.9 196.71 140.249 196.903 139.636 197.164L140.989 205.298C141.357 205.303 141.714 205.311 142.059 205.321C142.424 205.303 142.772 205.263 143.104 205.202C143.601 205.11 144.138 204.962 144.713 204.758C145.284 204.53 145.802 204.214 146.266 203.81C146.727 203.381 147.073 202.864 147.304 202.258C147.559 201.647 147.603 200.891 147.437 199.99C147.271 199.089 146.958 198.387 146.497 197.884C146.06 197.376 145.565 197.014 145.01 196.798C144.451 196.558 143.866 196.445 143.256 196.459C142.642 196.45 142.085 196.491 141.588 196.583Z" fill="url(#paint7_linear_9_2076)"/>
<path d="M221.594 205.253L203.949 209.214L201.034 201.277L192.825 202.039L191.779 210.343L173.25 210.246L183.13 160.958L203.056 158.093L221.594 205.253ZM198.716 190.38L194.817 178.104L193.315 190.881L198.716 190.38Z" fill="url(#paint8_linear_9_2076)"/>
<path d="M263.725 157.17L261.821 172.445C261.12 172.258 260.42 172.131 259.721 172.064C259.021 171.997 258.322 171.966 257.623 171.972C255.839 171.986 254.141 172.241 252.53 172.736C250.919 173.206 249.49 173.929 248.244 174.903C247.022 175.877 246.044 177.09 245.308 178.542C244.596 179.994 244.248 181.697 244.263 183.649C244.273 184.903 244.475 185.986 244.868 186.899C245.285 187.812 245.857 188.567 246.585 189.164C247.313 189.76 248.173 190.2 249.163 190.481C250.154 190.762 251.24 190.898 252.421 190.889C253.313 190.882 254.24 190.778 255.203 190.578C256.165 190.377 257.116 190.117 258.053 189.796C258.991 189.475 259.904 189.106 260.793 188.689C261.681 188.272 262.498 187.844 263.241 187.404L261.93 204.41C260.994 204.9 259.973 205.342 258.867 205.736C257.785 206.106 256.667 206.441 255.512 206.739C254.357 207.014 253.201 207.228 252.045 207.381C250.889 207.535 249.781 207.616 248.721 207.625C245.659 207.649 242.798 207.105 240.137 205.993C237.477 204.881 235.162 203.345 233.194 201.384C231.226 199.422 229.665 197.108 228.511 194.442C227.38 191.751 226.803 188.85 226.778 185.741C226.746 181.619 227.305 177.733 228.458 174.084C229.61 170.41 231.32 167.19 233.588 164.424C235.856 161.658 238.672 159.466 242.034 157.848C245.42 156.23 249.319 155.404 253.73 155.369C255.394 155.356 257.094 155.475 258.832 155.726C260.594 155.977 262.225 156.459 263.725 157.17Z" fill="url(#paint9_linear_9_2076)"/>
<path d="M318.836 186.133C318.666 188.32 318.249 190.416 317.586 192.419C316.924 194.399 316.044 196.241 314.944 197.945C313.869 199.65 312.588 201.195 311.103 202.579C309.643 203.94 308.019 205.083 306.23 206.008C304.466 206.935 302.563 207.621 300.521 208.067C298.481 208.489 296.344 208.613 294.109 208.44C291.946 208.272 289.9 207.835 287.972 207.129C286.069 206.425 284.302 205.514 282.672 204.396C281.044 203.254 279.587 201.932 278.301 200.429C277.042 198.905 275.985 197.251 275.133 195.468C274.306 193.663 273.692 191.754 273.293 189.74C272.917 187.728 272.812 185.653 272.978 183.514C273.141 181.423 273.552 179.399 274.212 177.444C274.873 175.464 275.742 173.621 276.817 171.916C277.917 170.212 279.197 168.667 280.659 167.282C282.121 165.896 283.723 164.727 285.465 163.774C287.232 162.823 289.111 162.123 291.105 161.674C293.098 161.224 295.177 161.083 297.34 161.251C300.825 161.522 303.955 162.309 306.731 163.613C309.531 164.919 311.862 166.659 313.724 168.835C315.612 170.988 316.998 173.538 317.881 176.484C318.79 179.408 319.109 182.624 318.836 186.133ZM302.757 185.827C302.837 184.794 302.758 183.784 302.52 182.798C302.309 181.791 301.943 180.892 301.424 180.102C300.907 179.288 300.234 178.619 299.404 178.095C298.6 177.549 297.645 177.233 296.54 177.147C295.41 177.06 294.385 177.185 293.464 177.525C292.543 177.864 291.73 178.369 291.025 179.04C290.346 179.689 289.801 180.48 289.39 181.416C288.98 182.327 288.735 183.311 288.653 184.369C288.574 185.378 288.64 186.399 288.85 187.43C289.06 188.462 289.422 189.409 289.935 190.271C290.448 191.133 291.106 191.849 291.908 192.419C292.734 192.991 293.712 193.321 294.841 193.409C295.971 193.497 296.997 193.359 297.92 192.995C298.869 192.609 299.685 192.068 300.367 191.372C301.052 190.651 301.601 189.811 302.014 188.852C302.427 187.893 302.674 186.884 302.757 185.827Z" fill="url(#paint10_linear_9_2076)"/>
<path d="M382.595 170.052L371.479 217.878L352.519 216.282L347.129 188.667L340.894 214.737L324.872 211.899L335.098 161.638L353.052 163.937L360.83 191.755L365.689 167.644L382.595 170.052Z" fill="url(#paint11_linear_9_2076)"/>
</g>
<defs>
<filter id="filter0_d_9_2076" x="64.7661" y="234.227" width="372.071" height="87.1262" filterUnits="userSpaceOnUse" color-interpolation-filters="sRGB">
<feFlood flood-opacity="0" result="BackgroundImageFix"/>
<feColorMatrix in="SourceAlpha" type="matrix" values="0 0 0 0 0 0 0 0 0 0 0 0 0 0 0 0 0 0 127 0" result="hardAlpha"/>
<feOffset dy="4.02363"/>
<feComposite in2="hardAlpha" operator="out"/>
<feColorMatrix type="matrix" values="0 0 0 0 0.211765 0 0 0 0 0.0823529 0 0 0 0 0 0 0 0 1 0"/>
<feBlend mode="normal" in2="BackgroundImageFix" result="effect1_dropShadow_9_2076"/>
<feBlend mode="normal" in="SourceGraphic" in2="effect1_dropShadow_9_2076" result="shape"/>
</filter>
<filter id="filter1_d_9_2076" x="117.754" y="155.29" width="264.993" height="70.8407" filterUnits="userSpaceOnUse" color-interpolation-filters="sRGB">
<feFlood flood-opacity="0" result="BackgroundImageFix"/>
<feColorMatrix in="SourceAlpha" type="matrix" values="0 0 0 0 0 0 0 0 0 0 0 0 0 0 0 0 0 0 127 0" result="hardAlpha"/>
<feOffset dy="4"/>
<feComposite in2="hardAlpha" operator="out"/>
<feColorMatrix type="matrix" values="0 0 0 0 0.211765 0 0 0 0 0.0823529 0 0 0 0 0 0 0 0 1 0"/>
<feBlend mode="normal" in2="BackgroundImageFix" result="effect1_dropShadow_9_2076"/>
<feBlend mode="normal" in="SourceGraphic" in2="effect1_dropShadow_9_2076" result="shape"/>
</filter>
<linearGradient id="paint0_linear_9_2076" x1="82.4357" y1="256.015" x2="101.777" y2="335.701" gradientUnits="userSpaceOnUse">
<stop stop-color="#EBFF00"/>
<stop offset="0.715" stop-color="#FF5900"/>
</linearGradient>
<linearGradient id="paint1_linear_9_2076" x1="132.087" y1="245.945" x2="145.856" y2="326.781" gradientUnits="userSpaceOnUse">
<stop stop-color="#EBFF00"/>
<stop offset="0.715" stop-color="#FF5900"/>
</linearGradient>
<linearGradient id="paint2_linear_9_2076" x1="188.737" y1="238.236" x2="196.346" y2="319.883" gradientUnits="userSpaceOnUse">
<stop stop-color="#EBFF00"/>
<stop offset="0.715" stop-color="#FF5900"/>
</linearGradient>
<linearGradient id="paint3_linear_9_2076" x1="253.146" y1="234.888" x2="253.785" y2="316.886" gradientUnits="userSpaceOnUse">
<stop stop-color="#EBFF00"/>
<stop offset="0.715" stop-color="#FF5900"/>
</linearGradient>
<linearGradient id="paint4_linear_9_2076" x1="312.059" y1="236.808" x2="306.296" y2="318.605" gradientUnits="userSpaceOnUse">
<stop stop-color="#EBFF00"/>
<stop offset="0.715" stop-color="#FF5900"/>
</linearGradient>
<linearGradient id="paint5_linear_9_2076" x1="362.621" y1="242.31" x2="351.342" y2="323.531" gradientUnits="userSpaceOnUse">
<stop stop-color="#EBFF00"/>
<stop offset="0.715" stop-color="#FF5900"/>
</linearGradient>
<linearGradient id="paint6_linear_9_2076" x1="415.935" y1="255.681" x2="399.019" y2="335.917" gradientUnits="userSpaceOnUse">
<stop stop-color="#EBFF00"/>
<stop offset="0.715" stop-color="#FF5900"/>
</linearGradient>
<linearGradient id="paint7_linear_9_2076" x1="138.127" y1="166.406" x2="151.548" y2="239.179" gradientUnits="userSpaceOnUse">
<stop stop-color="#EBFF00"/>
<stop offset="0.715" stop-color="#FF5900"/>
</linearGradient>
<linearGradient id="paint8_linear_9_2076" x1="193.238" y1="158.783" x2="200.074" y2="232.467" gradientUnits="userSpaceOnUse">
<stop stop-color="#EBFF00"/>
<stop offset="0.715" stop-color="#FF5900"/>
</linearGradient>
<linearGradient id="paint9_linear_9_2076" x1="245.538" y1="156.155" x2="246.125" y2="230.152" gradientUnits="userSpaceOnUse">
<stop stop-color="#EBFF00"/>
<stop offset="0.715" stop-color="#FF5900"/>
</linearGradient>
<linearGradient id="paint10_linear_9_2076" x1="298.417" y1="157.996" x2="292.685" y2="231.773" gradientUnits="userSpaceOnUse">
<stop stop-color="#EBFF00"/>
<stop offset="0.715" stop-color="#FF5900"/>
</linearGradient>
<linearGradient id="paint11_linear_9_2076" x1="358.476" y1="165.63" x2="345.567" y2="238.495" gradientUnits="userSpaceOnUse">
<stop stop-color="#EBFF00"/>
<stop offset="0.715" stop-color="#FF5900"/>
</linearGradient>
</defs>
</svg>
