<svg width="60" height="60" viewBox="0 0 60 60" fill="none" xmlns="http://www.w3.org/2000/svg">
<g filter="url(#filter0_d_93_536)">
<path d="M40.625 10H19.375C14.1973 10 10 14.1973 10 19.375V40.625C10 45.8027 14.1973 50 19.375 50H40.625C45.8027 50 50 45.8027 50 40.625V19.375C50 14.1973 45.8027 10 40.625 10Z" fill="url(#paint0_linear_93_536)"/>
<mask id="mask0_93_536" style="mask-type:luminance" maskUnits="userSpaceOnUse" x="14" y="17" width="32" height="26">
<path d="M14.375 17.9688H45.625V42.1766H14.375V17.9688Z" fill="white"/>
</mask>
<g mask="url(#mask0_93_536)">
<path d="M40.8293 20.1245C38.8033 19.1945 36.6652 18.5313 34.4685 18.1515C34.4485 18.1478 34.4279 18.1505 34.4096 18.1592C34.3912 18.1679 34.3761 18.1822 34.3663 18.2C34.0916 18.6884 33.7872 19.3259 33.5743 19.8268C31.1722 19.4671 28.7827 19.4671 26.4301 19.8268C26.2169 19.3146 25.9016 18.6884 25.6257 18.2C25.6155 18.1825 25.6002 18.1686 25.582 18.1599C25.5637 18.1513 25.5433 18.1484 25.5233 18.1515C23.3265 18.5305 21.1883 19.1937 19.1626 20.1245C19.1452 20.1318 19.1306 20.1444 19.1207 20.1604C15.0694 26.2129 13.9597 32.1167 14.5041 37.9473C14.5056 37.9616 14.51 37.9754 14.517 37.988C14.524 38.0006 14.5334 38.0116 14.5447 38.0204C17.2176 39.9834 19.8068 41.1751 22.3479 41.965C22.3676 41.9708 22.3887 41.9706 22.4083 41.9641C22.4279 41.9577 22.4451 41.9455 22.4576 41.929C23.0587 41.1081 23.5944 40.2426 24.054 39.3325C24.0603 39.32 24.0639 39.3063 24.0646 39.2924C24.0652 39.2784 24.0629 39.2644 24.0578 39.2514C24.0527 39.2384 24.0449 39.2267 24.0348 39.2169C24.0248 39.2071 24.0129 39.1996 23.9997 39.1948C23.1497 38.8723 22.3405 38.4793 21.5621 38.0329C21.5479 38.0246 21.536 38.0129 21.5274 37.9988C21.5188 37.9848 21.5138 37.9688 21.5129 37.9524C21.5119 37.936 21.515 37.9196 21.5218 37.9046C21.5287 37.8897 21.5392 37.8766 21.5522 37.8667C21.7165 37.7439 21.8779 37.6174 22.0363 37.4873C22.0502 37.4758 22.067 37.4685 22.0848 37.466C22.1027 37.4636 22.1208 37.4662 22.1372 37.4735C27.2516 39.8085 32.7883 39.8085 37.8422 37.4735C37.8587 37.4657 37.8771 37.4628 37.8952 37.465C37.9133 37.4672 37.9305 37.4745 37.9446 37.486C38.1032 37.6169 38.265 37.7438 38.4299 37.8667C38.4431 37.8765 38.4536 37.8895 38.4606 37.9044C38.4675 37.9193 38.4707 37.9357 38.4699 37.9521C38.469 37.9685 38.4642 37.9845 38.4557 37.9986C38.4472 38.0127 38.4354 38.0245 38.4213 38.0329C37.6424 38.4877 36.8266 38.876 35.9824 39.1935C35.9693 39.1986 35.9574 39.2063 35.9475 39.2162C35.9376 39.2261 35.9298 39.238 35.9248 39.2511C35.9198 39.2643 35.9177 39.2783 35.9185 39.2923C35.9192 39.3063 35.923 39.32 35.9294 39.3325C36.3969 40.2354 36.93 41.1028 37.5244 41.9278C37.5365 41.9446 37.5536 41.9573 37.5733 41.964C37.593 41.9707 37.6142 41.971 37.6341 41.965C40.1876 41.1751 42.7768 39.9834 45.4497 38.0204C45.4612 38.012 45.4707 38.0012 45.4777 37.9888C45.4847 37.9764 45.4891 37.9627 45.4904 37.9485C46.1419 31.2078 44.399 25.3523 40.8699 20.1617C40.8613 20.1448 40.8468 20.1316 40.8293 20.1245ZM24.8177 34.3971C23.2779 34.3971 22.0091 32.9835 22.0091 31.2475C22.0091 29.5114 23.2533 28.0978 24.8177 28.0978C26.3943 28.0978 27.6507 29.5239 27.626 31.2475C27.626 32.9835 26.3819 34.3971 24.8177 34.3971ZM35.2015 34.3971C33.6616 34.3971 32.393 32.9835 32.393 31.2475C32.393 29.5114 33.6371 28.0978 35.2015 28.0978C36.778 28.0978 38.0344 29.5239 38.0099 31.2475C38.0099 32.9835 36.778 34.3971 35.2015 34.3971Z" fill="#361500"/>
</g>
</g>
<defs>
<filter id="filter0_d_93_536" x="0" y="0" width="60" height="64" filterUnits="userSpaceOnUse" color-interpolation-filters="sRGB">
<feFlood flood-opacity="0" result="BackgroundImageFix"/>
<feColorMatrix in="SourceAlpha" type="matrix" values="0 0 0 0 0 0 0 0 0 0 0 0 0 0 0 0 0 0 127 0" result="hardAlpha"/>
<feOffset dy="4"/>
<feComposite in2="hardAlpha" operator="out"/>
<feColorMatrix type="matrix" values="0 0 0 0 0.211765 0 0 0 0 0.0823529 0 0 0 0 0 0 0 0 1 0"/>
<feBlend mode="normal" in2="BackgroundImageFix" result="effect1_dropShadow_93_536"/>
<feBlend mode="normal" in="SourceGraphic" in2="effect1_dropShadow_93_536" result="shape"/>
</filter>
<linearGradient id="paint0_linear_93_536" x1="30" y1="10" x2="30" y2="50" gradientUnits="userSpaceOnUse">
<stop stop-color="#FFF6B1"/>
<stop offset="0.54" stop-color="#D6A12D"/>
<stop offset="1" stop-color="#C16718"/>
</linearGradient>
</defs>
</svg>
