<svg width="248" height="236" viewBox="0 0 248 236" fill="none" xmlns="http://www.w3.org/2000/svg">
<path d="M69.6853 154.329C69.6853 190.054 16.3829 235.994 -19.3423 235.994C-55.0674 235.994 -84 207.061 -84 171.336C-84 135.611 -30.6975 89.6711 5.02761 89.6711C40.7528 89.6711 69.6853 118.604 69.6853 154.329Z" fill="#E6F4FD"/>
<path d="M130.61 55.2422C130.61 82.5157 171.313 117.619 198.586 117.619C225.86 117.619 247.948 95.5303 247.948 68.2568C247.948 40.9833 207.245 5.88022 179.972 5.88022C152.698 5.82837 130.61 27.9687 130.61 55.2422Z" fill="#E6F4FD"/>
<path d="M108.988 223.394C165.774 223.394 211.808 190.592 211.808 150.129C211.808 109.666 165.774 76.8637 108.988 76.8637C52.2023 76.8637 6.16809 109.666 6.16809 150.129C6.16809 190.592 52.2023 223.394 108.988 223.394Z" fill="#E6F4FD"/>
<path d="M248 68.2048C248 53.2718 235.763 36.0055 220.26 23.4576C222.178 26.7242 223.889 30.0946 225.237 33.6723C231.874 51.0423 231.874 72.249 219.793 87.2339C209.682 99.7818 193.609 105.33 178.416 109.063C179.246 122.544 176.809 136.181 169.654 147.796C162.55 159.306 151.506 168.329 139.113 173.617C116.714 183.054 89.3368 181.551 66.2113 175.588C59.9893 173.98 38.1602 163.818 38.1602 163.818C38.1602 163.818 -50.7118 200.061 -55.1192 119.33C-71.7114 134.937 -83.8447 154.277 -83.8447 171.336C-83.8447 207.061 -54.9118 235.994 -19.1866 235.994C-0.209282 235.994 23.6938 223.031 41.9452 205.557C59.9893 216.653 83.4259 223.446 109.092 223.446C165.869 223.446 211.912 190.624 211.912 150.181C211.912 138.411 207.919 127.367 201.023 117.515C227.104 116.27 248 94.7005 248 68.2048Z" fill="#B3D6F2"/>
<path d="M49.2046 144.166C103.098 144.166 146.787 100.477 146.787 46.5831C146.787 -7.31053 103.098 -51 49.2046 -51C-4.68908 -51 -48.3785 -7.31053 -48.3785 46.5831C-48.3785 100.477 -4.68908 144.166 49.2046 144.166Z" fill="#E6F4FD"/>
<path d="M-38.9936 12.4652C-35.6752 19.154 -28.4162 24.2872 -21.9867 27.7094C-14.6758 31.5982 -6.58687 33.7242 1.55369 34.9686C18.2496 37.5611 35.8269 37.0943 52.6784 36.4202C72.0187 35.6943 92.085 33.05 109.766 24.8057C117.336 21.2799 125.684 16.717 129.573 8.93943C131.906 4.32471 132.321 -0.341919 131.855 -5.06033C114.588 -32.5931 84.1001 -51 49.2045 -51C8.91651 -51 -25.6679 -26.5783 -40.5491 8.26534C-40.1343 9.82086 -39.6158 11.169 -38.9936 12.4652Z" fill="white"/>
<path d="M28.7754 97.4486C46.8713 117.515 81.8704 122.544 101.211 102.53C106.811 96.5671 109.87 88.1153 108.47 80.3895L106.811 71.4195L115.003 74.8418C135.692 83.3972 157.832 64.0568 153.995 41.4499C165.35 67.116 138.128 93.6634 111.581 84.0192L118.114 78.4195C120.551 89.7748 116.455 101.648 108.729 109.582C86.3815 133.122 43.0343 125.759 28.7754 97.4486Z" fill="white"/>
</svg>
