<svg width="60" height="60" viewBox="0 0 60 60" fill="none" xmlns="http://www.w3.org/2000/svg">
<g filter="url(#filter0_d_93_531)">
<path d="M15.7143 10C12.5625 10 10 12.5625 10 15.7143V44.2857C10 47.4375 12.5625 50 15.7143 50H44.2857C47.4375 50 50 47.4375 50 44.2857V15.7143C50 12.5625 47.4375 10 44.2857 10H15.7143ZM42.2411 17.5L32.9732 28.0893L43.875 42.5H35.3393L28.6607 33.7589L21.0089 42.5H16.7679L26.6786 31.1696L16.2232 17.5H24.9732L31.0179 25.4911L38 17.5H42.2411ZM38.8661 39.9643L23.6964 19.9018H21.1696L36.5089 39.9643H38.8571H38.8661Z" fill="url(#paint0_linear_93_531)"/>
<path fill-rule="evenodd" clip-rule="evenodd" d="M42.2411 17.5L32.9732 28.0893L43.875 42.5H35.3393L28.6607 33.7589L21.0089 42.5H16.7679L26.6786 31.1696L16.2232 17.5H24.9732L31.0179 25.4911L38 17.5H42.2411ZM23.6964 19.9018L38.8661 39.9643H38.8571H36.5089L21.1696 19.9018H23.6964Z" fill="#361500"/>
</g>
<defs>
<filter id="filter0_d_93_531" x="10" y="10" width="40" height="44" filterUnits="userSpaceOnUse" color-interpolation-filters="sRGB">
<feFlood flood-opacity="0" result="BackgroundImageFix"/>
<feColorMatrix in="SourceAlpha" type="matrix" values="0 0 0 0 0 0 0 0 0 0 0 0 0 0 0 0 0 0 127 0" result="hardAlpha"/>
<feOffset dy="4"/>
<feComposite in2="hardAlpha" operator="out"/>
<feColorMatrix type="matrix" values="0 0 0 0 0.211765 0 0 0 0 0.0823529 0 0 0 0 0 0 0 0 1 0"/>
<feBlend mode="normal" in2="BackgroundImageFix" result="effect1_dropShadow_93_531"/>
<feBlend mode="normal" in="SourceGraphic" in2="effect1_dropShadow_93_531" result="shape"/>
</filter>
<linearGradient id="paint0_linear_93_531" x1="30" y1="10" x2="30" y2="50" gradientUnits="userSpaceOnUse">
<stop stop-color="#FFF6B1"/>
<stop offset="0.54" stop-color="#D6A12D"/>
<stop offset="1" stop-color="#C16718"/>
</linearGradient>
</defs>
</svg>
